<svg xmlns="http://www.w3.org/2000/svg" xmlns:xlink="http://www.w3.org/1999/xlink" width="220" height="241" viewBox="0 0 220 241">
  <defs>
    <filter id="Rect치ngulo_410488" x="0" y="0" width="220" height="241" filterUnits="userSpaceOnUse">
      <feOffset dx="3" dy="6" input="SourceAlpha"/>
      <feGaussianBlur stdDeviation="5" result="blur"/>
      <feFlood flood-opacity="0.161"/>
      <feComposite operator="in" in2="blur"/>
      <feComposite in="SourceGraphic"/>
    </filter>
  </defs>
  <g id="Grupo_1198590" data-name="Grupo 1198590" transform="translate(-204.467 -5153)">
    <g transform="matrix(1, 0, 0, 1, 204.47, 5153)" filter="url(#Rect치ngulo_410488)">
      <rect id="Rect치ngulo_410488-2" data-name="Rect치ngulo 410488" width="190" height="211" rx="8" transform="translate(12 9)" fill="#a87f78"/>
    </g>
    <g id="handshake_2174582" transform="translate(255.155 5211.189)">
      <path id="Trazado_1253676" data-name="Trazado 1253676" d="M65.771,8.632l-9.294,8.191H45.429a8.28,8.28,0,0,0-5.436,2.058l-23.8,21.1s5.075,7.165,11.285,5.706c2.74-.652,10.84-6.659,11.849-7.581l3.4,6.22L64.889,66.554s7.78-8.163,11.171-11.285c4.716-4.31,2.987-16.055,2.987-16.055L88.41,31.37Z" transform="translate(21.8 11.624)" fill="#f2c2a2"/>
      <path id="Trazado_1253677" data-name="Trazado 1253677" d="M39.306,8.632,35.848,11.68,58.407,34.333l3.538-2.963v-.007Z" transform="translate(48.264 11.624)" fill="#efb695"/>
      <path id="Trazado_1253678" data-name="Trazado 1253678" d="M48.964,1l-13.5,13.547,27.005,27.1V1Z" transform="translate(47.743 1.349)" fill="#776471"/>
      <path id="Trazado_1253679" data-name="Trazado 1253679" d="M32.668,26.516l-.981-1.8a10.474,10.474,0,0,0,4.078.849,19.609,19.609,0,0,0,4.319-.162,3.721,3.721,0,0,0,3.146-4.254,59.148,59.148,0,0,1-6.628.734,23.6,23.6,0,0,1-7.313-1.877l-3.238,2.78,3.4,6.225L51.612,51.243l2.816-2.916Z" transform="translate(35.076 26.934)" fill="#efb695"/>
      <path id="Trazado_1253680" data-name="Trazado 1253680" d="M87.14,67.667a5.518,5.518,0,0,1,.214,7.836,5.417,5.417,0,0,1-7.546.214c2.614,2.766,3.318,5.631,1.293,7.855a5.615,5.615,0,0,1-8.156.556c-.253-.192-.938-.8-.938-.8a5.439,5.439,0,1,1-8.034,7.327l-1.422-1.422a5.572,5.572,0,0,1,.314,7.792l-.045.047a5.922,5.922,0,0,1-8.038-.235S18.118,59.61,13.395,55.274s-2.98-16.055-2.98-16.055L1.03,31.375l.012-.033L23.683,8.628l9.3,8.2H44.035a8.273,8.273,0,0,1,5.432,2.058l5.457,4.859,5.162,14.014,3.4,6.232L85.643,66.224Z" transform="translate(1.39 11.618)" fill="#ffe1c3"/>
      <path id="Trazado_1253681" data-name="Trazado 1253681" d="M27.11,11.657,4.567,34.338,1.029,31.375l.012-.033L23.682,8.628Z" transform="translate(1.389 11.618)" fill="#fed9b9"/>
      <path id="Trazado_1253682" data-name="Trazado 1253682" d="M14.532,1H1.029V41.644l27.005-27.1Z" transform="translate(1.389 1.349)" fill="#776471"/>
      <path id="Trazado_1253683" data-name="Trazado 1253683" d="M35.26,14.791,16.19,31.684s5.075,7.165,11.285,5.706c2.74-.652,11.307-7.065,12.318-7.977Z" transform="translate(21.8 19.915)" fill="#f2c2a2"/>
      <path id="Trazado_1253684" data-name="Trazado 1253684" d="M11.638,47.395a5.441,5.441,0,0,0,7.712-.054l9-9.033a5.428,5.428,0,1,0-7.661-7.691l-9,9.033A5.488,5.488,0,0,0,11.638,47.395Z" transform="translate(13.555 39.027)" fill="#efb695"/>
      <path id="Trazado_1253685" data-name="Trazado 1253685" d="M14.938,53.221a5.4,5.4,0,0,0,7.661-.106l13.357-13.4A5.353,5.353,0,1,0,28.4,32.133l-13.362,13.4A5.45,5.45,0,0,0,14.938,53.221Z" transform="translate(18.047 41.042)" fill="#efb695"/>
      <path id="Trazado_1253686" data-name="Trazado 1253686" d="M18.279,54.1a5.439,5.439,0,0,0,7.705-.061l9.08-9.113a5.418,5.418,0,1,0-7.642-7.682L18.33,46.373a5.479,5.479,0,0,0-.052,7.729Z" transform="translate(22.498 47.949)" fill="#efb695"/>
      <path id="Trazado_1253687" data-name="Trazado 1253687" d="M22.828,53.357A5.439,5.439,0,0,0,30.54,53.3l4.106-4.12a5.428,5.428,0,1,0-7.661-7.691l-4.1,4.125a5.486,5.486,0,0,0-.054,7.738Z" transform="translate(28.622 53.671)" fill="#efb695"/>
      <g id="Grupo_1198349" data-name="Grupo 1198349" transform="translate(21.952 69.688)">
        <path id="Trazado_1253688" data-name="Trazado 1253688" d="M10.927,48.108a5.441,5.441,0,0,0,7.712-.054l9-9.033a5.428,5.428,0,1,0-7.661-7.691l-9,9.033a5.488,5.488,0,0,0-.054,7.745Z" transform="translate(-9.355 -29.701)" fill="#f2c2a2"/>
        <path id="Trazado_1253689" data-name="Trazado 1253689" d="M14.229,53.934a5.4,5.4,0,0,0,7.661-.106l13.348-13.4a5.353,5.353,0,1,0-7.555-7.581l-13.357,13.4a5.45,5.45,0,0,0-.1,7.686Z" transform="translate(-4.864 -27.686)" fill="#f2c2a2"/>
        <path id="Trazado_1253690" data-name="Trazado 1253690" d="M17.566,54.811a5.439,5.439,0,0,0,7.705-.061l9.08-9.113a5.416,5.416,0,1,0-7.642-7.675l-9.082,9.113a5.481,5.481,0,0,0-.061,7.736Z" transform="translate(-0.41 -20.775)" fill="#f2c2a2"/>
        <path id="Trazado_1253691" data-name="Trazado 1253691" d="M22.117,54.07a5.439,5.439,0,0,0,7.712-.052l4.106-4.12a5.428,5.428,0,1,0-7.661-7.691l-4.1,4.125a5.486,5.486,0,0,0-.054,7.738Z" transform="translate(5.713 -15.057)" fill="#f2c2a2"/>
      </g>
      <path id="Trazado_1253692" data-name="Trazado 1253692" d="M112.624,43.155a2.346,2.346,0,0,0-.683-1.767L86.557,15.915,98.424,4.008A2.351,2.351,0,0,0,95.093.69L81.574,14.256a2.346,2.346,0,0,0,0,3.318l2.593,2.607-6.75,5.948H67.257a10.542,10.542,0,0,0-7.006,2.661L36.413,49.905a2.346,2.346,0,0,0-.361,3.121c.221.31,4.965,6.886,11.483,6.886a9.725,9.725,0,0,0,2.281-.272C55.1,58.368,61.274,52.9,63.923,50.356A22.3,22.3,0,0,0,77.733,52.2c8.937-1.642,11.058-5.333,11.391-6.06A2.4,2.4,0,0,0,88,42.958a2.3,2.3,0,0,0-3.088,1.1c-.014.023-1.476,2.325-8.022,3.519a16.947,16.947,0,0,1-12.008-2.058,2.346,2.346,0,0,0-3.05.3c-2.112,2.208-8.578,8.17-13.116,9.263-2.987.7-5.842-1.532-7.459-3.182L63.369,32.3a5.849,5.849,0,0,1,3.888-1.476H78.3a2.346,2.346,0,0,0,1.553-.587l7.637-6.727L106.8,42.88l-7.424,6.206a2.346,2.346,0,0,0-.816,2.144c.4,2.733.845,11.178-2.243,14.017-3.231,2.968-7.323,6.863-9.57,9.014L66.553,54a2.351,2.351,0,0,0-3.332,3.318L87.05,81.228a3.123,3.123,0,0,1,0,4.4,3.05,3.05,0,0,1-4.3.042L67.538,70.416a2.351,2.351,0,0,0-3.332,3.318L79.457,89.024a5.572,5.572,0,0,1,1.858,3.538,2.055,2.055,0,0,1-.9,1.513c-.755.626-2.515,2.112-5.342-.7L61.562,79.815a2.351,2.351,0,0,0-3.332,3.318L71.724,96.668a3.128,3.128,0,0,1-.028,4.355,3.073,3.073,0,0,1-4.343.009L65.624,99.3c-.054-.054-.124-.073-.181-.12a7.665,7.665,0,0,0-5.91-7.088,7.8,7.8,0,0,0-1.905-7.771,7.454,7.454,0,0,0-2.816-1.75,7.806,7.806,0,0,0-.673-10.206,7.977,7.977,0,0,0-10.22-.645,7.743,7.743,0,0,0-1.753-2.743,7.977,7.977,0,0,0-11.027,0L25.6,74.534c-1.757-1.877-5.666-5.976-9.277-9.291-3.078-2.83-2.632-11.276-2.243-14.012a2.346,2.346,0,0,0-.821-2.147l-7.433-6.2L25.149,23.5,32.8,30.241a2.346,2.346,0,0,0,1.553.587H45.4a6.011,6.011,0,0,1,4.017,1.581l.533.408A2.347,2.347,0,0,0,52.8,29.092l-.408-.305a10.558,10.558,0,0,0-7.006-2.661H35.237l-6.764-5.959,2.581-2.581a2.346,2.346,0,0,0,0-3.318L17.535.69A2.351,2.351,0,0,0,14.2,4.008L26.071,15.915.684,41.388a2.346,2.346,0,0,0,.16,3.463L9.29,51.876c-.352,3.533-.739,12.588,3.874,16.83,3.519,3.243,7.475,7.391,9.15,9.164l-.052.054a7.829,7.829,0,0,0,0,11.027,7.712,7.712,0,0,0,5.4,2.274,7.766,7.766,0,0,0,7.724,7.719,7.743,7.743,0,0,0,10.851,7.067,7.619,7.619,0,0,0,9.509,5.2,8.508,8.508,0,0,0,4.693,1.408,7.7,7.7,0,0,0,5.516-2.2,7.323,7.323,0,0,0,2.029-3.951,7.765,7.765,0,0,0,9.268-6.821,7.888,7.888,0,0,0,6.194-1.99,6.767,6.767,0,0,0,2.581-4.873,6.838,6.838,0,0,0-.12-1.642,7.712,7.712,0,0,0,4.5-2.2,7.829,7.829,0,0,0,0-11.027l-.314-.317c2.245-2.152,6.26-5.974,9.43-8.888,4.617-4.242,4.223-13.3,3.876-16.832l8.411-7.025a2.346,2.346,0,0,0,.821-1.7ZM25.578,81.244,34.494,72.3a3.156,3.156,0,0,1,4.364,0,3.113,3.113,0,0,1,.059,4.308L29.9,85.641l-.033.04a3.088,3.088,0,0,1-4.291-4.437Zm7.661,12.1a3.116,3.116,0,0,1,0-4.395L46.46,75.686a3.071,3.071,0,0,1,4.359,0,3.123,3.123,0,0,1,0,4.4L37.591,93.351a3.071,3.071,0,0,1-4.359,0Zm7.714,7.712a3.123,3.123,0,0,1,0-4.4c.019-.019.023-.042.04-.061l8.885-8.916c.021-.019.049-.026.068-.045a3.095,3.095,0,0,1,4.357,4.4l-8.989,9.019a3.151,3.151,0,0,1-4.371,0Zm10.516,4.876a3.116,3.116,0,0,1,0-4.385l4.075-4.09a3.064,3.064,0,0,1,4.355,0,3.121,3.121,0,0,1,0,4.4l-4.08,4.078a3.149,3.149,0,0,1-4.359,0Zm11.149,1.173a3.024,3.024,0,0,1-2.053.732l2.654-2.665c.056-.054.092-.12.143-.174a2.684,2.684,0,0,1-.753,2.107Z" transform="translate(0 0)"/>
    </g>
  </g>
</svg>
