<svg xmlns="http://www.w3.org/2000/svg" xmlns:xlink="http://www.w3.org/1999/xlink" width="118" height="118" viewBox="0 0 118 118">
  <defs>
    <filter id="Elipse_12115" x="0" y="0" width="118" height="118" filterUnits="userSpaceOnUse">
      <feOffset dy="3" input="SourceAlpha"/>
      <feGaussianBlur stdDeviation="3" result="blur"/>
      <feFlood flood-opacity="0.161"/>
      <feComposite operator="in" in2="blur"/>
      <feComposite in="SourceGraphic"/>
    </filter>
  </defs>
  <g id="Grupo_1198558" data-name="Grupo 1198558" transform="translate(-69.397 8501.65)">
    <g id="Grupo_1198386" data-name="Grupo 1198386" transform="translate(-730.384 -11044.65)">
      <g transform="matrix(1, 0, 0, 1, 799.78, 2543)" filter="url(#Elipse_12115)">
        <g id="Elipse_12115-2" data-name="Elipse 12115" transform="translate(9 6)" fill="#f6dfb0" stroke="#a27a29" stroke-width="2">
          <circle cx="50" cy="50" r="50" stroke="none"/>
          <circle cx="50" cy="50" r="49" fill="none"/>
        </g>
      </g>
    </g>
    <g id="face-face_7851531" transform="translate(96 -8477)">
      <path id="Trazado_1254063" data-name="Trazado 1254063" d="M41,29.42a1.582,1.582,0,0,0-.208-.784L33.5,15.868a1.73,1.73,0,0,0-3,0L23.2,28.636A1.592,1.592,0,0,0,24.58,31H39.42A1.581,1.581,0,0,0,41,29.42Z" fill="#f6b940"/>
      <path id="Trazado_1254064" data-name="Trazado 1254064" d="M31,20h2v5H31Z" fill="#474747"/>
      <path id="Trazado_1254065" data-name="Trazado 1254065" d="M31,26h2v2H31Z" fill="#474747"/>
      <path id="Trazado_1254066" data-name="Trazado 1254066" d="M44,54H62V35a7,7,0,0,0-7-7H47.509a2,2,0,0,0-1.923,1.451A41.2,41.2,0,0,0,44,40.771Z" fill="#2862be"/>
      <path id="Trazado_1254067" data-name="Trazado 1254067" d="M57.228,54H62V35a7,7,0,0,0-7-7H47.509a2,2,0,0,0-1.923,1.451A41.2,41.2,0,0,0,44,40.771,13.229,13.229,0,0,0,57.228,54Z" fill="#3279ea"/>
      <path id="Trazado_1254068" data-name="Trazado 1254068" d="M55,28V22l-5-2V17h2a2,2,0,0,0,0-4H50V8H44a3.618,3.618,0,0,0-2,3.236V14l-2,3v2h3v2a2,2,0,0,0,2,2h1a2,2,0,0,1,2,2v3Z" fill="#fbe1ca"/>
      <path id="Trazado_1254069" data-name="Trazado 1254069" d="M44,8a6.826,6.826,0,0,1-2-4.828V2H55a7,7,0,0,1,7,7v6a7,7,0,0,1-7,7l-5-2V17h2a2,2,0,0,0,0-4H50V8Z" fill="#686868"/>
      <path id="Trazado_1254070" data-name="Trazado 1254070" d="M50,32h8v6a4,4,0,0,1-8,0Z" transform="translate(108 74) rotate(180)" fill="#7aadf9"/>
      <path id="Trazado_1254071" data-name="Trazado 1254071" d="M51,42v3H36.5a2.5,2.5,0,0,0,0,5H53a4,4,0,0,0,4-4V42" fill="#fbe1ca"/>
      <path id="Trazado_1254072" data-name="Trazado 1254072" d="M48,54v8H60V54" fill="#686868"/>
      <path id="Trazado_1254073" data-name="Trazado 1254073" d="M20,54H2V35a7,7,0,0,1,7-7h7.491a2,2,0,0,1,1.923,1.451A41.2,41.2,0,0,1,20,40.771Z" fill="#4d8c28"/>
      <path id="Trazado_1254074" data-name="Trazado 1254074" d="M20,54A18,18,0,0,1,2,36V35a7,7,0,0,1,7-7h7.491a2,2,0,0,1,1.923,1.451A41.2,41.2,0,0,1,20,40.771Z" fill="#559b2d"/>
      <path id="Trazado_1254075" data-name="Trazado 1254075" d="M9,28V22l5-2V17H12a2,2,0,0,1,0-4h2V8h6a3.618,3.618,0,0,1,2,3.236V14l2,3v2H21v2a2,2,0,0,1-2,2H18a2,2,0,0,0-2,2v3Z" fill="#fbe1ca"/>
      <path id="Trazado_1254076" data-name="Trazado 1254076" d="M20,8a6.826,6.826,0,0,0,2-4.828V2H9A7,7,0,0,0,2,9v6a7,7,0,0,0,7,7l5-2V17H12a2,2,0,0,1,0-4h2V8Z" fill="#686868"/>
      <path id="Trazado_1254077" data-name="Trazado 1254077" d="M11,32a4,4,0,0,1,4,4v6H7V36a4,4,0,0,1,4-4Z" fill="#6bc13b"/>
      <path id="Trazado_1254078" data-name="Trazado 1254078" d="M14,42v3H27.5a2.5,2.5,0,0,1,0,5H12a4,4,0,0,1-4-4V42" fill="#fbe1ca"/>
      <path id="Trazado_1254079" data-name="Trazado 1254079" d="M16,54v8H4V54" fill="#686868"/>
      <path id="Trazado_1254080" data-name="Trazado 1254080" d="M27.5,44H21V40.771a42.21,42.21,0,0,0-1.626-11.605A3.017,3.017,0,0,0,17,27.045V25a1,1,0,0,1,1-1h1a3,3,0,0,0,3-3V20h2a1,1,0,0,0,1-1V17a1.006,1.006,0,0,0-.168-.555L23,13.7V11.236a4.592,4.592,0,0,0-1.521-3.429A7.9,7.9,0,0,0,23,3.172V2a1,1,0,0,0-1-1H9A8.009,8.009,0,0,0,1,9v6a8.008,8.008,0,0,0,7,7.931v4.138A8.008,8.008,0,0,0,1,35V54a1,1,0,0,0,1,1H3v7a1,1,0,0,0,1,1H16a1,1,0,0,0,1-1V55h3a1,1,0,0,0,1-1V51h6.5a3.5,3.5,0,1,0,0-7ZM23,17.3V18H21a1,1,0,0,0-1,1v2a1,1,0,0,1-1,1H18a3,3,0,0,0-3,3v2H10V22.677l4.371-1.748A1,1,0,0,0,15,20V17a1,1,0,0,0-1-1H12a1,1,0,0,1,0-2h2a1,1,0,0,0,1-1V9h4.744A2.606,2.606,0,0,1,21,11.236V14a1.006,1.006,0,0,0,.168.555ZM3,15V9A6.006,6.006,0,0,1,9,3H21v.172A5.873,5.873,0,0,1,19.565,7H14a1,1,0,0,0-1,1v4H12a3,3,0,0,0,0,6h1v1.323L8.814,21A6.008,6.008,0,0,1,3,15ZM15,61H5V55H15Zm4-8H3V35a6.006,6.006,0,0,1,6-6h7.491a1,1,0,0,1,.961.726A40.149,40.149,0,0,1,19,40.771V44H15V43a1,1,0,0,0,1-1V36A5,5,0,1,0,6,36v6a1,1,0,0,0,1,1v3a5.006,5.006,0,0,0,5,5h7ZM8,41V36a3,3,0,0,1,6,0v5Zm19.5,8H12a3,3,0,0,1-3-3V43h4v2a1,1,0,0,0,1,1H27.5a1.5,1.5,0,0,1,0,3Z"/>
      <path id="Trazado_1254081" data-name="Trazado 1254081" d="M63,15V9a8.009,8.009,0,0,0-8-8H42a1,1,0,0,0-1,1V3.172a7.9,7.9,0,0,0,1.521,4.635A4.589,4.589,0,0,0,41,11.236V13.7l-1.832,2.748A1.006,1.006,0,0,0,39,17v2a1,1,0,0,0,1,1h2v1a3,3,0,0,0,3,3h1a1,1,0,0,1,1,1v2.045a3.016,3.016,0,0,0-2.376,2.13A42.211,42.211,0,0,0,43,40.771V44H36.5a3.5,3.5,0,0,0,0,7H43v3a1,1,0,0,0,1,1h3v7a1,1,0,0,0,1,1H60a1,1,0,0,0,1-1V55h1a1,1,0,0,0,1-1V35a8.008,8.008,0,0,0-7-7.931V22.931A8.008,8.008,0,0,0,63,15ZM43,3H55a6.006,6.006,0,0,1,6,6v6a6.008,6.008,0,0,1-5.814,6L51,19.323V18h1a3,3,0,0,0,0-6H51V8a1,1,0,0,0-1-1H44.435A5.873,5.873,0,0,1,43,3.172Zm3,19H45a1,1,0,0,1-1-1V19a1,1,0,0,0-1-1H41v-.7l1.832-2.748A1.006,1.006,0,0,0,43,14V11.236A2.606,2.606,0,0,1,44.256,9H49v4a1,1,0,0,0,1,1h2a1,1,0,0,1,0,2H50a1,1,0,0,0-1,1v3a1,1,0,0,0,.629.929L54,22.677V27H49V25a3,3,0,0,0-3-3ZM35,47.5A1.5,1.5,0,0,1,36.5,46H51a1,1,0,0,0,1-1V43h4v3a3,3,0,0,1-3,3H36.5A1.5,1.5,0,0,1,35,47.5ZM57,41H51V36a3,3,0,0,1,6,0Zm2,20H49V55H59Zm2-26V53H45V51h8a5.006,5.006,0,0,0,5-5V43a1,1,0,0,0,1-1V36a5,5,0,0,0-10,0v6a1,1,0,0,0,1,1v1H45V40.771a40.168,40.168,0,0,1,1.549-11.049,1,1,0,0,1,.96-.722H55A6.006,6.006,0,0,1,61,35Z"/>
      <path id="Trazado_1254082" data-name="Trazado 1254082" d="M22,29.42A2.582,2.582,0,0,0,24.58,32H39.42a2.58,2.58,0,0,0,2.24-3.86l-7.3-12.768a2.723,2.723,0,0,0-4.728,0L22.341,28.138A2.578,2.578,0,0,0,22,29.42Zm2.076-.288,7.3-12.768a.724.724,0,0,1,1.256,0l7.3,12.77a.581.581,0,0,1-.5.866H24.58a.581.581,0,0,1-.5-.868Z"/>
      <path id="Trazado_1254083" data-name="Trazado 1254083" d="M31,20h2v5H31Z"/>
      <path id="Trazado_1254084" data-name="Trazado 1254084" d="M31,26h2v2H31Z"/>
    </g>
  </g>
</svg>
