<svg xmlns="http://www.w3.org/2000/svg" xmlns:xlink="http://www.w3.org/1999/xlink" width="220" height="138.915" viewBox="0 0 220 138.915">
  <defs>
    <filter id="Rectángulo_404858" x="0" y="0" width="220" height="138.915" filterUnits="userSpaceOnUse">
      <feOffset dx="3" dy="6" input="SourceAlpha"/>
      <feGaussianBlur stdDeviation="5" result="blur"/>
      <feFlood flood-opacity="0.161"/>
      <feComposite operator="in" in2="blur"/>
      <feComposite in="SourceGraphic"/>
    </filter>
  </defs>
  <g id="Grupo_1198576" data-name="Grupo 1198576" transform="translate(-1179.051 -406)">
    <g id="Grupo_1198277" data-name="Grupo 1198277" transform="translate(1191.051 415)">
      <g id="Grupo_1113681" data-name="Grupo 1113681" transform="translate(0)">
        <g transform="matrix(1, 0, 0, 1, -12, -9)" filter="url(#Rectángulo_404858)">
          <rect id="Rectángulo_404858-2" data-name="Rectángulo 404858" width="190" height="108.915" rx="8" transform="translate(12 9)" fill="#f6dfb0"/>
        </g>
      </g>
    </g>
    <g id="Grupo_1198575" data-name="Grupo 1198575">
      <g id="Grupo_1198574" data-name="Grupo 1198574" transform="translate(-0.059 0.865)">
        <g id="dialogue_13140796" transform="translate(1244.96 422.101)">
          <g id="Grupo_1198571" data-name="Grupo 1198571" transform="translate(0 0)">
            <path id="Trazado_1254132" data-name="Trazado 1254132" d="M221.1,226.5a29.39,29.39,0,1,1,46.351-6.276,2.928,2.928,0,0,0-.293,2.2l1.836,6.851a2.9,2.9,0,0,1-3.551,3.551l-6.852-1.836a2.927,2.927,0,0,0-2.2.293A29.4,29.4,0,0,1,221.1,226.5Z" transform="translate(-171.226 -149.675)" fill="#ffc344"/>
            <path id="Trazado_1254133" data-name="Trazado 1254133" d="M345.816,222.434a2.927,2.927,0,0,1,.293-2.2,29.355,29.355,0,0,0-25.944-43.859,29.852,29.852,0,0,1-9.191,57.149,29.461,29.461,0,0,0,24.071-2.227,2.927,2.927,0,0,1,2.2-.293l6.852,1.836a2.9,2.9,0,0,0,3.551-3.551Z" transform="translate(-249.887 -149.682)" fill="#feb237"/>
            <path id="Trazado_1254134" data-name="Trazado 1254134" d="M57.671,93.929A29.39,29.39,0,1,0,11.32,87.652a2.928,2.928,0,0,1,.293,2.2L9.777,96.708a2.9,2.9,0,0,0,3.551,3.551l6.852-1.836a2.927,2.927,0,0,1,2.2.293A29.4,29.4,0,0,0,57.671,93.929Z" transform="translate(-7.5 -43.789)" fill="#fff0ad"/>
            <path id="Trazado_1254135" data-name="Trazado 1254135" d="M145.162,52.4a29.267,29.267,0,0,0-18.99-8.38,31.476,31.476,0,0,1-8.943,57.783,29.393,29.393,0,0,0,27.933-49.4Z" transform="translate(-95.141 -43.974)" fill="#ffe177"/>
            <circle id="Elipse_12275" data-name="Elipse 12275" cx="15.78" cy="15.78" r="15.78" transform="translate(13.424 14.378)" fill="#f2fbff"/>
            <circle id="Elipse_12276" data-name="Elipse 12276" cx="13.124" cy="13.124" r="13.124" transform="translate(51.045 8.169)" fill="#97da7b"/>
          </g>
          <g id="Grupo_1198572" data-name="Grupo 1198572" transform="translate(0 0)">
            <path id="Trazado_1254136" data-name="Trazado 1254136" d="M252.6,178.686A29.355,29.355,0,0,1,272.9,222.081a2.927,2.927,0,0,0-.293,2.2l1.836,6.851a2.9,2.9,0,0,1-3.551,3.551l-6.852-1.836a2.928,2.928,0,0,0-2.2.293,29.41,29.41,0,0,1-42.52-16.664" transform="translate(-176.682 -151.532)" fill="none" stroke="#000" stroke-linecap="round" stroke-linejoin="round" stroke-miterlimit="10" stroke-width="1.5"/>
            <path id="Trazado_1254137" data-name="Trazado 1254137" d="M15.031,92.03a29.408,29.408,0,0,0-3.711,34.152,2.928,2.928,0,0,1,.293,2.2l-1.836,6.851a2.9,2.9,0,0,0,3.551,3.551l6.852-1.836a2.927,2.927,0,0,1,2.2.293A29.4,29.4,0,0,0,65.962,116" transform="translate(-7.5 -82.319)" fill="none" stroke="#000" stroke-linecap="round" stroke-linejoin="round" stroke-miterlimit="10" stroke-width="1.5"/>
            <path id="Trazado_1254138" data-name="Trazado 1254138" d="M118.7,56.914a29.421,29.421,0,0,0-39.456-9.071" transform="translate(-64.801 -43.789)" fill="none" stroke="#000" stroke-linecap="round" stroke-linejoin="round" stroke-miterlimit="10" stroke-width="1.5"/>
            <circle id="Elipse_12277" data-name="Elipse 12277" cx="15.78" cy="15.78" r="15.78" transform="translate(13.424 14.378)" fill="none" stroke="#000" stroke-linecap="round" stroke-linejoin="round" stroke-miterlimit="10" stroke-width="1.5"/>
            <line id="Línea_848" data-name="Línea 848" y2="29.928" transform="translate(29.204 15.296)" fill="none" stroke="#000" stroke-linecap="round" stroke-linejoin="round" stroke-miterlimit="10" stroke-width="1.5"/>
            <line id="Línea_849" data-name="Línea 849" y1="10.648" x2="12.054" transform="translate(17.15 28.261)" fill="none" stroke="#000" stroke-linecap="round" stroke-linejoin="round" stroke-miterlimit="10" stroke-width="1.5"/>
            <line id="Línea_850" data-name="Línea 850" x1="12.054" y1="10.648" transform="translate(29.204 28.261)" fill="none" stroke="#000" stroke-linecap="round" stroke-linejoin="round" stroke-miterlimit="10" stroke-width="1.5"/>
            <circle id="Elipse_12278" data-name="Elipse 12278" cx="13.124" cy="13.124" r="13.124" transform="translate(51.045 8.169)" fill="none" stroke="#000" stroke-linecap="round" stroke-linejoin="round" stroke-miterlimit="10" stroke-width="1.5"/>
            <line id="Línea_851" data-name="Línea 851" x2="2.735" y2="2.735" transform="translate(60.098 21.684)" fill="none" stroke="#000" stroke-linecap="round" stroke-linejoin="round" stroke-miterlimit="10" stroke-width="1.5"/>
            <line id="Línea_852" data-name="Línea 852" x1="6.268" y2="6.268" transform="translate(62.842 18.159)" fill="none" stroke="#000" stroke-linecap="round" stroke-linejoin="round" stroke-miterlimit="10" stroke-width="1.5"/>
            <line id="Línea_853" data-name="Línea 853" x2="24.419" transform="translate(59.501 48.388)" fill="none" stroke="#000" stroke-linecap="round" stroke-linejoin="round" stroke-miterlimit="10" stroke-width="1.5"/>
            <line id="Línea_854" data-name="Línea 854" x2="24.419" transform="translate(59.501 56.774)" fill="none" stroke="#000" stroke-linecap="round" stroke-linejoin="round" stroke-miterlimit="10" stroke-width="1.5"/>
            <line id="Línea_855" data-name="Línea 855" x2="24.419" transform="translate(59.501 65.159)" fill="none" stroke="#000" stroke-linecap="round" stroke-linejoin="round" stroke-miterlimit="10" stroke-width="1.5"/>
          </g>
        </g>
        <g id="hope_8706077" transform="translate(1235.533 455.365)">
          <g id="Grupo_1198573" data-name="Grupo 1198573" transform="translate(44.22 0.724)">
            <path id="Trazado_1254139" data-name="Trazado 1254139" d="M49.722,5.086a6.788,6.788,0,0,1-3.2,2.632A6.781,6.781,0,0,1,47.2,3.632,6.788,6.788,0,0,1,50.4,1a6.781,6.781,0,0,1-.68,4.086Z" transform="translate(-46.45 -1)" fill="#82e250"/>
            <path id="Trazado_1254140" data-name="Trazado 1254140" d="M58.368,9.273A6.778,6.778,0,0,1,54.6,10.987a6.788,6.788,0,0,1,1.711-3.771A6.788,6.788,0,0,1,60.083,5.5a6.788,6.788,0,0,1-1.714,3.773Z" transform="translate(-46.697 -1.136)" fill="#82e250"/>
            <path id="Trazado_1254141" data-name="Trazado 1254141" d="M61.528,15.789a6.788,6.788,0,0,1-3.2,2.632,6.781,6.781,0,0,1,.679-4.086,6.78,6.78,0,0,1,3.2-2.632A6.781,6.781,0,0,1,61.528,15.789Z" transform="translate(-46.808 -1.325)" fill="#82e250"/>
            <path id="Trazado_1254142" data-name="Trazado 1254142" d="M49.788,10.737a6.788,6.788,0,0,1,4.142.04,6.788,6.788,0,0,1-3.148,2.694,6.78,6.78,0,0,1-4.142-.041,6.788,6.788,0,0,1,3.148-2.693Z" transform="translate(-46.456 -1.286)" fill="#82e250"/>
          </g>
          <path id="Trazado_1254143" data-name="Trazado 1254143" d="M34.66,28.515l-4.722-7.341a13.575,13.575,0,0,0-11.419-6.234H12.812A18.37,18.37,0,0,1,4.6,13c.966,10.665,5.814,23.27,22.3,22.3H34.66Z" transform="translate(-0.961 -0.64)" fill="#e8f2fc"/>
          <path id="Trazado_1254144" data-name="Trazado 1254144" d="M23.931,41C20.052,45.848,15.2,49.727,2.6,45.848c-.97,15.649,10.62,16.484,10.62,16.484s6.834-1.939,5.865-10.666" transform="translate(-0.898 -1.489)" fill="#f9fcff"/>
          <path id="Trazado_1254145" data-name="Trazado 1254145" d="M51.567,21l-.97,4.848,6.788-1.939Z" transform="translate(-2.356 -0.883)" fill="#ffe45a"/>
          <path id="Trazado_1254146" data-name="Trazado 1254146" d="M19.379,55.23q-2.79-.463-5.807-1.231a.727.727,0,1,0-.361,1.409q3.057.782,5.891,1.25a10.613,10.613,0,0,0,.277-1.428Z" transform="translate(-1.205 -1.883)" fill="#e8f2fc"/>
          <path id="Trazado_1254147" data-name="Trazado 1254147" d="M13.236,52.878C53.554,63.2,47.772,28.442,47.886,27.991A5.818,5.818,0,0,0,45.235,17c-1.863,0-10.666,1.939-13.575,16.484l-4.722-7.341a13.575,13.575,0,0,0-11.419-6.234H9.812A18.37,18.37,0,0,1,1.6,17.972c.966,10.665,5.814,23.27,22.3,22.3C20.024,45.121,15.176,49,2.57,45.121" transform="translate(-0.87 -0.761)" fill="#f9fcff"/>
          <circle id="Elipse_12279" data-name="Elipse 12279" cx="0.97" cy="0.97" r="0.97" transform="translate(43.393 20.117)"/>
          <path id="Trazado_1254148" data-name="Trazado 1254148" d="M61.182,11.226a.751.751,0,0,0-.97-.558,7.5,7.5,0,0,0-3.579,2.951,5.471,5.471,0,0,0-.242.506,8.155,8.155,0,0,0-.5-.952,12.984,12.984,0,0,0-1.478-1.917,6.816,6.816,0,0,0,2.842-1.629,7.5,7.5,0,0,0,1.923-4.22.752.752,0,0,0-.788-.788,7.491,7.491,0,0,0-4.22,1.925,6.9,6.9,0,0,0-1.679,3.006,13.893,13.893,0,0,0-5.2-2.257,6.4,6.4,0,0,0,1.685-1.868A7.5,7.5,0,0,0,49.735.849a.752.752,0,0,0-.97-.559,7.507,7.507,0,0,0-3.58,2.952,7.087,7.087,0,0,0-.842,3.7,13.366,13.366,0,0,0-2.122.081.726.726,0,0,0-.609.827.734.734,0,0,0,.827.611,14.117,14.117,0,0,1,6.961.981,5.978,5.978,0,0,0-1.261.3,7.5,7.5,0,0,0-3.528,3.013A.752.752,0,0,0,45,13.807a7.5,7.5,0,0,0,4.639.04,7.049,7.049,0,0,0,3.028-2.3,11.644,11.644,0,0,1,2,2.4c1.3,2.078,1.54,5.035.776,8.3l-4.024-2.015a6.552,6.552,0,0,0-6.206-4.47c-2.36,0-8.034,1.869-11.742,9.345l-3.032-4.716A14.244,14.244,0,0,0,18.4,13.826H12.7a17.745,17.745,0,0,1-7.89-1.862.726.726,0,0,0-1.049.716,41.981,41.981,0,0,0,.8,5.194A17.5,17.5,0,0,1,1.9,16.812a.726.726,0,0,0-1.049.716c.793,8.727,4.634,23.018,21.263,23.017h.163c-3.437,3.889-8.2,6.856-19.519,3.373a.727.727,0,0,0-.94.651c-1,16.178,11.171,17.245,11.3,17.253h.052a.768.768,0,0,0,.2-.027,9.43,9.43,0,0,0,6.273-7.356c9.682,1.48,17.1.078,22.1-4.2,5.364-4.588,7.809-12.525,6.885-22.355a6.522,6.522,0,0,0,2.327-2.448l3.879-1.108a24.325,24.325,0,0,1-1.5,3.429.727.727,0,0,0,1.284.679,20.978,20.978,0,0,0,2.695-9.9,7.259,7.259,0,0,0,3.108-2.745,7.486,7.486,0,0,0,.767-4.568ZM45.8,6.548a5.468,5.468,0,0,1,.649-2.579,5.469,5.469,0,0,1,1.909-1.852,5.458,5.458,0,0,1-.65,2.579A5.459,5.459,0,0,1,45.8,6.548Zm3.338,5.931a5.464,5.464,0,0,1-2.653.194,4.863,4.863,0,0,1,4.808-1.745,5.459,5.459,0,0,1-2.155,1.551ZM55.2,7.571a5.475,5.475,0,0,1,2.327-1.295A5.459,5.459,0,0,1,56.233,8.6,5.459,5.459,0,0,1,53.906,9.9,5.475,5.475,0,0,1,55.2,7.571ZM18.4,15.28a12.8,12.8,0,0,1,10.808,5.9l3.539,5.507A31.24,31.24,0,0,0,31.3,31.119l-3.782-5.877a14.238,14.238,0,0,0-8.458-6.12,12.645,12.645,0,0,1-1.7-3.842Zm-2.537,0a15.878,15.878,0,0,0,1.305,3.491,14.576,14.576,0,0,0-1.678-.1H14.5A20.472,20.472,0,0,1,13.39,15.28Zm-3.976-.041a23.058,23.058,0,0,0,1.02,3.435H10.351a27.366,27.366,0,0,1-.991-3.707,18.957,18.957,0,0,0,2.532.272ZM7.82,14.621a29.5,29.5,0,0,0,.99,4.024,17.745,17.745,0,0,1-2.664-.361,38.8,38.8,0,0,1-.807-4.479,19.172,19.172,0,0,0,2.479.815ZM47.531,26.839a.733.733,0,0,0-.373.469,1.894,1.894,0,0,0,.013.673c.89,9.367-1.375,16.882-6.379,21.16-5.7,4.874-14.92,5.721-27.4,2.526a.728.728,0,0,0-.362,1.41q2.681.686,5.17,1.129a8.009,8.009,0,0,1-5.115,6.155c-1.266-.137-10.274-1.591-9.86-14.787,12.694,3.636,17.608-.843,21.218-5.356a.731.731,0,0,0,.078-.789.722.722,0,0,0-.688-.388c-15.449.891-20.211-10.3-21.4-20.389a19.16,19.16,0,0,0,2.482.817c.719,4.256,2.878,11.442,9.379,15.109a.717.717,0,0,0,.356.1A.727.727,0,0,0,15,33.319c-5.693-3.218-7.784-9.467-8.553-13.5a19.1,19.1,0,0,0,2.53.272c.692,3.184,2.236,7.313,5.721,10.024a.728.728,0,0,0,.894-1.148c-3.022-2.35-4.442-5.948-5.117-8.836h2.47c1.261,5.034,4.081,7.97,8.4,8.717a.776.776,0,0,0,.125.01.727.727,0,0,0,.123-1.444c-3.646-.63-5.975-3.033-7.131-7.283H15.5a12.8,12.8,0,0,1,10.808,5.9l4.718,7.341a.727.727,0,0,0,1.325-.251c3.093-15.463,12.769-15.9,12.866-15.9a5.088,5.088,0,0,1,2.32,9.617Zm4.054-3.087a6.556,6.556,0,0,0,.17-1.441c0-.1-.011-.194-.015-.285l2.133,1.067Zm7.572-8.676a5.467,5.467,0,0,1-1.908,1.852,5.459,5.459,0,0,1,.649-2.579A5.466,5.466,0,0,1,59.807,12.5a5.457,5.457,0,0,1-.651,2.576Z" transform="translate(-0.847 -0.254)"/>
        </g>
      </g>
    </g>
  </g>
</svg>
