<svg xmlns="http://www.w3.org/2000/svg" xmlns:xlink="http://www.w3.org/1999/xlink" width="253.172" height="238.89" viewBox="0 0 253.172 238.89">
  <defs>
    <filter id="Trazado_1034908" x="82.867" y="0" width="170.305" height="170.305" filterUnits="userSpaceOnUse">
      <feOffset dy="3" input="SourceAlpha"/>
      <feGaussianBlur stdDeviation="3" result="blur"/>
      <feFlood flood-opacity="0.161"/>
      <feComposite operator="in" in2="blur"/>
      <feComposite in="SourceGraphic"/>
    </filter>
    <filter id="Trazado_1034909" x="0" y="118.028" width="120.862" height="120.862" filterUnits="userSpaceOnUse">
      <feOffset dy="3" input="SourceAlpha"/>
      <feGaussianBlur stdDeviation="3" result="blur-2"/>
      <feFlood flood-opacity="0.161"/>
      <feComposite operator="in" in2="blur-2"/>
      <feComposite in="SourceGraphic"/>
    </filter>
  </defs>
  <g id="Grupo_1198626" data-name="Grupo 1198626" transform="translate(-651.491 5324.367)">
    <g id="Grupo_1198509" data-name="Grupo 1198509" transform="translate(639.85 -5352.994)">
      <g id="Grupo_1112109" data-name="Grupo 1112109" transform="translate(20.641 34.415)">
        <g id="Grupo_1112092" data-name="Grupo 1112092" transform="translate(0 0.212)">
          <g transform="matrix(1, 0, 0, 1, -9, -6)" filter="url(#Trazado_1034908)">
            <path id="Trazado_1034908-2" data-name="Trazado 1034908" d="M213.63,76.151A76.152,76.152,0,1,1,137.477,0,76.153,76.153,0,0,1,213.63,76.151" transform="translate(30.54 6)" fill="#efeae8"/>
          </g>
          <g transform="matrix(1, 0, 0, 1, -9, -6)" filter="url(#Trazado_1034909)">
            <path id="Trazado_1034909-2" data-name="Trazado 1034909" d="M164.187,51.43A51.431,51.431,0,1,1,112.756,0,51.431,51.431,0,0,1,164.187,51.43" transform="translate(-52.32 124.03)" fill="#efeae8"/>
          </g>
        </g>
        <g id="Grupo_1112093" data-name="Grupo 1112093" transform="translate(16.611)">
          <g id="Elipse_12265" data-name="Elipse 12265" transform="translate(12.898 -1.304)" fill="none" stroke="#efeae8" stroke-width="3">
            <circle cx="9" cy="9" r="9" stroke="none"/>
            <circle cx="9" cy="9" r="7.5" fill="none"/>
          </g>
          <g id="Elipse_12266" data-name="Elipse 12266" transform="translate(3.898 183.696)" fill="none" stroke="#c9c8c8" stroke-width="3">
            <circle cx="9" cy="9" r="9" stroke="none"/>
            <circle cx="9" cy="9" r="7.5" fill="none"/>
          </g>
          <g id="Elipse_12268" data-name="Elipse 12268" transform="translate(192.898 175.696)" fill="none" stroke="#efeae8" stroke-width="3">
            <circle cx="9" cy="9" r="9" stroke="none"/>
            <circle cx="9" cy="9" r="7.5" fill="none"/>
          </g>
          <g id="Elipse_12267" data-name="Elipse 12267" transform="translate(174.898 53.696)" fill="none" stroke="#c9c8c8" stroke-width="3">
            <circle cx="9" cy="9" r="9" stroke="none"/>
            <circle cx="9" cy="9" r="7.5" fill="none"/>
          </g>
        </g>
      </g>
    </g>
    <g id="gossip_2452805" transform="translate(712.492 -5281.268)">
      <g id="Grupo_1198624" data-name="Grupo 1198624" transform="translate(3.352 3.352)">
        <g id="Grupo_1198611" data-name="Grupo 1198611" transform="translate(4.704)">
          <path id="Trazado_1254213" data-name="Trazado 1254213" d="M69.86,6.7V25.522a4.718,4.718,0,0,1-4.7,4.7H55.748v6.28a3.142,3.142,0,0,1-3.128,3.128A3.176,3.176,0,0,1,50.1,38.388l-6.116-8.162H8.7a4.718,4.718,0,0,1-4.7-4.7V6.7A4.718,4.718,0,0,1,8.7,2H65.156a4.718,4.718,0,0,1,4.7,4.7Z" transform="translate(-4 -2)" fill="#e6e9ed"/>
        </g>
        <g id="Grupo_1198612" data-name="Grupo 1198612" transform="translate(14.113 112.151)">
          <path id="Trazado_1254214" data-name="Trazado 1254214" d="M40.977,69.038l-.047.212v9.409H8V49.68a11.086,11.086,0,0,0,7.362,10.444l11.6,4.14,11.62,4.14a13.857,13.857,0,0,0,2.4.635Z" transform="translate(-8 -49.68)" fill="#b4dd7f"/>
        </g>
        <g id="Grupo_1198613" data-name="Grupo 1198613" transform="translate(14.113 100.461)">
          <path id="Trazado_1254215" data-name="Trazado 1254215" d="M33.874,57.153,26.958,70.984l-11.6-4.14A11.084,11.084,0,0,1,16.4,45.651l1.011-.259V44.71h.47s8.28,3.034,13.643,3.034l1.788,1.788a31.518,31.518,0,0,1,7.1,10.891Z" transform="translate(-8 -44.71)" fill="#b4dd7f"/>
        </g>
        <g id="Grupo_1198614" data-name="Grupo 1198614" transform="translate(0 37.635)">
          <path id="Trazado_1254216" data-name="Trazado 1254216" d="M30.508,41.192v.047a17.019,17.019,0,0,0-4.987,12.043H24.6a6.144,6.144,0,0,0-6.139,6.139v.118a5.88,5.88,0,0,0,2.611,4.892L25.522,67.4V76.8L13.267,72.217A10.011,10.011,0,0,1,8.492,68.5,10.249,10.249,0,0,1,6.7,62.738,10.454,10.454,0,0,1,7.763,58.2l1.294-2.564L7.528,54.106A18.815,18.815,0,0,1,2,40.769a19.118,19.118,0,0,1,1.717-7.856,18.862,18.862,0,0,1,4.869-6.445A35.214,35.214,0,0,1,31.5,18h8.138a11.761,11.761,0,0,1,7.056,21.169,11.622,11.622,0,0,1-7.056,2.352H32.578a6.692,6.692,0,0,1-2.07-.329Z" transform="translate(-2 -18)" fill="#b27946"/>
        </g>
        <g id="Grupo_1198615" data-name="Grupo 1198615" transform="translate(63.508 98.791)">
          <path id="Trazado_1254217" data-name="Trazado 1254217" d="M83.17,44.282a77.054,77.054,0,0,1,2.282,17.947l-6.069.517a22.286,22.286,0,0,1,1.364,7.645,21,21,0,0,1-.306,3.646L78.4,86.339H31.352l-2.046-12.3A21,21,0,0,1,29,70.391a21.837,21.837,0,0,1,.494-4.634v-.024L39.585,44h5.88l3.222,9.644a6.516,6.516,0,0,0,12.372,0L64.282,44H83.1Z" transform="translate(-29 -44)" fill="#fcd770"/>
        </g>
        <g id="Grupo_1198616" data-name="Grupo 1198616" transform="translate(63.508 28.226)">
          <path id="Trazado_1254218" data-name="Trazado 1254218" d="M49.182,35.757l-8.491,5.1a4.7,4.7,0,0,0-2.282,4.022v4.4H36.056a7.071,7.071,0,0,0-4.8,1.882l-1.811-9.009A25.1,25.1,0,0,1,29,37.545,23.53,23.53,0,0,1,52.545,14H57.2A23.54,23.54,0,0,1,80.748,37.545V52.034a15.735,15.735,0,0,0,.306,3.152l-.4.047a7.042,7.042,0,0,0-6.962-5.951H71.339V46.93a4.718,4.718,0,0,0-4.7-4.7H59.86a12.072,12.072,0,0,1-10.679-6.468Z" transform="translate(-29 -14)" fill="#656d78"/>
        </g>
        <g id="Grupo_1198617" data-name="Grupo 1198617" transform="translate(33.071 89.382)">
          <path id="Trazado_1254219" data-name="Trazado 1254219" d="M52.613,40a5.662,5.662,0,0,1,5.645,5.645A5.773,5.773,0,0,1,57.6,48.3l-.517,1.106L46.991,71.143v.024L45.7,73.942a14.5,14.5,0,0,1-15.618,8.186,13.857,13.857,0,0,1-2.4-.635l-11.62-4.14,6.915-13.831,6.539,3.27,2.87,1.435,9.409-14.113,1.67-6.68a10.112,10.112,0,0,1,2.658-4.7l.141-.141A8.741,8.741,0,0,1,52.471,40Z" transform="translate(-16.06 -40)" fill="#f0d0b4"/>
        </g>
        <g id="Grupo_1198618" data-name="Grupo 1198618" transform="translate(16.465 58.804)">
          <path id="Trazado_1254220" data-name="Trazado 1254220" d="M30.169,64.564v7.127c-5.363,0-13.643-3.034-13.643-3.034h-.47V55.226l-4.446-2.964A5.88,5.88,0,0,1,9,47.37v-.118a6.144,6.144,0,0,1,6.139-6.139h.917A17.019,17.019,0,0,1,21.043,29.07v-.047a6.691,6.691,0,0,0,2.07.329h7.056A11.622,11.622,0,0,0,37.226,27L41.7,42.618a6.051,6.051,0,0,1,.235,1.717A6.19,6.19,0,0,1,38.5,49.887l-1.27.635v6.092a8.007,8.007,0,0,1-7.056,7.95Z" transform="translate(-9 -27)" fill="#f0d0b4"/>
        </g>
        <g id="Grupo_1198619" data-name="Grupo 1198619" transform="translate(115.256 56.452)">
          <path id="Trazado_1254221" data-name="Trazado 1254221" d="M60.409,68.339,55.7,47.169a16.232,16.232,0,0,1-4.4-8.209A15.735,15.735,0,0,1,51,35.809V32.8a6.79,6.79,0,0,1,13.266-2.046l12,38.011A13.135,13.135,0,0,1,64.807,85.815l-9.1.753a77.054,77.054,0,0,0-2.282-17.947l-.071-.282Z" transform="translate(-51 -26)" fill="#f0d0b4"/>
        </g>
        <g id="Grupo_1198620" data-name="Grupo 1198620" transform="translate(105.165 63.508)">
          <path id="Trazado_1254222" data-name="Trazado 1254222" d="M56.707,34.951a5.688,5.688,0,0,1,.094,1.106,7.067,7.067,0,0,1-7.056,7.056H46.71a16.25,16.25,0,0,0,.682-4.7V29h2.352A7.042,7.042,0,0,1,56.707,34.951Z" transform="translate(-46.71 -29)" fill="#f0d0b4"/>
        </g>
        <g id="Grupo_1198621" data-name="Grupo 1198621" transform="translate(79.973 87.736)">
          <path id="Trazado_1254223" data-name="Trazado 1254223" d="M52.606,39.3l2.211,11.055L51.595,60a6.516,6.516,0,0,1-12.372,0L36,50.355,38.211,39.3a16.555,16.555,0,0,0,14.4,0Z" transform="translate(-36 -39.3)" fill="#f0d0b4"/>
        </g>
        <g id="Grupo_1198622" data-name="Grupo 1198622" transform="translate(72.917 49.983)">
          <path id="Trazado_1254224" data-name="Trazado 1254224" d="M65.248,50.888A16.491,16.491,0,0,1,42.268,61l-4.446-3.175A16.417,16.417,0,0,1,33,46.184V32.376a4.7,4.7,0,0,1,2.282-4.022l8.491-5.1a12.072,12.072,0,0,0,10.679,6.468h6.774a4.718,4.718,0,0,1,4.7,4.7V46.184a16.249,16.249,0,0,1-.682,4.7Z" transform="translate(-33 -23.25)" fill="#f0d0b4"/>
        </g>
        <g id="Grupo_1198623" data-name="Grupo 1198623" transform="translate(63.508 63.508)">
          <path id="Trazado_1254225" data-name="Trazado 1254225" d="M39.091,43.113H36.056a7.056,7.056,0,1,1,0-14.113h2.352v9.409A16.249,16.249,0,0,0,39.091,43.113Z" transform="translate(-29 -29)" fill="#f0d0b4"/>
        </g>
      </g>
      <g id="Grupo_1198625" data-name="Grupo 1198625" transform="translate(1 1)">
        <path id="Trazado_1254226" data-name="Trazado 1254226" d="M9,7h4.7v4.7H9Z" transform="translate(9.817 7.113)"/>
        <path id="Trazado_1254227" data-name="Trazado 1254227" d="M13,7h4.7v4.7H13Z" transform="translate(15.226 7.113)"/>
        <path id="Trazado_1254228" data-name="Trazado 1254228" d="M17,7h4.7v4.7H17Z" transform="translate(20.635 7.113)"/>
        <path id="Trazado_1254229" data-name="Trazado 1254229" d="M21,7h4.7v4.7H21Z" transform="translate(26.043 7.113)"/>
        <path id="Trazado_1254230" data-name="Trazado 1254230" d="M25,7h4.7v4.7H25Z" transform="translate(31.452 7.113)"/>
        <path id="Trazado_1254231" data-name="Trazado 1254231" d="M10.056,33.93H44.163l5.41,7.214a5.489,5.489,0,0,0,9.879-3.293V33.93h7.056a7.065,7.065,0,0,0,7.056-7.056V8.056A7.065,7.065,0,0,0,66.508,1H10.056A7.065,7.065,0,0,0,3,8.056V26.874A7.065,7.065,0,0,0,10.056,33.93ZM7.7,8.056A2.355,2.355,0,0,1,10.056,5.7H66.508A2.355,2.355,0,0,1,68.86,8.056V26.874a2.355,2.355,0,0,1-2.352,2.352H54.748v8.625a.816.816,0,0,1-1.414.47l-6.819-9.1H10.056A2.355,2.355,0,0,1,7.7,26.874Z" transform="translate(1.704 -1)"/>
        <path id="Trazado_1254232" data-name="Trazado 1254232" d="M54.178,36.153l.247-.5-4.208-2.105-.247.5a5.26,5.26,0,0,1-9.409,0l-.247-.5L36.106,35.66l.247.494a9.964,9.964,0,0,0,17.825,0Z" transform="translate(46.469 43.016)"/>
        <path id="Trazado_1254233" data-name="Trazado 1254233" d="M146.117,85.639,134.111,47.612a9.053,9.053,0,0,0-13.151-5.189V38.893A25.922,25.922,0,0,0,95.065,13H90.4A25.893,25.893,0,0,0,65.012,43.973l1.578,7.889a9.319,9.319,0,0,0-2.082,5.829A9.418,9.418,0,0,0,73.917,67.1H75.3a18.89,18.89,0,0,0,7.6,8.955l-1.5,7.51h-.6a7.775,7.775,0,0,0-7.974-9.409,11.181,11.181,0,0,0-8,3.415,12.44,12.44,0,0,0-3.279,5.8l-1.571,6.287L51.941,101.7l-.263-.132a33.624,33.624,0,0,0-7.233-10.815l-1.106-1.106V85.329A10.244,10.244,0,0,0,50.4,75.535V70.905a8.561,8.561,0,0,0,4.375-9.994L50.715,46.718a14.094,14.094,0,0,0-9.729-24.31H32.839A37.562,37.562,0,0,0,8.4,31.45,21.183,21.183,0,0,0,7.207,62.518l.341.341L7.022,63.91A12.482,12.482,0,0,0,13.8,81.177l10.721,4.018v1.261a13.418,13.418,0,0,0-9.409,12.819v31.333H52.748v-9.423c.054,0,.106.014.158.014h0a16.869,16.869,0,0,0,11.916-5.005c.007.047.009.1.019.143l2.378,14.271h51.025l2.38-14.273a24.318,24.318,0,0,0-.31-9.578l12.306-1.026a15.6,15.6,0,0,0,14.212-15.449,15.4,15.4,0,0,0-.717-4.643Zm-42.047-2.075-1.5-7.51a18.914,18.914,0,0,0,7.6-8.955h1.385a9.369,9.369,0,0,0,7.557-3.86A18.633,18.633,0,0,0,121.16,65.9l3.923,17.662Zm7.482-23.522V52.987a4.7,4.7,0,1,1,0,9.409h-.162A18.927,18.927,0,0,0,111.552,60.043ZM73.917,62.4a4.7,4.7,0,0,1,0-9.409v7.056a18.925,18.925,0,0,0,.162,2.352Zm0-16.155v2.042a9.286,9.286,0,0,0-3.131.576l-1.162-5.807A21.19,21.19,0,0,1,90.4,17.7h4.662a21.215,21.215,0,0,1,21.191,21.191v10.7a9.29,9.29,0,0,0-4.7-1.31,7.065,7.065,0,0,0-7.056-7.056H97.723a9.627,9.627,0,0,1-6.854-2.839,9.769,9.769,0,0,1-2.839-6.854V29.465h-4.7v2.068a14.377,14.377,0,0,0,.753,4.615l-6.737,4.043A7.09,7.09,0,0,0,73.917,46.241Zm4.7,13.8v-13.8a2.362,2.362,0,0,1,1.141-2.016L86.3,40.3a14.581,14.581,0,0,0,1.24,1.411A14.3,14.3,0,0,0,97.723,45.93H104.5a2.355,2.355,0,0,1,2.352,2.352V60.043a14.113,14.113,0,1,1-28.226,0ZM92.734,78.86a18.722,18.722,0,0,0,5.438-.809l1.543,7.713L96.7,94.822a4.179,4.179,0,0,1-7.927,0l-3.018-9.058L87.3,78.054a18.8,18.8,0,0,0,5.438.807ZM15.456,76.769A7.771,7.771,0,0,1,11.23,66.015l2.042-4.081-2.738-2.74a16.483,16.483,0,0,1,.929-24.173,32.863,32.863,0,0,1,21.376-7.908h8.148a9.409,9.409,0,1,1,0,18.817H33.93a4.7,4.7,0,1,1,0-9.409h2.352v-4.7H33.93a9.374,9.374,0,0,0-5.706,16.837,19.168,19.168,0,0,0-3.573,9.138,8.547,8.547,0,0,0-7.186,8.517,8.206,8.206,0,0,0,3.665,6.845l3.392,2.26v4.756ZM26.432,90.8l2.794-.7V72.9L23.738,69.24a3.576,3.576,0,0,1-1.569-3.058A3.792,3.792,0,0,1,25.956,62.4h3.27V60.043a14.578,14.578,0,0,1,3.524-9.529,9.337,9.337,0,0,0,1.181.12h7.056A14.025,14.025,0,0,0,46.6,49.461L50.245,62.2a3.767,3.767,0,0,1,.151,1.061,3.831,3.831,0,0,1-2.129,3.446L45.691,68V71.8H41.961a5.633,5.633,0,0,1-4.015-1.665l-3.326,3.328a10.312,10.312,0,0,0,7.341,3.041H45.6a5.66,5.66,0,0,1-5.584,4.7H33.93v4.7h4.7V91.6l2.486,2.486a29.146,29.146,0,0,1,3.147,3.782L34.982,93.22l-2.105,4.208,7.306,3.653-4.93,9.86L25.611,107.5A8.732,8.732,0,0,1,26.432,90.8Zm21.612,35.1H19.817v-16.47a13.268,13.268,0,0,0,4.213,2.493l23.211,8.289c.261.094.536.132.8.212Zm4.864-9.409a12.091,12.091,0,0,1-4.086-.708l-9.105-3.253,4.676-9.35,9.162,4.582L64.339,91.588l1.771-7.082A7.938,7.938,0,0,1,68.3,80.754a6.462,6.462,0,0,1,4.674-1.893,3.306,3.306,0,0,1,3.3,3.3,3.487,3.487,0,0,1-.44,1.654L63.918,109.469a12.179,12.179,0,0,1-11.01,7.026Zm65.468-15.134-2.369-4.735L111.8,98.732l2.369,4.735a19.786,19.786,0,0,1,1.821,12.095L114.264,125.9H71.2l-1.722-10.34a19.479,19.479,0,0,1,.139-7.207l9.326-20.087h2.684l2.679,8.042a8.878,8.878,0,0,0,16.846,0l2.679-8.04h15.242a74.3,74.3,0,0,1,1.8,13.72l-2.155.179C118.6,101.9,118.507,101.622,118.375,101.361Zm13.854-.318-6.661.555a78.763,78.763,0,0,0-1.677-13.33h3.152l4.015,4.015,3.326-3.326-4.22-4.22-4.7-21.169-.485-.485a13.621,13.621,0,0,1-4.015-9.7V50.364a4.436,4.436,0,0,1,8.665-1.334l12.008,38.027a10.708,10.708,0,0,1,.5,3.225A10.862,10.862,0,0,1,132.229,101.044Z" transform="translate(-1 15.226)"/>
      </g>
    </g>
  </g>
</svg>
