<svg xmlns="http://www.w3.org/2000/svg" xmlns:xlink="http://www.w3.org/1999/xlink" width="253.172" height="238.89" viewBox="0 0 253.172 238.89">
  <defs>
    <filter id="Trazado_1034908" x="82.867" y="0" width="170.305" height="170.305" filterUnits="userSpaceOnUse">
      <feOffset dy="3" input="SourceAlpha"/>
      <feGaussianBlur stdDeviation="3" result="blur"/>
      <feFlood flood-opacity="0.161"/>
      <feComposite operator="in" in2="blur"/>
      <feComposite in="SourceGraphic"/>
    </filter>
    <filter id="Trazado_1034909" x="0" y="118.028" width="120.862" height="120.862" filterUnits="userSpaceOnUse">
      <feOffset dy="3" input="SourceAlpha"/>
      <feGaussianBlur stdDeviation="3" result="blur-2"/>
      <feFlood flood-opacity="0.161"/>
      <feComposite operator="in" in2="blur-2"/>
      <feComposite in="SourceGraphic"/>
    </filter>
  </defs>
  <g id="Grupo_1198643" data-name="Grupo 1198643" transform="translate(-651.491 4978.367)">
    <g id="Grupo_1198510" data-name="Grupo 1198510" transform="translate(639.85 -5006.994)">
      <g id="Grupo_1112109" data-name="Grupo 1112109" transform="translate(20.641 34.415)">
        <g id="Grupo_1112092" data-name="Grupo 1112092" transform="translate(0 0.212)">
          <g transform="matrix(1, 0, 0, 1, -9, -6)" filter="url(#Trazado_1034908)">
            <path id="Trazado_1034908-2" data-name="Trazado 1034908" d="M213.63,76.151A76.152,76.152,0,1,1,137.477,0,76.153,76.153,0,0,1,213.63,76.151" transform="translate(30.54 6)" fill="#efeae8"/>
          </g>
          <g transform="matrix(1, 0, 0, 1, -9, -6)" filter="url(#Trazado_1034909)">
            <path id="Trazado_1034909-2" data-name="Trazado 1034909" d="M164.187,51.43A51.431,51.431,0,1,1,112.756,0,51.431,51.431,0,0,1,164.187,51.43" transform="translate(-52.32 124.03)" fill="#efeae8"/>
          </g>
        </g>
        <g id="Grupo_1112093" data-name="Grupo 1112093" transform="translate(16.611)">
          <g id="Elipse_12265" data-name="Elipse 12265" transform="translate(12.898 -1.304)" fill="none" stroke="#efeae8" stroke-width="3">
            <circle cx="9" cy="9" r="9" stroke="none"/>
            <circle cx="9" cy="9" r="7.5" fill="none"/>
          </g>
          <g id="Elipse_12266" data-name="Elipse 12266" transform="translate(3.898 183.696)" fill="none" stroke="#c9c8c8" stroke-width="3">
            <circle cx="9" cy="9" r="9" stroke="none"/>
            <circle cx="9" cy="9" r="7.5" fill="none"/>
          </g>
          <g id="Elipse_12268" data-name="Elipse 12268" transform="translate(192.898 175.696)" fill="none" stroke="#efeae8" stroke-width="3">
            <circle cx="9" cy="9" r="9" stroke="none"/>
            <circle cx="9" cy="9" r="7.5" fill="none"/>
          </g>
          <g id="Elipse_12267" data-name="Elipse 12267" transform="translate(174.898 53.696)" fill="none" stroke="#c9c8c8" stroke-width="3">
            <circle cx="9" cy="9" r="9" stroke="none"/>
            <circle cx="9" cy="9" r="7.5" fill="none"/>
          </g>
        </g>
      </g>
    </g>
    <g id="creative_11647180" transform="translate(642.134 -4944.418)">
      <g id="Grupo_1198629" data-name="Grupo 1198629" transform="translate(72.731 29.419)">
        <g id="Grupo_1198627" data-name="Grupo 1198627" transform="translate(0 2.994)">
          <path id="Trazado_1254234" data-name="Trazado 1254234" d="M114.94,211.181c4.67,5.085,6.207,10.946,7.381,16.9h54.446c-7.476-16.143-11.292-32.062-5.214-47.35,7.994-20.123,29.843-48.136-2.763-68.077-13.648-8.356-37.76-9.444-54.092-4.066-24.2,7.968-32.994,25-25.76,48.567-8.365,12.8-19.475,20.1-3.5,27.909-4.67,4.817-4.446,7.156.207,10.333-2.365,4.152-2.426,6.854,3.634,7.907-8.469,22.98,20.019,11.645,25.656,7.873Z" transform="translate(-77.32 -105.291)" fill="#ffcebf"/>
        </g>
        <g id="Grupo_1198628" data-name="Grupo 1198628" transform="translate(0)">
          <path id="Trazado_1254235" data-name="Trazado 1254235" d="M114.7,101.753c-24.2,7.968-32.994,25-25.76,48.567-8.365,12.8-19.475,20.1-3.5,27.909-4.67,4.817-4.446,7.156.207,10.333-2.365,4.152-2.426,6.854,3.634,7.907-4.558,12.379,1.6,14.8,9.142,13.812-4.7-.846-7.312-4.532-3.893-13.812-6.06-1.053-6-3.755-3.626-7.907-4.662-3.177-4.886-5.516-.207-10.333-15.988-7.812-4.878-15.107,3.488-27.909-7.226-23.567,1.571-40.6,25.769-48.567C147.416,92.715,138.145,94.036,114.7,101.753Z" transform="translate(-77.32 -95.46)" fill="#ffb09e"/>
        </g>
      </g>
      <g id="Grupo_1198642" data-name="Grupo 1198642" transform="translate(103.946 18.292)">
        <g id="Grupo_1198630" data-name="Grupo 1198630" transform="translate(22.791 74.293)">
          <path id="Trazado_1254236" data-name="Trazado 1254236" d="M271.806,302.871v3.841c0,4.377-3.859,7.951-8.572,7.951s-8.581-3.574-8.581-7.951v-3.841Z" transform="translate(-254.653 -302.871)" fill="#7ca1b1"/>
        </g>
        <g id="Grupo_1198631" data-name="Grupo 1198631" transform="translate(22.791 74.293)">
          <path id="Trazado_1254237" data-name="Trazado 1254237" d="M266.5,314.059a9.055,9.055,0,0,1-3.263.6c-4.713,0-8.581-3.574-8.581-7.951v-3.841h6.535v3.841A7.991,7.991,0,0,0,266.5,314.059Z" transform="translate(-254.653 -302.871)" fill="#678d98"/>
        </g>
        <g id="Grupo_1198632" data-name="Grupo 1198632" transform="translate(15.772 62.812)">
          <path id="Trazado_1254238" data-name="Trazado 1254238" d="M262.8,265.17v8.572a4.264,4.264,0,0,1-4.4,4.092H236.008a4.264,4.264,0,0,1-4.4-4.092V265.17Z" transform="translate(-231.605 -265.17)" fill="#a8d3d8"/>
        </g>
        <g id="Grupo_1198633" data-name="Grupo 1198633" transform="translate(15.772 62.812)">
          <path id="Trazado_1254239" data-name="Trazado 1254239" d="M242.545,277.834H236.01a4.264,4.264,0,0,1-4.4-4.092V265.17h6.526v8.572A4.271,4.271,0,0,0,242.545,277.834Z" transform="translate(-231.607 -265.17)" fill="#8ebac5"/>
        </g>
        <g id="Grupo_1198634" data-name="Grupo 1198634" transform="translate(0)">
          <path id="Trazado_1254240" data-name="Trazado 1254240" d="M211.188,58.921c17.326,0,31.371,13.743,31.371,30.7,0,18.3-12.008,18.249-12.008,29.506a3.513,3.513,0,0,1-3.539,3.47H195.364a3.514,3.514,0,0,1-3.539-3.47c0-11.257-12.008-11.205-12.008-29.506,0-16.954,14.045-30.7,31.371-30.7Z" transform="translate(-179.817 -58.921)" fill="#fed402"/>
        </g>
        <g id="Grupo_1198635" data-name="Grupo 1198635" transform="translate(0)">
          <path id="Trazado_1254241" data-name="Trazado 1254241" d="M211.188,58.921a31.244,31.244,0,0,1,3.263.164c-15.789,1.6-28.108,14.658-28.108,30.534,0,18.3,12.008,18.249,12.008,29.506a3.517,3.517,0,0,0,3.531,3.47h-6.518a3.514,3.514,0,0,1-3.539-3.47c0-11.257-12.008-11.205-12.008-29.506,0-16.954,14.045-30.7,31.371-30.7Z" transform="translate(-179.817 -58.921)" fill="#ebc505"/>
        </g>
        <g id="Grupo_1198636" data-name="Grupo 1198636" transform="translate(23.334 13.165)">
          <path id="Trazado_1254242" data-name="Trazado 1254242" d="M272.512,152.66V115.634l-8.037-13.484-8.037,13.484V152.66Z" transform="translate(-256.438 -102.15)" fill="#acafe6"/>
        </g>
        <g id="Grupo_1198637" data-name="Grupo 1198637" transform="translate(23.334 13.165)">
          <path id="Trazado_1254243" data-name="Trazado 1254243" d="M266.072,104.835l-1.6-2.685-8.037,13.484V152.66h3.194V115.634Z" transform="translate(-256.438 -102.15)" fill="#a4a7e3"/>
        </g>
        <g id="Grupo_1198638" data-name="Grupo 1198638" transform="translate(23.334 13.165)">
          <path id="Trazado_1254244" data-name="Trazado 1254244" d="M272.512,115.634l-8.037-13.484-8.037,13.484Z" transform="translate(-256.438 -102.15)" fill="#696ead"/>
        </g>
        <g id="Grupo_1198639" data-name="Grupo 1198639" transform="translate(23.334 13.165)">
          <path id="Trazado_1254245" data-name="Trazado 1254245" d="M266.072,104.835l-1.6-2.685-8.037,13.484h3.194Z" transform="translate(-256.438 -102.15)" fill="#5f639c"/>
        </g>
        <g id="Grupo_1198640" data-name="Grupo 1198640" transform="translate(23.334 55.828)">
          <path id="Trazado_1254246" data-name="Trazado 1254246" d="M256.438,242.238h16.074v7.847H256.438Z" transform="translate(-256.438 -242.238)" fill="#696ead"/>
        </g>
        <g id="Grupo_1198641" data-name="Grupo 1198641" transform="translate(23.334 55.828)">
          <path id="Trazado_1254247" data-name="Trazado 1254247" d="M256.438,242.238h3.194v7.847h-3.194Z" transform="translate(-256.438 -242.238)" fill="#5f639c"/>
        </g>
      </g>
      <path id="Trazado_1254248" data-name="Trazado 1254248" d="M174.036,153.1a2.128,2.128,0,0,1-1.931,3.023h-54.34a2.128,2.128,0,0,1-2.087-1.714c-1.02-5.135-2.244-10.117-5.749-14.549-5.566,2.986-19.543,8.461-25.842,3.5-3.1-2.435-3.779-6.659-2.043-12.572A6.391,6.391,0,0,1,78,127.658c-.868-1.846-.377-3.863.437-5.655a7.223,7.223,0,0,1-2.977-4.751c-.2-2,.779-3.888,2.112-5.587-3.843-2.262-5.973-4.679-6.638-7.492-1.155-4.886,2.472-9.641,6.673-15.147,1.494-1.958,3.032-3.975,4.511-6.168-5.552-19.1-.8-34.222,13.789-43.781a2.128,2.128,0,0,1,2.333,3.56c-13.269,8.7-17.226,22.136-11.763,39.943a2.129,2.129,0,0,1-.253,1.788C84.5,87.011,82.639,89.453,81,91.607c-3.545,4.646-6.606,8.66-5.915,11.586.465,1.969,2.757,3.973,6.811,5.955a2.128,2.128,0,0,1,.592,3.394c-2.408,2.479-2.843,3.7-2.784,4.282.07.692.966,1.631,2.665,2.791a2.128,2.128,0,0,1,.647,2.814c-1.406,2.459-1.239,3.237-1.155,3.417.064.136.524.84,3.3,1.322A2.128,2.128,0,0,1,86.789,130c-1.313,3.562-2.39,8.191-.07,10.016,3.947,3.105,15.876-.924,21.224-3.9a2.12,2.12,0,0,1,.256-.178c6.706-3.909,13.64-8.3,18.271-15.17A2.128,2.128,0,1,1,130,123.148c-4.326,6.418-10.478,10.888-16.388,14.516,3.412,4.51,4.868,9.423,5.89,14.2h49.318a84.27,84.27,0,0,1-6.494-21.52,46.572,46.572,0,0,1,2.6-24.4c1.349-3.4,3.051-6.94,4.853-10.692,7.352-15.315,15.686-32.673,2.85-46.917a2.128,2.128,0,0,1,3.162-2.849c14.745,16.364,5.363,35.906-2.175,51.608-1.769,3.684-3.439,7.164-4.734,10.422-5.1,12.817-3.506,26.874,5.156,45.578ZM124.622,95.327V94.8h-.482a6.385,6.385,0,0,1-6.531-6.212v-5.9a5.6,5.6,0,0,1-3.748-5.256c0-4.163-1.947-6.48-4.411-9.414C106.076,64,101.876,59,101.876,47.982c0-18.068,15-32.766,33.438-32.766s33.438,14.7,33.438,32.766c0,11.018-4.2,16.018-7.574,20.035-2.465,2.934-4.411,5.252-4.411,9.414a5.6,5.6,0,0,1-3.757,5.259v5.9a6.385,6.385,0,0,1-6.531,6.212H146v.525c0,5.549-4.793,10.064-10.684,10.064s-10.692-4.515-10.692-10.064Zm17.12-.525H128.878v.525c0,3.2,2.887,5.807,6.436,5.807s6.427-2.605,6.427-5.807Zm-23.625-17.37a1.373,1.373,0,0,0,1.4,1.335h5.643V43.942a2.131,2.131,0,0,1,.3-1.09l8.021-13.458a2.128,2.128,0,0,1,3.656,0l8.021,13.458a2.131,2.131,0,0,1,.3,1.09V78.767h5.643a1.389,1.389,0,0,0,1.4-1.335c0-5.713,2.749-8.986,5.408-12.152,3.233-3.849,6.576-7.829,6.576-17.3,0-15.72-13.091-28.51-29.182-28.51s-29.182,12.789-29.182,28.51c0,9.468,3.343,13.448,6.576,17.3,2.66,3.166,5.409,6.439,5.409,12.152Zm23.09,1.335V75.192H129.421v3.576Zm-11.786-7.832h11.786V46.07H129.421ZM139.59,41.814l-4.275-7.173-4.275,7.173ZM124.14,90.545h22.341a2.162,2.162,0,0,0,2.274-1.956V83.024h-26.89v5.566a2.162,2.162,0,0,0,2.274,1.956ZM135.315,12.58a2.128,2.128,0,0,0,2.128-2.128V2.628a2.128,2.128,0,0,0-4.256,0v7.823A2.128,2.128,0,0,0,135.315,12.58Zm17.978,4.686a2.126,2.126,0,0,0,2.907-.78l3.843-6.66A2.128,2.128,0,1,0,156.355,7.7l-3.843,6.66a2.128,2.128,0,0,0,.78,2.907ZM168.6,31.32a2.114,2.114,0,0,0,1.062-.286l6.359-3.671a2.128,2.128,0,1,0-2.128-3.686l-6.359,3.671A2.128,2.128,0,0,0,168.6,31.32ZM94.608,27.363l6.35,3.671a2.128,2.128,0,1,0,2.13-3.685l-6.35-3.671a2.128,2.128,0,1,0-2.13,3.685Zm19.823-10.875a2.128,2.128,0,0,0,3.685-2.131L114.265,7.7a2.128,2.128,0,1,0-3.685,2.131Z"/>
    </g>
  </g>
</svg>
