<svg xmlns="http://www.w3.org/2000/svg" width="60.558" height="60.556" viewBox="0 0 60.558 60.556">
  <g id="handshake_2174582" transform="translate(0.003 0.002)">
    <path id="Trazado_1253676" data-name="Trazado 1253676" d="M42.849,8.632l-5,4.4H31.911a4.452,4.452,0,0,0-2.923,1.106L16.19,25.485s2.729,3.853,6.068,3.068c1.473-.351,5.828-3.58,6.371-4.076l1.829,3.344L42.374,39.775s4.183-4.389,6.006-6.068c2.536-2.317,1.606-8.633,1.606-8.633l5.035-4.217Z" transform="translate(4.235 2.258)" fill="#f2c2a2"/>
    <path id="Trazado_1253677" data-name="Trazado 1253677" d="M37.707,8.632l-1.859,1.639,12.13,12.18,1.9-1.593v0Z" transform="translate(9.376 2.258)" fill="#efb695"/>
    <path id="Trazado_1253678" data-name="Trazado 1253678" d="M42.721,1l-7.26,7.284,14.52,14.569V1Z" transform="translate(9.275 0.262)" fill="#776471"/>
    <path id="Trazado_1253679" data-name="Trazado 1253679" d="M29.609,23.506l-.527-.969a5.631,5.631,0,0,0,2.193.457,10.543,10.543,0,0,0,2.322-.087,2,2,0,0,0,1.692-2.287,31.8,31.8,0,0,1-3.564.395,12.687,12.687,0,0,1-3.932-1.009L26.052,21.5l1.827,3.347L39.8,36.8l1.514-1.568Z" transform="translate(6.814 5.232)" fill="#efb695"/>
    <path id="Trazado_1253680" data-name="Trazado 1253680" d="M47.329,40.372a2.967,2.967,0,0,1,.115,4.213,2.913,2.913,0,0,1-4.057.115c1.405,1.487,1.784,3.028.7,4.224a3.019,3.019,0,0,1-4.385.3c-.136-.1-.5-.433-.5-.433a2.924,2.924,0,1,1-4.319,3.94l-.764-.764a3,3,0,0,1,.169,4.19l-.024.025a3.184,3.184,0,0,1-4.322-.126S10.218,36.04,7.678,33.708s-1.6-8.633-1.6-8.633L1.03,20.858l.006-.018L13.21,8.628l5,4.409h5.941a4.448,4.448,0,0,1,2.92,1.106l2.934,2.613,2.775,7.535,1.825,3.351L46.524,39.6Z" transform="translate(0.27 2.257)" fill="#ffe1c3"/>
    <path id="Trazado_1253681" data-name="Trazado 1253681" d="M15.052,10.257,2.931,22.452l-1.9-1.593.006-.018L13.209,8.628Z" transform="translate(0.27 2.257)" fill="#fed9b9"/>
    <path id="Trazado_1253682" data-name="Trazado 1253682" d="M8.289,1H1.029V22.853L15.549,8.284Z" transform="translate(0.27 0.262)" fill="#776471"/>
    <path id="Trazado_1253683" data-name="Trazado 1253683" d="M26.444,14.791,16.19,23.874s2.729,3.853,6.068,3.068c1.473-.351,6.079-3.8,6.623-4.289Z" transform="translate(4.235 3.869)" fill="#f2c2a2"/>
    <path id="Trazado_1253684" data-name="Trazado 1253684" d="M10.911,38.885a2.925,2.925,0,0,0,4.147-.029L19.9,34a2.919,2.919,0,1,0-4.119-4.135L10.94,34.72A2.951,2.951,0,0,0,10.911,38.885Z" transform="translate(2.633 7.581)" fill="#efb695"/>
    <path id="Trazado_1253685" data-name="Trazado 1253685" d="M14.228,42.709a2.9,2.9,0,0,0,4.119-.057l7.182-7.206a2.878,2.878,0,1,0-4.062-4.076l-7.184,7.207A2.931,2.931,0,0,0,14.228,42.709Z" transform="translate(3.506 7.973)" fill="#efb695"/>
    <path id="Trazado_1253686" data-name="Trazado 1253686" d="M17.553,45.555a2.924,2.924,0,0,0,4.143-.033l4.882-4.9a2.913,2.913,0,1,0-4.109-4.13L17.581,41.4a2.946,2.946,0,0,0-.028,4.155Z" transform="translate(4.371 9.315)" fill="#efb695"/>
    <path id="Trazado_1253687" data-name="Trazado 1253687" d="M22.1,47.119a2.924,2.924,0,0,0,4.147-.028l2.208-2.215a2.919,2.919,0,1,0-4.119-4.135l-2.206,2.218a2.949,2.949,0,0,0-.029,4.161Z" transform="translate(5.56 10.426)" fill="#efb695"/>
    <g id="Grupo_1198349" data-name="Grupo 1198349" transform="translate(11.802 37.468)">
      <path id="Trazado_1253688" data-name="Trazado 1253688" d="M10.2,39.6a2.925,2.925,0,0,0,4.147-.029l4.842-4.857a2.919,2.919,0,1,0-4.119-4.135l-4.84,4.857A2.951,2.951,0,0,0,10.2,39.6Z" transform="translate(-9.355 -29.701)" fill="#f2c2a2"/>
      <path id="Trazado_1253689" data-name="Trazado 1253689" d="M13.517,43.422a2.9,2.9,0,0,0,4.119-.057l7.177-7.206a2.878,2.878,0,1,0-4.062-4.076L13.569,39.29a2.931,2.931,0,0,0-.052,4.133Z" transform="translate(-8.482 -29.309)" fill="#f2c2a2"/>
      <path id="Trazado_1253690" data-name="Trazado 1253690" d="M16.842,46.267a2.924,2.924,0,0,0,4.143-.033l4.882-4.9a2.912,2.912,0,1,0-4.109-4.126l-4.883,4.9a2.947,2.947,0,0,0-.033,4.159Z" transform="translate(-7.617 -27.967)" fill="#f2c2a2"/>
      <path id="Trazado_1253691" data-name="Trazado 1253691" d="M21.391,47.832a2.924,2.924,0,0,0,4.147-.028l2.208-2.215a2.919,2.919,0,1,0-4.119-4.135L21.42,43.671a2.949,2.949,0,0,0-.029,4.161Z" transform="translate(-6.428 -26.856)" fill="#f2c2a2"/>
    </g>
    <path id="Trazado_1253692" data-name="Trazado 1253692" d="M60.554,23.2a1.262,1.262,0,0,0-.367-.95L46.538,8.556l6.381-6.4A1.264,1.264,0,1,0,51.128.37L43.859,7.664a1.262,1.262,0,0,0,0,1.784l1.394,1.4-3.629,3.2H36.161a5.668,5.668,0,0,0-3.767,1.431L19.577,26.832a1.262,1.262,0,0,0-.194,1.678c.119.167,2.669,3.7,6.174,3.7a5.229,5.229,0,0,0,1.226-.146c2.842-.684,6.161-3.626,7.586-4.992a11.992,11.992,0,0,0,7.425.989C46.6,27.18,47.739,25.2,47.918,24.8a1.293,1.293,0,0,0-.6-1.708,1.235,1.235,0,0,0-1.66.589c-.008.013-.793,1.25-4.313,1.892a9.112,9.112,0,0,1-6.456-1.106,1.262,1.262,0,0,0-1.64.159c-1.135,1.187-4.612,4.393-7.052,4.98-1.606.378-3.141-.824-4.01-1.711L34.071,17.364a3.145,3.145,0,0,1,2.09-.793H42.1a1.262,1.262,0,0,0,.835-.315l4.106-3.617L57.424,23.055l-3.991,3.337a1.262,1.262,0,0,0-.439,1.153c.214,1.47.454,6.01-1.206,7.536-1.737,1.6-3.937,3.69-5.146,4.847L35.783,29.033a1.264,1.264,0,1,0-1.791,1.784L46.8,43.673a1.679,1.679,0,0,1,0,2.364,1.64,1.64,0,0,1-2.312.023l-8.178-8.2a1.264,1.264,0,0,0-1.791,1.784l8.2,8.221a3,3,0,0,1,1,1.9,1.105,1.105,0,0,1-.483.814c-.406.337-1.352,1.135-2.872-.378L33.1,42.914A1.264,1.264,0,0,0,31.308,44.7l7.255,7.278a1.682,1.682,0,0,1-.015,2.341,1.652,1.652,0,0,1-2.335.005l-.93-.932c-.029-.029-.067-.039-.1-.064a4.121,4.121,0,0,0-3.178-3.811,4.193,4.193,0,0,0-1.024-4.178,4.008,4.008,0,0,0-1.514-.941,4.2,4.2,0,0,0-.362-5.488,4.289,4.289,0,0,0-5.5-.347,4.163,4.163,0,0,0-.942-1.475,4.289,4.289,0,0,0-5.929,0l-2.977,2.989c-.945-1.009-3.047-3.213-4.988-5C7.121,33.557,7.36,29.016,7.57,27.545a1.262,1.262,0,0,0-.442-1.154l-4-3.333L13.52,12.635l4.113,3.624a1.262,1.262,0,0,0,.835.315h5.941a3.232,3.232,0,0,1,2.16.85l.286.22a1.262,1.262,0,0,0,1.535-2l-.22-.164A5.677,5.677,0,0,0,24.4,14.046H18.945l-3.637-3.2L16.7,9.454a1.262,1.262,0,0,0,0-1.784L9.427.37A1.264,1.264,0,0,0,7.635,2.154l6.381,6.4L.367,22.253a1.262,1.262,0,0,0,.086,1.862l4.541,3.777c-.189,1.9-.4,6.768,2.083,9.049C8.969,38.684,11.1,40.914,12,41.868l-.028.029a4.21,4.21,0,0,0,0,5.929,4.147,4.147,0,0,0,2.9,1.222,4.176,4.176,0,0,0,4.153,4.15A4.163,4.163,0,0,0,24.858,57a4.1,4.1,0,0,0,5.113,2.8,4.574,4.574,0,0,0,2.523.757,4.139,4.139,0,0,0,2.966-1.182,3.937,3.937,0,0,0,1.091-2.124,4.175,4.175,0,0,0,4.983-3.667,4.241,4.241,0,0,0,3.33-1.07,3.638,3.638,0,0,0,1.388-2.62,3.677,3.677,0,0,0-.064-.883A4.147,4.147,0,0,0,48.6,47.822a4.21,4.21,0,0,0,0-5.929l-.169-.17c1.207-1.157,3.366-3.212,5.07-4.779,2.483-2.281,2.271-7.152,2.084-9.05l4.523-3.777a1.262,1.262,0,0,0,.442-.915Zm-46.8,20.48,4.794-4.81a1.7,1.7,0,0,1,2.346,0,1.674,1.674,0,0,1,.032,2.316l-4.847,4.858-.018.021a1.66,1.66,0,0,1-2.307-2.386ZM17.87,50.19a1.675,1.675,0,0,1,0-2.363l7.109-7.134a1.651,1.651,0,0,1,2.344,0,1.679,1.679,0,0,1,0,2.364L20.21,50.192a1.651,1.651,0,0,1-2.344,0Zm4.148,4.147a1.679,1.679,0,0,1,0-2.364c.01-.01.013-.023.021-.033l4.777-4.794c.011-.01.026-.014.037-.024A1.664,1.664,0,0,1,29.2,49.486l-4.833,4.849a1.694,1.694,0,0,1-2.35,0Zm5.654,2.621a1.675,1.675,0,0,1,0-2.358l2.191-2.2a1.648,1.648,0,0,1,2.341,0,1.678,1.678,0,0,1,0,2.364l-2.194,2.193a1.693,1.693,0,0,1-2.344,0Zm5.995.631a1.626,1.626,0,0,1-1.1.394L33.99,56.55c.03-.029.049-.064.077-.093a1.443,1.443,0,0,1-.4,1.133Z"/>
  </g>
</svg>
