<svg xmlns="http://www.w3.org/2000/svg" xmlns:xlink="http://www.w3.org/1999/xlink" width="220" height="138.915" viewBox="0 0 220 138.915">
  <defs>
    <filter id="Rect치ngulo_404858" x="0" y="0" width="220" height="138.915" filterUnits="userSpaceOnUse">
      <feOffset dx="3" dy="6" input="SourceAlpha"/>
      <feGaussianBlur stdDeviation="5" result="blur"/>
      <feFlood flood-opacity="0.161"/>
      <feComposite operator="in" in2="blur"/>
      <feComposite in="SourceGraphic"/>
    </filter>
    <clipPath id="clip-path">
      <path id="path3762" d="M0-682.665H117.948v117.948H0Z" transform="translate(0 682.665)"/>
    </clipPath>
  </defs>
  <g id="Grupo_1198513" data-name="Grupo 1198513" transform="translate(-1188.307 -405.539)">
    <g id="Grupo_1197899" data-name="Grupo 1197899" transform="translate(1200.307 414.539)">
      <g id="Grupo_1113681" data-name="Grupo 1113681" transform="translate(0)">
        <g transform="matrix(1, 0, 0, 1, -12, -9)" filter="url(#Rect치ngulo_404858)">
          <rect id="Rect치ngulo_404858-2" data-name="Rect치ngulo 404858" width="190" height="108.915" rx="8" transform="translate(12 9)" fill="#f6dfb0"/>
        </g>
      </g>
    </g>
    <g id="g3756" transform="translate(1236.333 1092.688)">
      <g id="g3758" transform="translate(0 -682.665)">
        <g id="g3760" clip-path="url(#clip-path)">
          <g id="g3766" transform="translate(25.419 2.303)">
            <path id="path3768" d="M-13.81-271.329H54.758a3.369,3.369,0,0,1,.44-2.646c4.561-6.8,1.37-9.945-3.182-10.421-3.621-.378-7.748-.135-8.6-1.463-3.042-4.743-5.589-5.68-8.454-5.977-19.272-2-8.888-9.2-14.823-12.257-7.216-3.716,3.664-16.461,11.508-16.793,5.14-.218-.994-14.112-13.653-2.472-2.144,1.972-9,3.876-12.747,4.976-4.321,1.269-2.059,2.94-5.641,8.31-3.455,5.178-3,.534-4.624,3.736-2.039,4.022-3.919,4.506-5.427,4.622-4.229.328-8.141,7.784-5.252,11.886,3.168,4.5,1.023,15.922,1.454,16.976a7.542,7.542,0,0,1,.436,1.524" transform="translate(16.694 327.999)" fill="#ffc144" fill-rule="evenodd"/>
          </g>
          <g id="g3770" transform="translate(17.508 58.974)">
            <path id="path3772" d="M-379.976,0h-68.567c.834,4.595-1.749,11.021-5.586,11.249-7.31.434-2.2,3.653-4.607,5.114-2.27,1.377,2.542,5.665,3.368,5.632,5.156-.2,10.206,10.009,13.142,4.966.367-.63,3.263.139,6.4,1.375h40.453c1.14-2.623,3.868-1.47,4.888-3.438,1.773-3.42-2.217-6.366.291-7.868,4.969-2.977,7.87,5.11,12.545,2.338,4.021-2.384-3.171-9.668-.926-12.172,1.616-1.8-.881-4.569-1.4-7.195" transform="translate(459.339)" fill="#60a4ff" fill-rule="evenodd"/>
          </g>
          <g id="g3774" transform="translate(41.018 87.309)">
            <path id="path3776" d="M-193.677,0h-40.452c3.943,1.554,8.264,3.846,8.408,5.02.551,4.5,3.41,1.847,3.35,3.838-.141,4.729,3.4,3.01,3.583,4.368.884,6.408,9.068,3.19,11.076,2.956,9.467-1.106,5.084,13.07,10.765,12.107s2.644-7.856,3.494-13.613c.588-3.983,2.377-4.361,1.153-8.834-.783-2.861-2.273-3.661-1.411-5.76.011-.028.022-.055.034-.081" transform="translate(234.129)" fill="#ff5a58" fill-rule="evenodd"/>
          </g>
          <g id="g3778" transform="translate(28.18 48.606)">
            <path id="path3780" d="M0,0V0" transform="translate(0)" fill="none" stroke="#000" stroke-linecap="round" stroke-linejoin="round" stroke-miterlimit="2.613" stroke-width="2"/>
          </g>
          <g id="g3782" transform="translate(17.508 2.303)">
            <path id="path3784" d="M-38.336-172.062c-.7-4.115,2.613-9.378,6.151-9.652,1.508-.117,3.388-.6,5.427-4.622,1.624-3.2,1.169,1.442,4.624-3.736,3.583-5.369,1.32-7.041,5.641-8.31,3.748-1.1,10.6-3,12.747-4.976C8.913-215,15.046-201.1,9.907-200.886c-7.844.332-18.724,13.077-11.508,16.793,5.936,3.057-4.448,10.262,14.823,12.257,2.865.3,5.412,1.234,8.455,5.977.852,1.329,4.98,1.085,8.6,1.463,4.552.476,7.742,3.62,3.181,10.421-2.162,3.225,3.136,7.41.958,9.84-2.245,2.5,4.947,9.788.926,12.172-4.675,2.772-7.576-5.315-12.545-2.338-2.508,1.5,1.483,4.448-.291,7.868-1.031,1.988-3.8.792-4.923,3.519-.862,2.1.628,2.9,1.411,5.76,1.225,4.473-.565,4.851-1.153,8.834-.85,5.757,2.186,12.649-3.494,13.613s-1.3-13.213-10.764-12.107c-2.007.235-10.192,3.453-11.076-2.956-.187-1.357-3.723.362-3.583-4.368.059-1.991-2.8.663-3.35-3.838-.258-2.108-13.978-7.818-14.806-6.4-2.935,5.043-7.985-5.17-13.141-4.966-.825.033-5.638-4.255-3.368-5.632,2.408-1.46-2.7-4.679,4.607-5.114,3.838-.228,6.421-6.654,5.586-11.249H32.819" transform="translate(46.343 208)" fill="none" stroke="#000" stroke-linecap="round" stroke-linejoin="round" stroke-miterlimit="22.926" stroke-width="2"/>
          </g>
          <g id="g3786" transform="translate(32.512 87.309)">
            <path id="path3788" d="M-41.319,0H-1.184M-49.949,0h.625" transform="translate(49.949 0)" fill="none" stroke="#000" stroke-linecap="round" stroke-linejoin="round" stroke-miterlimit="22.926" stroke-width="2"/>
          </g>
        </g>
      </g>
    </g>
  </g>
</svg>
