<svg xmlns="http://www.w3.org/2000/svg" xmlns:xlink="http://www.w3.org/1999/xlink" width="220" height="195" viewBox="0 0 220 195">
  <defs>
    <filter id="Rect치ngulo_410431" x="0" y="0" width="220" height="195" filterUnits="userSpaceOnUse">
      <feOffset dx="3" dy="6" input="SourceAlpha"/>
      <feGaussianBlur stdDeviation="5" result="blur"/>
      <feFlood flood-opacity="0.161"/>
      <feComposite operator="in" in2="blur"/>
      <feComposite in="SourceGraphic"/>
    </filter>
  </defs>
  <g id="Grupo_1198580" data-name="Grupo 1198580" transform="translate(-204.467 -3564.594)">
    <g transform="matrix(1, 0, 0, 1, 204.47, 3564.59)" filter="url(#Rect치ngulo_410431)">
      <rect id="Rect치ngulo_410431-2" data-name="Rect치ngulo 410431" width="190" height="165" rx="8" transform="translate(12 9)" fill="#4c6d74"/>
    </g>
    <g id="teamwork_3420242" transform="translate(255.831 3600.875)">
      <path id="Trazado_1254149" data-name="Trazado 1254149" d="M42.227,33v3.5H57.968L87.7,59.235l-5.247,7-1.938-1.508.189-.241-5.247,7-1.933-1.5-5.063,6.751-1.933-1.5-5.063,6.751L28.235,57.486H2V33Z" transform="translate(0.749 23.968)" fill="#fadfb2"/>
      <path id="Trazado_1254150" data-name="Trazado 1254150" d="M45.067,66.15l-4.581,6.108L16,54.768,20.847,48.3" transform="translate(11.235 35.432)" fill="#f5cf88"/>
      <path id="Trazado_1254151" data-name="Trazado 1254151" d="M70.474,60.733H89.713V36.247H59.98L44.239,31H25v7H40.741Z" transform="translate(17.976 22.47)" fill="#f5cf88"/>
      <path id="Trazado_1254152" data-name="Trazado 1254152" d="M44.243,27.5,33.98,29.772a6.961,6.961,0,0,0-1.98.77,7,7,0,0,1,3.489,5.7H39L54.737,41.49H84.47V36.609a7,7,0,0,0-5.478-6.837L68.729,27.5l-7-3.5H51.239Z" transform="translate(23.219 17.227)" fill="#213d68"/>
      <path id="Trazado_1254153" data-name="Trazado 1254153" d="M35.231,24l7,3.5L52.49,29.772a7,7,0,0,1,5.469,6.471H42.227v3.5H2V36.609a7,7,0,0,1,5.478-6.837L17.741,27.5l7-3.5Z" transform="translate(0.749 17.227)" fill="#6bc13b"/>
      <path id="Trazado_1254154" data-name="Trazado 1254154" d="M17,25h3.5V38.99H17Z" transform="translate(11.983 17.976)" fill="#4d8c28"/>
      <path id="Trazado_1254155" data-name="Trazado 1254155" d="M45,25h3.5V40.739H45Z" transform="translate(32.957 17.976)" fill="#172e50"/>
      <g id="Grupo_1198579" data-name="Grupo 1198579" transform="translate(52.369 76.599)">
        <path id="Trazado_1254156" data-name="Trazado 1254156" d="M0,0H3.5V17.494H0Z" transform="matrix(0.614, -0.789, 0.789, 0.614, 6.998, 8.007)" fill="#f5cf88"/>
        <path id="Trazado_1254157" data-name="Trazado 1254157" d="M0,0H3.5V17.487H0Z" transform="matrix(0.614, -0.789, 0.789, 0.614, 13.997, 2.76)" fill="#f5cf88"/>
        <path id="Trazado_1254158" data-name="Trazado 1254158" d="M0,0H3.5V17.494H0Z" transform="matrix(0.614, -0.789, 0.789, 0.614, 0, 13.252)" fill="#f5cf88"/>
      </g>
      <path id="Trazado_1254159" data-name="Trazado 1254159" d="M18.6,56.6l2.849,2.034,4.757-6.344L24.9,51.307,23.4,50.2Z" transform="translate(13.185 36.853)" fill="#e2b56d"/>
      <path id="Trazado_1254160" data-name="Trazado 1254160" d="M22.185,59.116l2.847,2.036,4.7-6.265-2.816-2.074Z" transform="translate(15.868 38.809)" fill="#e2b56d"/>
      <path id="Trazado_1254161" data-name="Trazado 1254161" d="M25.6,61.523l2.849,2.034,4.624-6.167L31.8,56.432,30.268,55.3Z" transform="translate(18.428 40.674)" fill="#e2b56d"/>
      <path id="Trazado_1254162" data-name="Trazado 1254162" d="M36.984,19.49a11.948,11.948,0,0,0,3.5-8.444v-3.8A5.247,5.247,0,0,0,35.235,2H14.247A5.247,5.247,0,0,0,9,7.247v3.8a11.944,11.944,0,0,0,3.5,8.446v-3.5l3.627-2.41a6.514,6.514,0,0,1,8.812,1.513c1.5,1.99,3.3,4.4,3.3,4.4l.588-.875a9.807,9.807,0,0,1,8.157-4.373Z" transform="translate(5.992 0.749)" fill="#976947"/>
      <path id="Trazado_1254163" data-name="Trazado 1254163" d="M25.5,21.486a15.733,15.733,0,0,1-10.5,0l0,4.4,5.247,3.5,5.247-3.5Z" transform="translate(10.485 15.343)" fill="#f5cf88"/>
      <path id="Trazado_1254164" data-name="Trazado 1254164" d="M35.486,9.749V23.741a7,7,0,0,1-2.8,5.6,15.741,15.741,0,0,1-18.889,0,7,7,0,0,1-2.8-5.6V11.5l3.627-2.41A6.514,6.514,0,0,1,23.439,10.6c1.5,1.99,3.3,4.4,3.3,4.4l.588-.875a9.807,9.807,0,0,1,8.157-4.373Z" transform="translate(7.49 5.243)" fill="#fadfb2"/>
      <path id="Trazado_1254165" data-name="Trazado 1254165" d="M14,13H10.5a3.5,3.5,0,1,0,0,7H14" transform="translate(4.494 8.988)" fill="#f5cf88"/>
      <path id="Trazado_1254166" data-name="Trazado 1254166" d="M25,13h3.5a3.5,3.5,0,1,1,0,7H25" transform="translate(17.976 8.988)" fill="#f5cf88"/>
      <path id="Trazado_1254167" data-name="Trazado 1254167" d="M64.984,17.741h1.749l1.38-4.138a7.205,7.205,0,0,0-3.128-8.454A22.1,22.1,0,0,0,53.616,2H51.867A22.1,22.1,0,0,0,40.5,5.148a7.2,7.2,0,0,0-3.13,8.452l1.38,4.142H40.5V15.992l3.627-2.41a6.514,6.514,0,0,1,8.812,1.513c1.5,1.99,3.3,4.4,3.3,4.4l.588-.875a9.807,9.807,0,0,1,8.157-4.373Z" transform="translate(26.964 0.749)" fill="#976947"/>
      <path id="Trazado_1254168" data-name="Trazado 1254168" d="M53.5,21.486a15.733,15.733,0,0,1-10.5,0l0,4.4,5.247,3.5,5.247-3.5Z" transform="translate(31.457 15.343)" fill="#f5cf88"/>
      <path id="Trazado_1254169" data-name="Trazado 1254169" d="M63.486,9.749V23.741a7,7,0,0,1-2.8,5.6,15.741,15.741,0,0,1-18.889,0,7,7,0,0,1-2.8-5.6V11.5l3.627-2.41A6.514,6.514,0,0,1,51.439,10.6c1.5,1.99,3.3,4.4,3.3,4.4l.588-.875a9.807,9.807,0,0,1,8.157-4.373Z" transform="translate(28.463 5.243)" fill="#fadfb2"/>
      <path id="Trazado_1254170" data-name="Trazado 1254170" d="M42,11H38.5a3.5,3.5,0,0,0,0,7H42" transform="translate(25.466 7.49)" fill="#f5cf88"/>
      <path id="Trazado_1254171" data-name="Trazado 1254171" d="M53,11h3.5a3.5,3.5,0,0,1,0,7H53" transform="translate(38.949 7.49)" fill="#f5cf88"/>
      <path id="Trazado_1254172" data-name="Trazado 1254172" d="M46,24l-7,3.5,7,7,5.247-7" transform="translate(28.463 17.227)" fill="#3b5892"/>
      <path id="Trazado_1254173" data-name="Trazado 1254173" d="M51.247,24l7,3.5-7,7L46,27.5" transform="translate(33.706 17.227)" fill="#3b5892"/>
      <path id="Trazado_1254174" data-name="Trazado 1254174" d="M18,24l-7,3.5,7,7,5.247-7" transform="translate(7.49 17.227)" fill="#559b2d"/>
      <path id="Trazado_1254175" data-name="Trazado 1254175" d="M23.247,24l7,3.5-7,7L18,27.5" transform="translate(12.733 17.227)" fill="#559b2d"/>
      <path id="Trazado_1254176" data-name="Trazado 1254176" d="M109.439,58.717v-4.88a8.693,8.693,0,0,0-6.846-8.537L92.535,43.064,86.7,40.145V38.006a17.41,17.41,0,0,0,3.5-2.025,8.791,8.791,0,0,0,3.5-7V27.235h1.749A5.233,5.233,0,0,0,96.1,16.808l.635-1.9a8.862,8.862,0,0,0,.462-2.83A8.993,8.993,0,0,0,92.853,4.4,23.839,23.839,0,0,0,80.58,1H78.831A23.848,23.848,0,0,0,66.558,4.4,8.951,8.951,0,0,0,62.674,14.9l.633,1.9a5.233,5.233,0,0,0,.658,10.428h1.749v1.749a8.794,8.794,0,0,0,3.5,7,17.446,17.446,0,0,0,3.5,2.025v2.141l-5.835,2.917L56.818,45.3a8.784,8.784,0,0,0-1.6.542,8.551,8.551,0,0,0-1.6-.542L43.562,43.064l-5.833-2.919V38.006a17.41,17.41,0,0,0,3.5-2.025,8.782,8.782,0,0,0,3.306-5.247h1.941a5.247,5.247,0,0,0,0-10.494H45.3a13.581,13.581,0,0,0,2.928-8.444V8a7,7,0,0,0-7-7H20.239a7.007,7.007,0,0,0-7,7v3.8a13.578,13.578,0,0,0,2.924,8.446H14.992a5.247,5.247,0,1,0,0,10.494h1.941a8.8,8.8,0,0,0,3.306,5.247,17.445,17.445,0,0,0,3.5,2.025v2.141L17.9,43.064,7.846,45.3A8.693,8.693,0,0,0,1,53.834v27.62A1.749,1.749,0,0,0,2.749,83.2H28.407l1.216.9L25.836,89.15a1.749,1.749,0,0,0,.383,2.473l24.486,17.49a1.749,1.749,0,0,0,2.415-.374l3.538-4.722,4.518,3.323a1.749,1.749,0,0,0,2.438-.35l3.995-5.327.525.411a1.749,1.749,0,0,0,1.077.369,1.471,1.471,0,0,0,.233-.017,1.749,1.749,0,0,0,1.168-.682l3.995-5.327.525.411a1.749,1.749,0,0,0,1.076.369,1.474,1.474,0,0,0,.233-.017,1.749,1.749,0,0,0,1.168-.682L81.6,91.169l.525.411a1.749,1.749,0,0,0,1.076.369,1.473,1.473,0,0,0,.233-.017,1.749,1.749,0,0,0,1.168-.682l4.721-6.3H107.69a1.749,1.749,0,0,0,1.749-1.749Zm-3.5-4.88v3.131H81.455v-7l2.1,2.8a1.749,1.749,0,0,0,1.277.7h.124a1.749,1.749,0,0,0,1.236-.512l6.316-6.309,9.322,2.073a5.216,5.216,0,0,1,4.112,5.112ZM60.188,51.721A8.717,8.717,0,0,0,58.6,48.486l8.3-1.836,6.317,6.317a1.749,1.749,0,0,0,1.24.5h.124a1.749,1.749,0,0,0,1.277-.7l2.1-2.8v6.9l-15.19-5.063a1.731,1.731,0,0,0-.551-.091ZM85.14,49.059l-2.928-3.9,2.865-1.91L89,45.2ZM97.2,21.988a1.749,1.749,0,0,1-1.749,1.749H93.7v-3.5h1.749A1.749,1.749,0,0,1,97.2,21.988ZM63.964,23.737a1.749,1.749,0,0,1,0-3.5h1.749v3.5Zm2.529-8.453L66,13.8a5.455,5.455,0,0,1,2.37-6.4A20.345,20.345,0,0,1,78.831,4.5H80.58A20.34,20.34,0,0,1,91.049,7.4,5.478,5.478,0,0,1,93.7,12.076,5.422,5.422,0,0,1,93.42,13.8l-.068.2a1.718,1.718,0,0,0-1.4-.757,11.543,11.543,0,0,0-8.778,4.04L81.3,14.793a8.31,8.31,0,0,0-6.61-3.3,8.208,8.208,0,0,0-4.567,1.378Zm2.718,13.7V17.679l2.847-1.892A4.9,4.9,0,0,1,78.5,16.9l3.3,4.394a1.777,1.777,0,0,0,1.448.7,1.749,1.749,0,0,0,1.4-.778l.586-.875a8.045,8.045,0,0,1,4.962-3.4V28.984a5.268,5.268,0,0,1-2.1,4.2,13.992,13.992,0,0,1-16.791,0,5.272,5.272,0,0,1-2.1-4.2ZM79.706,39.478a17.373,17.373,0,0,0,3.5-.373V40.29l-3.5,2.337-3.5-2.333V39.109a17.426,17.426,0,0,0,3.5.369Zm-5.376,3.767,2.865,1.91-2.926,3.9L70.42,45.212ZM56.508,51.721H42.976a1.749,1.749,0,0,0-1.749,1.749v1.749H32.482V49.972l2.1,2.8a1.749,1.749,0,0,0,1.277.7h.124a1.749,1.749,0,0,0,1.236-.512l6.316-6.309,9.322,2.073A5.247,5.247,0,0,1,56.508,51.721ZM36.167,49.059l-2.928-3.9,2.865-1.91,3.92,1.959ZM48.223,25.486a1.749,1.749,0,0,1-1.749,1.749H44.725v-3.5h1.749a1.749,1.749,0,0,1,1.749,1.749Zm-34.98,0a1.749,1.749,0,0,1,1.749-1.749h1.749v3.5H14.992a1.749,1.749,0,0,1-1.749-1.749Zm4.278-10.2c-.04.028-.072.065-.11.1a10.193,10.193,0,0,1-.67-3.589V8a3.5,3.5,0,0,1,3.5-3.5H41.227a3.5,3.5,0,0,1,3.5,3.5v3.8a10.169,10.169,0,0,1-.285,2.3,1.719,1.719,0,0,0-1.464-.85,11.543,11.543,0,0,0-8.778,4.04l-1.873-2.491a8.31,8.31,0,0,0-6.61-3.3,8.208,8.208,0,0,0-4.567,1.378Zm2.718,13.7V17.679l2.847-1.892A4.9,4.9,0,0,1,29.532,16.9l3.3,4.394a1.749,1.749,0,0,0,2.856-.079l.586-.875a8.045,8.045,0,0,1,4.953-3.4V28.984a5.268,5.268,0,0,1-2.1,4.2,13.992,13.992,0,0,1-16.791,0,5.272,5.272,0,0,1-2.1-4.2ZM30.733,39.478a17.373,17.373,0,0,0,3.5-.373V40.29l-3.5,2.337-3.5-2.333V39.109a17.426,17.426,0,0,0,3.5.369Zm-5.376,3.767,2.865,1.91-2.926,3.9-3.848-3.848ZM8.606,48.713l9.322-2.073,6.317,6.317a1.749,1.749,0,0,0,1.24.512h.124a1.749,1.749,0,0,0,1.277-.7l2.1-2.8v5.247H4.5V53.834a5.216,5.216,0,0,1,4.108-5.121ZM32.439,86.177l3.1,2.274-2.7,3.6L29.7,89.815ZM47.644,97.371,45.075,100.8l-3.131-2.235L44.55,95.1ZM39.1,96.519l-3.416-2.44,2.667-3.556,3.377,2.491Zm12.243,8.745-3.416-2.449,2.533-3.379,3.379,2.491ZM82.871,87.725,68.529,76.575l-2.146,2.762,12.448,9.684-2.956,3.951L61.533,81.822l-2.146,2.762,12.448,9.684-2.956,3.951L54.537,87.069l-2.146,2.762,12.448,9.684L61.848,103.5,30.016,80.045a1.749,1.749,0,0,0-1.032-.339H4.5V58.717H41.227v1.749a1.749,1.749,0,0,0,1.749,1.749H58.123L86,83.539Zm23.069-6.27H89.04L59.777,59.076a1.749,1.749,0,0,0-1.06-.359H44.725v-3.5H61.93L77.4,60.375a1.733,1.733,0,0,0,.553.091h27.984Z" transform="translate(0 0)"/>
    </g>
  </g>
</svg>
