<svg xmlns="http://www.w3.org/2000/svg" xmlns:xlink="http://www.w3.org/1999/xlink" width="253.172" height="238.89" viewBox="0 0 253.172 238.89">
  <defs>
    <filter id="Trazado_1034908" x="82.867" y="0" width="170.305" height="170.305" filterUnits="userSpaceOnUse">
      <feOffset dy="3" input="SourceAlpha"/>
      <feGaussianBlur stdDeviation="3" result="blur"/>
      <feFlood flood-opacity="0.161"/>
      <feComposite operator="in" in2="blur"/>
      <feComposite in="SourceGraphic"/>
    </filter>
    <filter id="Trazado_1034909" x="0" y="118.028" width="120.862" height="120.862" filterUnits="userSpaceOnUse">
      <feOffset dy="3" input="SourceAlpha"/>
      <feGaussianBlur stdDeviation="3" result="blur-2"/>
      <feFlood flood-opacity="0.161"/>
      <feComposite operator="in" in2="blur-2"/>
      <feComposite in="SourceGraphic"/>
    </filter>
  </defs>
  <g id="Grupo_1198610" data-name="Grupo 1198610" transform="translate(-651.491 5678.484)">
    <g id="Grupo_1198508" data-name="Grupo 1198508" transform="translate(639.85 -5707.111)">
      <g id="Grupo_1112109" data-name="Grupo 1112109" transform="translate(20.641 34.415)">
        <g id="Grupo_1112092" data-name="Grupo 1112092" transform="translate(0 0.212)">
          <g transform="matrix(1, 0, 0, 1, -9, -6)" filter="url(#Trazado_1034908)">
            <path id="Trazado_1034908-2" data-name="Trazado 1034908" d="M213.63,76.151A76.152,76.152,0,1,1,137.477,0,76.153,76.153,0,0,1,213.63,76.151" transform="translate(30.54 6)" fill="#efeae8"/>
          </g>
          <g transform="matrix(1, 0, 0, 1, -9, -6)" filter="url(#Trazado_1034909)">
            <path id="Trazado_1034909-2" data-name="Trazado 1034909" d="M164.187,51.43A51.431,51.431,0,1,1,112.756,0,51.431,51.431,0,0,1,164.187,51.43" transform="translate(-52.32 124.03)" fill="#efeae8"/>
          </g>
        </g>
        <g id="Grupo_1112093" data-name="Grupo 1112093" transform="translate(16.611)">
          <g id="Elipse_12265" data-name="Elipse 12265" transform="translate(12.898 -1.304)" fill="none" stroke="#efeae8" stroke-width="3">
            <circle cx="9" cy="9" r="9" stroke="none"/>
            <circle cx="9" cy="9" r="7.5" fill="none"/>
          </g>
          <g id="Elipse_12266" data-name="Elipse 12266" transform="translate(3.898 183.696)" fill="none" stroke="#c9c8c8" stroke-width="3">
            <circle cx="9" cy="9" r="9" stroke="none"/>
            <circle cx="9" cy="9" r="7.5" fill="none"/>
          </g>
          <g id="Elipse_12268" data-name="Elipse 12268" transform="translate(192.898 175.696)" fill="none" stroke="#efeae8" stroke-width="3">
            <circle cx="9" cy="9" r="9" stroke="none"/>
            <circle cx="9" cy="9" r="7.5" fill="none"/>
          </g>
          <g id="Elipse_12267" data-name="Elipse 12267" transform="translate(174.898 53.696)" fill="none" stroke="#c9c8c8" stroke-width="3">
            <circle cx="9" cy="9" r="9" stroke="none"/>
            <circle cx="9" cy="9" r="7.5" fill="none"/>
          </g>
        </g>
      </g>
    </g>
    <g id="self-control_14596669" transform="translate(669.526 -5633.681)">
      <g id="Grupo_1198609" data-name="Grupo 1198609" transform="translate(45.263 2.286)">
        <g id="Grupo_1198596" data-name="Grupo 1198596" transform="translate(0 0)">
          <path id="Trazado_1254199" data-name="Trazado 1254199" d="M92.363,125.14c5.263,5.724,7,12.331,8.325,19.039H162c-8.418-18.188-12.971-36.219-5.865-53.337,19.578-47.16-2.319-79.857-37.14-83.519-20.2-2.132-50.487,5.709-58.834,26.544-3.725,9.285-3.092,20.163,2.929,30.432C53.661,78.714,41.151,86.929,59.151,95.73c-5.263,5.42-5.014,8.051.234,11.636-2.671,4.678-2.741,7.715,4.092,8.9-9.534,25.888,22.546,13.112,28.887,8.871Z" transform="translate(-49.999 -6.984)" fill="#ffbfa8" fill-rule="evenodd"/>
        </g>
        <g id="Grupo_1198597" data-name="Grupo 1198597" transform="translate(22.279 43.585)">
          <path id="Trazado_1254200" data-name="Trazado 1254200" d="M174.153,176.525a22.481,22.481,0,0,1,3.014,2.312l8.278-2.569,5.146,8.918-6.357,5.88a23.411,23.411,0,0,1,.492,3.772l7.669,4.037-2.671,9.941-8.653-.336a22.482,22.482,0,0,1-2.311,3.014l2.569,8.27-8.926,5.154-5.873-6.365a22.567,22.567,0,0,1-3.78.5l-4.03,7.669-9.949-2.671.344-8.653a22.536,22.536,0,0,1-3.014-2.319l-8.278,2.569-5.146-8.918,6.365-5.873a22.539,22.539,0,0,1-.5-3.78l-7.669-4.03,2.671-9.949,8.653.344a22.505,22.505,0,0,1,2.319-3.022l-2.577-8.27,8.926-5.146,5.873,6.357a22.531,22.531,0,0,1,3.78-.492l4.03-7.669,9.949,2.663Z" transform="translate(-130.874 -165.201)" fill="#8399fe" fill-rule="evenodd"/>
        </g>
        <g id="Grupo_1198598" data-name="Grupo 1198598" transform="translate(40.177 43.585)">
          <path id="Trazado_1254201" data-name="Trazado 1254201" d="M221.227,176.527a22.482,22.482,0,0,1,3.014,2.311l8.278-2.569,5.146,8.918-6.357,5.88a23.408,23.408,0,0,1,.492,3.772l7.669,4.037-2.671,9.941-8.653-.336a22.485,22.485,0,0,1-2.311,3.014l2.569,8.27-8.926,5.154-5.873-6.365a22.565,22.565,0,0,1-3.78.5l-4.03,7.669-9.949-2.671.094-2.335a25.834,25.834,0,0,0,9.894-48.7c.578-.07,1.164-.125,1.757-.148l4.03-7.669,9.949,2.663Z" transform="translate(-195.847 -165.203)" fill="#6a85f2" fill-rule="evenodd"/>
        </g>
        <g id="Grupo_1198599" data-name="Grupo 1198599" transform="translate(37.901 59.208)">
          <path id="Trazado_1254202" data-name="Trazado 1254202" d="M206.643,222.434a15.135,15.135,0,1,1-18.539,10.7A15.136,15.136,0,0,1,206.643,222.434Z" transform="translate(-187.584 -221.914)" fill="#e2f0fa" fill-rule="evenodd"/>
        </g>
        <g id="Grupo_1198600" data-name="Grupo 1198600" transform="translate(51.321 59.208)">
          <path id="Trazado_1254203" data-name="Trazado 1254203" d="M241.938,222.434a15.136,15.136,0,0,1-5.615,29.659,15.138,15.138,0,0,0,2.2-29.659,15.937,15.937,0,0,0-2.226-.422A15.1,15.1,0,0,1,241.938,222.434Z" transform="translate(-236.3 -221.915)" fill="#d4e7f7" fill-rule="evenodd"/>
        </g>
        <g id="Grupo_1198601" data-name="Grupo 1198601" transform="translate(17.914 9.944)">
          <path id="Trazado_1254204" data-name="Trazado 1254204" d="M175.541,47.837A16.011,16.011,0,0,1,191.55,63.775a7.684,7.684,0,0,1,1.047-.07A7.317,7.317,0,0,1,199.266,74a13.636,13.636,0,0,1-2.21,17.625,14.876,14.876,0,0,1-9.231,12.62c4.717,5.677,6.411,12.167,6.474,19.094H186.56c-5.458-15.556-19.32-6.607-20.866-22.272-.234.008-.476.016-.718.016a14.111,14.111,0,0,1-4.584-.765,14.028,14.028,0,0,1-21.9-4.842,16.657,16.657,0,0,1-19.328-26.184,7.223,7.223,0,0,1-.726-3.178,7.3,7.3,0,0,1,5.466-7.075,10.843,10.843,0,0,1,13.963-9.988,14.11,14.11,0,0,1,21.225-2.1,7.3,7.3,0,0,1,13.393,1.187A15.818,15.818,0,0,1,175.541,47.837Z" transform="translate(-115.028 -43.081)" fill="#df646e" fill-rule="evenodd"/>
        </g>
        <g id="Grupo_1198602" data-name="Grupo 1198602" transform="translate(59.786 69.208)">
          <path id="Trazado_1254205" data-name="Trazado 1254205" d="M267.328,258.247c-.094.047-.2.086-.3.133.07-.055.133-.109.2-.164Z" transform="translate(-267.031 -258.216)" fill="#faa0c2" fill-rule="evenodd"/>
        </g>
        <g id="Grupo_1198603" data-name="Grupo 1198603" transform="translate(87.423 71.215)">
          <path id="Trazado_1254206" data-name="Trazado 1254206" d="M370.728,265.5c4.654,5.646,6.325,12.1,6.388,18.984h-3.35a28.307,28.307,0,0,0-6.411-17.063A15.259,15.259,0,0,0,370.728,265.5Z" transform="translate(-367.355 -265.501)" fill="#d82f3c" fill-rule="evenodd"/>
        </g>
        <g id="Grupo_1198604" data-name="Grupo 1198604" transform="translate(63.082 9.944)">
          <path id="Trazado_1254207" data-name="Trazado 1254207" d="M294.34,47.837a16.011,16.011,0,0,1,16.009,15.939,7.684,7.684,0,0,1,1.047-.07A7.317,7.317,0,0,1,318.064,74a13.636,13.636,0,0,1-2.21,17.625,14.881,14.881,0,0,1-8.723,12.4c3.061-2.5,5.2-7.583,5.529-11.761,2.749-2.491,4.389-5.31,4.389-8.707a12.165,12.165,0,0,0-2.272-7.528,7.3,7.3,0,0,0-6.669-10.293,7.771,7.771,0,0,0-1.047.07,16.006,16.006,0,0,0-16.009-15.939,15.745,15.745,0,0,0-3.053.3,7.329,7.329,0,0,0-9-4.763,7.3,7.3,0,0,1,12.284,2.733,15.817,15.817,0,0,1,3.061-.3Z" transform="translate(-278.995 -43.081)" fill="#d82f3c" fill-rule="evenodd"/>
        </g>
        <g id="Grupo_1198605" data-name="Grupo 1198605" transform="translate(45.066 27.194)">
          <path id="Trazado_1254208" data-name="Trazado 1254208" d="M218.35,115.206a4.752,4.752,0,1,0-4.756-4.756A4.758,4.758,0,0,0,218.35,115.206Z" transform="translate(-213.594 -105.702)" fill="#41c4e8" fill-rule="evenodd"/>
        </g>
        <g id="Grupo_1198606" data-name="Grupo 1198606" transform="translate(60.52 36.643)">
          <path id="Trazado_1254209" data-name="Trazado 1254209" d="M274.451,149.507a4.752,4.752,0,1,0-4.756-4.748A4.756,4.756,0,0,0,274.451,149.507Z" transform="translate(-269.695 -140.003)" fill="#ffb74d" fill-rule="evenodd"/>
        </g>
        <g id="Grupo_1198607" data-name="Grupo 1198607" transform="translate(75.975 30.443)">
          <path id="Trazado_1254210" data-name="Trazado 1254210" d="M330.552,127a4.752,4.752,0,1,0-4.756-4.748A4.756,4.756,0,0,0,330.552,127Z" transform="translate(-325.796 -117.495)" fill="#8399fe" fill-rule="evenodd"/>
        </g>
        <g id="Grupo_1198608" data-name="Grupo 1198608" transform="translate(60.052 0)">
          <path id="Trazado_1254211" data-name="Trazado 1254211" d="M315.435,144.178h4.506c-8.418-18.188-12.971-36.219-5.865-53.337,19.578-47.16-2.319-79.857-37.14-83.519a66.7,66.7,0,0,0-8.942-.3c1.531.047,3.03.148,4.467.3,34.9,3.67,56.843,36.43,37.219,83.691C302.6,108.068,307.079,126.045,315.435,144.178Z" transform="translate(-267.994 -6.984)" fill="#fcac8f" fill-rule="evenodd"/>
        </g>
      </g>
      <path id="Trazado_1254212" data-name="Trazado 1254212" d="M153.079,86.858c9.891-23.82,9.976-45.964.24-62.35A46.7,46.7,0,0,0,137.17,8.269,54.533,54.533,0,0,0,114.436.845,78.33,78.33,0,0,0,79.754,5.619c-9.082,3.5-20.968,10.325-26.015,22.914-3.99,9.944-3.113,20.915,2.45,31.017-1.663,2.46-3.389,4.721-5.064,6.916-4.658,6.1-8.681,11.373-7.433,16.657.744,3.15,3.222,5.858,7.735,8.417-1.61,1.947-2.853,4.113-2.624,6.383.224,2.215,1.734,3.9,3.469,5.262-.961,2-1.605,4.282-.651,6.306a7.049,7.049,0,0,0,4.7,3.4c-2.06,6.691-1.387,11.429,2.008,14.1,7.053,5.551,23.024-.908,28.937-4.175,4.2,5.175,5.679,11.168,6.819,16.9a1.925,1.925,0,0,0,1.888,1.549h61.187a1.925,1.925,0,0,0,1.747-2.734c-9.948-21.494-11.746-37.431-5.829-51.676ZM97.546,137.417c-1.314-6.233-3.23-12.688-8.462-18.378a1.927,1.927,0,0,0-2.488-.3,51.52,51.52,0,0,1-12.767,5.335c-6.22,1.695-10.879,1.657-13.118-.106-2.837-2.232-1.606-7.659-.074-11.818a1.925,1.925,0,0,0-1.479-2.562c-3.176-.549-3.893-1.4-4.053-1.742-.232-.492-.191-1.635,1.321-4.284a1.925,1.925,0,0,0-.586-2.544c-2.062-1.408-3.11-2.549-3.205-3.486-.113-1.118.956-2.821,3.267-5.2a1.925,1.925,0,0,0-.536-3.069c-4.768-2.331-7.36-4.628-7.926-7.023-.829-3.511,2.513-7.89,6.746-13.435,1.846-2.418,3.938-5.159,5.874-8.12a1.926,1.926,0,0,0,.049-2.028c-5.479-9.339-6.472-19.528-2.8-28.689C61.843,18.662,72.77,12.44,81.139,9.211a74.315,74.315,0,0,1,32.893-4.537c15.838,1.669,28.615,9.411,35.976,21.8,9.1,15.316,8.928,36.237-.485,58.907-3.478,8.372-4.461,17.278-3.007,27.224,1.09,7.455,3.6,15.6,7.663,24.811H97.546Zm30.732-47.885a1.926,1.926,0,0,1-2,1.847l-7.565-.3q-.549.774-1.152,1.5l2.246,7.231a1.925,1.925,0,0,1-.876,2.238l-8.9,5.136a1.925,1.925,0,0,1-2.375-.36l-5.142-5.558c-.623.107-1.248.19-1.873.249l-3.523,6.7a1.925,1.925,0,0,1-2.2.963l-9.929-2.657a1.925,1.925,0,0,1-1.426-1.936l.3-7.567q-.764-.544-1.495-1.151l-7.238,2.246a1.923,1.923,0,0,1-2.238-.876l-5.136-8.9a1.925,1.925,0,0,1,.36-2.375l5.559-5.142q-.16-.943-.246-1.874l-6.7-3.521a1.925,1.925,0,0,1-.964-2.2l1.489-5.565a1.925,1.925,0,1,1,3.719,1l-1.091,4.078,6.292,3.306A1.925,1.925,0,0,1,77.2,77.66a20.583,20.583,0,0,0,.45,3.441,1.925,1.925,0,0,1-.575,1.818l-5.216,4.825,3.6,6.236,6.792-2.108a1.925,1.925,0,0,1,1.864.413,21.328,21.328,0,0,0,2.758,2.123,1.925,1.925,0,0,1,.88,1.694l-.282,7.1,6.957,1.862,3.305-6.284a1.925,1.925,0,0,1,1.61-1.026,21.228,21.228,0,0,0,3.451-.458,1.927,1.927,0,0,1,1.821.574l4.825,5.216,6.236-3.6L113.565,92.7a1.926,1.926,0,0,1,.413-1.866A21.3,21.3,0,0,0,116.1,88.07a1.92,1.92,0,0,1,1.694-.88l8.635.343a1.924,1.924,0,0,1,1.847,2ZM85.59,73.213a13.179,13.179,0,0,0,25.46,6.821,1.925,1.925,0,0,1,3.719,1,17.029,17.029,0,1,1-32.9-8.813,1.925,1.925,0,1,1,3.719,1ZM146.972,61.7A15.53,15.53,0,0,0,149.463,43a9.116,9.116,0,0,0,.427-2.774,9.228,9.228,0,0,0-8.454-9.189,17.891,17.891,0,0,0-19.651-15.761,9.213,9.213,0,0,0-14.912-1.859,16,16,0,0,0-21.579,2.725,12.909,12.909,0,0,0-2.358-.216A12.69,12.69,0,0,0,70.311,26.864a9.21,9.21,0,0,0-5.581,8.465,9.085,9.085,0,0,0,.447,2.831,18.553,18.553,0,0,0,20.6,28.9A15.92,15.92,0,0,0,108.936,71.6a15.821,15.821,0,0,0,3.21.528c1.345,7.751,6.087,9.565,10.3,11.178,4.128,1.579,8.028,3.07,10.379,9.775a1.925,1.925,0,0,0,1.816,1.288h7.731a1.925,1.925,0,0,0,1.925-1.943c-.065-7.219-1.85-13.252-5.443-18.365A16.918,16.918,0,0,0,146.972,61.7Zm-6.585,28.822h-4.415c-3.022-7.32-8.057-9.245-12.146-10.809-3.813-1.458-6.687-2.561-7.758-7.572a21.87,21.87,0,0,0,4.587-.591,1.925,1.925,0,0,0-.93-3.736,21.144,21.144,0,0,1-5.824.474h-.015a1.95,1.95,0,0,0-.2,0c-.194.012-.382.019-.572.019a11.994,11.994,0,0,1-3.95-.665,1.925,1.925,0,0,0-1.888.359,12.067,12.067,0,0,1-19.928-9.15v-.01a12.127,12.127,0,0,1,1.4-5.636,1.925,1.925,0,1,0-3.4-1.8,15.985,15.985,0,0,0-1.627,4.869c-1.976-.949-3.007-2.605-3.266-5.168a1.925,1.925,0,0,0-3.831.386c.454,4.5,2.851,7.528,6.954,8.847a15.749,15.749,0,0,0,.63,3.169A14.7,14.7,0,0,1,67.245,41.96a11.421,11.421,0,0,0,3.525,2.963,1.925,1.925,0,0,0,1.839-3.383,7.784,7.784,0,0,1-3.464-3.825c-.006-.013-.013-.024-.018-.036s-.005-.015-.009-.022a5.269,5.269,0,0,1-.538-2.328A5.359,5.359,0,0,1,72.6,30.14l.01,0a1.919,1.919,0,0,0,.207-.066,5.83,5.83,0,0,1,5.144.5,1.925,1.925,0,1,0,2.375-3.03,9.087,9.087,0,0,0-5.854-1.675,8.859,8.859,0,0,1,8.454-6.092,8.953,8.953,0,0,1,2.566.371,1.925,1.925,0,0,0,2.121-.73A12.157,12.157,0,0,1,105.914,17.6a1.925,1.925,0,0,0,3.018-.488,5.363,5.363,0,0,1,9.838.871,1.925,1.925,0,0,0,2.2,1.3,13.922,13.922,0,0,1,2.684-.26A14.068,14.068,0,0,1,137.7,33.013a1.925,1.925,0,0,0,2.185,1.9,5.876,5.876,0,0,1,.792-.06,5.372,5.372,0,0,1,5.362,5.37,5.255,5.255,0,0,1-.467,2.183,1.925,1.925,0,0,0,.15,1.859,11.679,11.679,0,0,1-1.886,15.106h0a11.673,11.673,0,0,1-14.854.681,1.925,1.925,0,0,0-2.31,3.08,15.517,15.517,0,0,0,15.395,1.875,13,13,0,0,1-6.874,6.593,1.925,1.925,0,0,0-.757,3.014,26.458,26.458,0,0,1,5.95,15.907ZM97.026,27.928V24.566a1.925,1.925,0,0,0-3.85,0v3.363a6.668,6.668,0,0,0,0,12.766V53.675a1.925,1.925,0,1,0,3.85,0V40.695a6.666,6.666,0,0,0,0-12.767Zm-1.925,9.2a2.817,2.817,0,1,1,2.821-2.821A2.821,2.821,0,0,1,95.1,37.129Zm17.356.23V24.566a1.925,1.925,0,0,0-3.85,0V37.358a6.666,6.666,0,0,0,0,12.767v3.55a1.925,1.925,0,1,0,3.85,0V50.124a6.668,6.668,0,0,0,0-12.765Zm-1.925,9.2a2.817,2.817,0,1,1,2.813-2.821A2.825,2.825,0,0,1,110.533,46.559Zm17.348,7.115V43.936a6.668,6.668,0,0,0,0-12.765V24.566a1.925,1.925,0,0,0-3.85,0v6.6a6.666,6.666,0,0,0,0,12.767v9.738a1.925,1.925,0,1,0,3.85,0ZM123.135,37.55a2.817,2.817,0,1,1,2.821,2.821A2.821,2.821,0,0,1,123.135,37.55Z"/>
    </g>
  </g>
</svg>
