<svg xmlns="http://www.w3.org/2000/svg" xmlns:xlink="http://www.w3.org/1999/xlink" width="505" height="453" viewBox="0 0 505 453">
  <defs>
    <clipPath id="clip-path">
      <rect id="Rectángulo_410525" data-name="Rectángulo 410525" width="505" height="453" transform="translate(915.094 4455)" fill="#fff" stroke="#707070" stroke-width="1"/>
    </clipPath>
    <clipPath id="clip-path-2">
      <rect id="Rectángulo_410486" data-name="Rectángulo 410486" width="404.25" height="586.886" fill="#fff" stroke="#707070" stroke-width="1"/>
    </clipPath>
    <clipPath id="clip-path-3">
      <rect id="Rectángulo_410467" data-name="Rectángulo 410467" width="457.974" height="795.269" fill="none"/>
    </clipPath>
    <clipPath id="clip-path-5">
      <rect id="Rectángulo_410446" data-name="Rectángulo 410446" width="40.597" height="30.737" fill="none"/>
    </clipPath>
    <clipPath id="clip-path-6">
      <rect id="Rectángulo_410447" data-name="Rectángulo 410447" width="94.183" height="44.633" fill="none"/>
    </clipPath>
    <clipPath id="clip-path-7">
      <rect id="Rectángulo_410448" data-name="Rectángulo 410448" width="232.664" height="378.638" fill="none"/>
    </clipPath>
    <clipPath id="clip-path-8">
      <rect id="Rectángulo_410449" data-name="Rectángulo 410449" width="115.594" height="159.265" fill="none"/>
    </clipPath>
    <clipPath id="clip-path-9">
      <rect id="Rectángulo_410450" data-name="Rectángulo 410450" width="28.04" height="39.853" fill="none"/>
    </clipPath>
    <clipPath id="clip-path-10">
      <rect id="Rectángulo_410451" data-name="Rectángulo 410451" width="79.472" height="174.224" fill="none"/>
    </clipPath>
    <clipPath id="clip-path-11">
      <rect id="Rectángulo_410452" data-name="Rectángulo 410452" width="81.767" height="102.332" fill="none"/>
    </clipPath>
    <clipPath id="clip-path-12">
      <rect id="Rectángulo_410453" data-name="Rectángulo 410453" width="11.144" height="15.061" fill="none"/>
    </clipPath>
    <clipPath id="clip-path-13">
      <rect id="Rectángulo_410454" data-name="Rectángulo 410454" width="15.25" height="32.885" fill="none"/>
    </clipPath>
    <clipPath id="clip-path-14">
      <rect id="Rectángulo_410455" data-name="Rectángulo 410455" width="23.515" height="13.589" fill="none"/>
    </clipPath>
    <clipPath id="clip-path-15">
      <rect id="Rectángulo_410456" data-name="Rectángulo 410456" width="11.382" height="12.003" fill="none"/>
    </clipPath>
    <clipPath id="clip-path-16">
      <rect id="Rectángulo_410457" data-name="Rectángulo 410457" width="59.059" height="243.482" fill="none"/>
    </clipPath>
    <clipPath id="clip-path-17">
      <rect id="Rectángulo_410458" data-name="Rectángulo 410458" width="73.125" height="238.458" fill="none"/>
    </clipPath>
    <clipPath id="clip-path-18">
      <rect id="Rectángulo_410459" data-name="Rectángulo 410459" width="24.65" height="35.239" fill="none"/>
    </clipPath>
    <clipPath id="clip-path-19">
      <rect id="Rectángulo_410460" data-name="Rectángulo 410460" width="146.353" height="122.856" fill="none"/>
    </clipPath>
    <clipPath id="clip-path-20">
      <rect id="Rectángulo_410461" data-name="Rectángulo 410461" width="80.838" height="109.384" fill="none"/>
    </clipPath>
    <clipPath id="clip-path-21">
      <rect id="Rectángulo_410462" data-name="Rectángulo 410462" width="108.211" height="76.469" fill="none"/>
    </clipPath>
    <clipPath id="clip-path-22">
      <rect id="Rectángulo_410463" data-name="Rectángulo 410463" width="79.602" height="130.347" fill="none"/>
    </clipPath>
    <clipPath id="clip-path-23">
      <rect id="Rectángulo_410464" data-name="Rectángulo 410464" width="30.428" height="16.142" fill="none"/>
    </clipPath>
    <clipPath id="clip-path-24">
      <rect id="Rectángulo_410465" data-name="Rectángulo 410465" width="29.226" height="12.072" fill="none"/>
    </clipPath>
  </defs>
  <g id="Enmascarar_grupo_1099155" data-name="Enmascarar grupo 1099155" transform="translate(-915.094 -4455)" clip-path="url(#clip-path)">
    <g id="Enmascarar_grupo_1099152" data-name="Enmascarar grupo 1099152" transform="translate(965.094 4454.797)" clip-path="url(#clip-path-2)">
      <g id="Grupo_1198473" data-name="Grupo 1198473" transform="translate(-0.442 3.341)">
        <g id="Grupo_1198472" data-name="Grupo 1198472" clip-path="url(#clip-path-3)">
          <g id="Grupo_1198471" data-name="Grupo 1198471">
            <g id="Grupo_1198470" data-name="Grupo 1198470" clip-path="url(#clip-path-3)">
              <path id="Trazado_1253854" data-name="Trazado 1253854" d="M100.88,361.307a54.169,54.169,0,0,0,2.188,20.62c.514,1.669,1.1,3.544.283,5.087-.943,1.789-3.27,2.239-5.287,2.387a64.9,64.9,0,0,1-14.43-.539c-1.635-.244-3.381-.614-4.508-1.826-1.2-1.3-1.389-3.213-1.492-4.978q-.482-8.2-.4-16.423c.022-2.422.128-4.992,1.468-7.011a9.04,9.04,0,0,1,4.746-3.337,15.1,15.1,0,0,1,17.867,7.619" transform="translate(197.204 366.404)" fill="#eb9091"/>
              <path id="Trazado_1253855" data-name="Trazado 1253855" d="M164.564,386.68c-3.631-1.771,1.838-26.093,2.326-29.324.2-1.309.525-2.808,1.7-3.426a4.3,4.3,0,0,1,2.881-.065l23.655,4.967c-3.926,9.083-6.071,19.463-7.871,29.133a2.237,2.237,0,0,1-.569,1.328,2.155,2.155,0,0,1-1.057.407,33.509,33.509,0,0,1-21.061-3.019" transform="translate(-69.243 365.426)" fill="#eb9091"/>
              <path id="Trazado_1253856" data-name="Trazado 1253856" d="M222.118,405.15a126.575,126.575,0,0,1-21.872,3.715,156.878,156.878,0,0,1-32.236-1.519,8.334,8.334,0,0,1-3.7-1.2c-2.505-1.816-2.3-5.547-1.836-8.607a4.071,4.071,0,0,1,1.334-2.934,4.291,4.291,0,0,1,2.562-.413c17.972.624,20.933-12.283,28.336-25.937a4.6,4.6,0,0,1,1.814-2.078,4.931,4.931,0,0,1,2.83-.185c3.324.443,7.989.358,11.053,1.759,2.786,1.275,4.591,4.679,7.466,5.508,2.556.738,5.557-1.592,7.8-.152,3.9,2.515.758,8.741,1.448,12.208.9,4.512,3.886,8.4,5.687,12.81.5,1.218.96,2.727.128,3.747a3.682,3.682,0,0,1-2,1.017c-2.847.752-5.8,1.527-8.808,2.261" transform="translate(-105.176 378.064)" fill="#0e1f32"/>
              <g id="Grupo_1198412" data-name="Grupo 1198412" transform="translate(57.173 745.575)" opacity="0.27">
                <g id="Grupo_1198411" data-name="Grupo 1198411">
                  <g id="Grupo_1198410" data-name="Grupo 1198410" clip-path="url(#clip-path-5)">
                    <path id="Trazado_1253857" data-name="Trazado 1253857" d="M211.065,387.329a16.709,16.709,0,0,1-3.668,4.109c-3.2,2.479-7.548,5.376-11.631,5.856a32.823,32.823,0,0,1-7.8-.327q-2.76-.335-5.52-.673c-1.486-.2-2.767.336-4.225.634a1.055,1.055,0,0,1-.746-.031.9.9,0,0,1-.309-.9,3.812,3.812,0,0,1,3.05-2.983,12.619,12.619,0,0,1,4.52.085c12.3,1.576,20.563-14.575,24.166-23.906,1.368-3.542,3.3-2.285,6.46-2.348,4.038-.083,1.877,4.624,1.261,7.2a45.358,45.358,0,0,1-4.14,10.884c-.437.813-.9,1.62-1.413,2.4" transform="translate(-177.152 -366.68)" fill="#2f5682"/>
                  </g>
                </g>
              </g>
              <path id="Trazado_1253858" data-name="Trazado 1253858" d="M56.223,370.935a4.6,4.6,0,0,0-1.68.146c-2.7.779-2.186,9.961-2.983,12.747-1.72,6.019-4.288,11.923-3.8,18.324.153,1.972.588,4.172,2.231,5.274a7.4,7.4,0,0,0,4.166.815c9.536.039,86.407,14.794,87.463,1.021.228-2.977-3.227-7.361-5.551-9.075-4.705-3.467-8.981-2.678-14.1-3.861-14.034-3.247-25.746-9.921-32.472-22.682a8.5,8.5,0,0,0-1.946-2.737,7.753,7.753,0,0,0-2.6-1.238,44.034,44.034,0,0,0-9.654-1.921,9.37,9.37,0,0,0-4.622.47,3.728,3.728,0,0,0-2.359,3.682c.065.431.218.919-.047,1.267a1.274,1.274,0,0,1-1.189.289,35.885,35.885,0,0,1-7.43-1.624,15.172,15.172,0,0,0-3.432-.9" transform="translate(219.349 379.916)" fill="#0e1f32"/>
              <g id="Grupo_1198415" data-name="Grupo 1198415" transform="translate(267.052 750.636)" opacity="0.27">
                <g id="Grupo_1198414" data-name="Grupo 1198414">
                  <g id="Grupo_1198413" data-name="Grupo 1198413" clip-path="url(#clip-path-6)">
                    <path id="Trazado_1253859" data-name="Trazado 1253859" d="M56.071,369.259a4.828,4.828,0,0,0-3.1,2.08c-1.9,2.772-.624,7.771-1.529,10.941-1.722,6.019-4.29,11.921-3.8,18.324.152,1.972.588,4.17,2.228,5.272a7.424,7.424,0,0,0,4.168.817c.11,0,.22,0,.329.006,17.472.846,34.841,4.813,52.307,6.187,8.835.7,18.591,1.743,27.35-.183,3.141-.689,11.637-3.713,5.659-7.578a11.586,11.586,0,0,0-4.734-1.391c-5.222-.742-9.821-.439-15.034-.567-13.595-.338-27.279-2.046-40.062-6.677-7.021-2.546-14.487-6.883-16.065-14.182-.636-2.948-.216-6.092-1.189-8.945a5.934,5.934,0,0,0-6.525-4.105" transform="translate(-47.577 -369.17)" fill="#2f5682"/>
                  </g>
                </g>
              </g>
              <path id="Trazado_1253860" data-name="Trazado 1253860" d="M173.636,170.2c-57.665,44.487-40.833,123.385-55.961,184.858C108.627,391.83,87,424.534,76.391,461.091,66.35,495.679,64.98,535.508,59.785,571.227a156.723,156.723,0,0,0,35.888-.8c2.981-.413,6.1-.974,8.436-2.867,3.341-2.7,4.225-7.344,4.957-11.58,8.172-47.384,26.409-89.506,43.074-134.084,21.126-56.512,42.189-113.048,63.754-169.393l14.613,2.7q.836,18.382,1.673,36.762.2,4.346.394,8.694c1.8,39.57,5.13,78.716,5.079,118.3-.067,52.105.138,103.554-6.982,155.235,17.5-2.405,34.778.872,52.411-1.694,14.64-3.042,8.021-80.273,8.471-95.728,1.055-36.319,3.1-72.666,8.928-108.57,2.414-14.872,4.827-29.749,6.47-44.725,3.074-27.988,5.411-58.559-.327-86.172-5.455-26.254-13.713-52.455-15.947-79.482-26.5,13.3-57.065,13.6-86.548,16.769-10.652,1.145-22.572,2.816-30.493-4.4" transform="translate(26.279 163.084)" fill="#2f5682"/>
              <g id="Grupo_1198418" data-name="Grupo 1198418" transform="translate(103.749 359.143)" opacity="0.31" style="mix-blend-mode: multiply;isolation: isolate">
                <g id="Grupo_1198417" data-name="Grupo 1198417">
                  <g id="Grupo_1198416" data-name="Grupo 1198416" clip-path="url(#clip-path-7)">
                    <path id="Trazado_1253861" data-name="Trazado 1253861" d="M177.242,178.715a22.133,22.133,0,0,0-8.237.86c-13.017,4.217-19.806,24.294-23.885,35.971-18.324,52.427-22.69,108.227-36.1,161.88-13.381,53.547-43,98.591-48.677,155.054C58.57,550.147,60.136,553.465,77.986,551c2.981-.413,6.1-.974,8.438-2.867,3.339-2.7,4.225-7.344,4.955-11.58,8.174-47.384,26.411-89.506,43.076-134.084,21.3-56.971,43.013-113.8,63.99-170.891-.978,2.66,22.816,4.939,24.625,4.8-2.09.157.37,50.524.693,56.111,1.155,20.055,3.158,40.093,6.171,59.956,1.982,13.32,4.37,26.63,4.784,40.091.4,13.054-1.063,26.083-2.19,39.1a760.174,760.174,0,0,0-2.617,83.126c.167,7.157-2.737,32.984,2.444,37.994,4.849,4.689,26.8,1.617,33.041.319,14.638-3.042,8.021-80.273,8.471-95.73,1.055-36.317,3.1-72.664,8.928-108.568,2.411-14.872,4.825-29.749,6.47-44.725,3.074-27.988,5.411-58.559-.327-86.172-1.932-9.3-2.765-27.179-8.1-34.936-7.389-10.738-14.406-5.085-27.927-2.519a334.385,334.385,0,0,1-40.268,5.13c-10.612.7-23.993-6.122-35.4-6.84" transform="translate(-59.786 -176.63)" fill="#2f5682"/>
                  </g>
                </g>
              </g>
              <path id="Trazado_1253862" data-name="Trazado 1253862" d="M92.194,192.555c1.147-3.975,2.3-8.013,2.306-12.151,0-5.055-1.714-9.937-3.491-14.67-6.722-17.891-14.76-35.615-18.094-54.556C69.8,93.511,66.682,78.757,86.908,73.342a143.793,143.793,0,0,1,62.418-2.5c13.684,2.464,38.34,6.313,44.2,21.274,1.456,3.715,1.56,7.806,1.5,11.8-.342,22.6-5.972,45.509-9.274,67.8-2.4,16.216,5.036,29.438,8.768,45.227a280.458,280.458,0,0,1,7.167,50.487,10.226,10.226,0,0,1-.758,5.474c-1,1.818-2.971,2.849-4.847,3.739A153.45,153.45,0,0,1,70.533,278.48c-1.606-.7-3.292-1.515-4.217-3-2.426-3.9,10.207-28.607,11.7-33.769q7.085-24.577,14.182-49.153" transform="translate(122.029 70.834)" fill="#5a9598"/>
              <g id="Grupo_1198421" data-name="Grupo 1198421" transform="translate(201.47 157.74)" opacity="0.2" style="mix-blend-mode: multiply;isolation: isolate">
                <g id="Grupo_1198420" data-name="Grupo 1198420">
                  <g id="Grupo_1198419" data-name="Grupo 1198419" clip-path="url(#clip-path-8)">
                    <path id="Trazado_1253863" data-name="Trazado 1253863" d="M83.39,183.405a90.4,90.4,0,0,0,.97-12.33c0-5.057-1.714-9.939-3.491-14.67C75.625,142.45,63.2,124.1,72.888,109.7c3.213-4.776,7.82-8.432,12.584-11.663a119.837,119.837,0,0,1,57.051-20.124c8.318-.687,16.864-.474,24.762,2.226,5.522,1.891,12.562,5.616,15.632,10.858,3.327,5.679,1.639,11.421.785,17.954-2.033,15.561-6.348,30.943-5.766,46.754.728,19.782-4.034,37.368-17.749,52.341-13.153,14.363-31.478,23.355-50.5,27.535-4.941,1.086-10.116,1.865-15.022.632-21.884-5.492-13.353-37.761-11.275-52.807" transform="translate(-69.3 -77.578)" fill="#5a9598"/>
                  </g>
                </g>
              </g>
              <path id="Trazado_1253864" data-name="Trazado 1253864" d="M92.132,60.183c1.736,6.572.433,15.065-.551,21.675A22.44,22.44,0,0,0,91.2,89c.7,3.993,4.492,6.283,8.095,7.428a20.731,20.731,0,0,0,14.007-.571c3.235-1.328,6.307-3.774,7.092-7.182a14.986,14.986,0,0,0,.2-3.912c-.325-9.2-2.141-19.758-.783-28.824-4.3,1.326-8.107,3.936-12.548,4.969-1.818.423-14.449,1.7-15.179-.907l.049.181" transform="translate(152.257 57.802)" fill="#eb9091"/>
              <g id="Grupo_1198424" data-name="Grupo 1198424" transform="translate(244.845 113.741)" opacity="0.57" style="mix-blend-mode: multiply;isolation: isolate">
                <g id="Grupo_1198423" data-name="Grupo 1198423">
                  <g id="Grupo_1198422" data-name="Grupo 1198422" clip-path="url(#clip-path-9)">
                    <path id="Trazado_1253865" data-name="Trazado 1253865" d="M96.186,60.461c-1.675-.155-3.335-.305-4.935-.372-.85-.037.988,7.389,1.36,8.1,1.69,3.237,4.176,6.261,6.216,9.292q5.383,8,10.84,15.943c2.064,3,2.267,3,5.091.793,1.879-1.47,3.52-3.137,4.073-5.547a14.985,14.985,0,0,0,.2-3.912c-.325-9.2-2.141-19.758-.783-28.824-.049.325-5.419,2.226-6.045,2.513-1.928.884-4.325,2.3-6.482,2.438a63.211,63.211,0,0,1-9.538-.429" transform="translate(-91.03 -55.939)" fill="#eb9091"/>
                  </g>
                </g>
              </g>
              <path id="Trazado_1253866" data-name="Trazado 1253866" d="M75.11,1.516A30.162,30.162,0,0,1,89.042.288C99.784,1.581,111.479,9.881,115.831,19.9c3.485,8.03,2.412,18.239-3.764,24.444,6.234,3.046,12.206,7.1,16,12.905s5.055,13.621,1.812,19.754c-2.562,4.841-7.519,8.025-12.7,9.794,5.3.521,9.209,5.547,10.433,10.732,2.493,10.565-4.8,22.45-15.345,25.014,3.28-.8,4.083,9.331,4,10.84-.232,3.93-1.318,7.291-5.114,9.266a5.035,5.035,0,0,0-1.946,1.326c-1.35,1.919,1.269,4.189,3.528,4.827,4.235,1.2,8.713,1.265,13,2.253s8.664,3.192,10.553,7.167a59.514,59.514,0,0,0-10.89-1.834,22.332,22.332,0,0,1,3.129,16.775c-.108.5-.4,1.118-.909,1.041a1.048,1.048,0,0,1-.612-.486q-3.581-4.767-7.157-9.538c-.618,2.507-1.277,5.1-2.883,7.121s-4.443,3.306-6.828,2.32a7.363,7.363,0,0,1-2.536-1.954,21.178,21.178,0,0,1-1.192-26.295c-6.189,1.856-12.289-3.3-15.744-8.762-2.123-3.355-3.835-7.533-2.336-11.208,1.2-2.94,4.122-4.738,6.864-6.334a13.6,13.6,0,0,1-9.406-24.749c-9.028-.189-16.573-6.991-21.76-14.384A31.032,31.032,0,0,1,58.8,69.25a14.745,14.745,0,0,1,1.74-11.506A11.246,11.246,0,0,1,50.009,49.95c-1.635-5.455,1.092-10.258,2.958-15.179,1.765-4.648,2.867-9.5,4.819-14.1,3.453-8.133,8.64-16.043,17.324-19.154" transform="translate(221.023 0)" fill="#101f37"/>
              <g id="Grupo_1198427" data-name="Grupo 1198427" transform="translate(270.53)" style="mix-blend-mode: multiply;isolation: isolate">
                <g id="Grupo_1198426" data-name="Grupo 1198426">
                  <g id="Grupo_1198425" data-name="Grupo 1198425" clip-path="url(#clip-path-10)">
                    <path id="Trazado_1253867" data-name="Trazado 1253867" d="M92.637.288c6.3.758,17.928,4.953,20.445,11.635a46.149,46.149,0,0,0-16.62-4.136,26.945,26.945,0,0,1,13.814,18.031,26.944,26.944,0,0,1-5.187,22.116c8.178,3.194,15.126,10.522,15.966,19.262s-5.888,18.064-14.662,18.377a13.588,13.588,0,0,1,8.556,7.729c.844,1.982,1.586,9.695-1.289,10.831a13.8,13.8,0,0,0,6.271-5,17.051,17.051,0,0,1-14.339,21.394c3.42,2.8,6.539,6.2,7.995,10.374s.945,9.245-2.137,12.415q-.778-.555-1.558-1.108a16.533,16.533,0,0,1,.1,7.279c5.358,1.832,10.652,4.158,14.955,7.838A23.266,23.266,0,0,1,131.6,166.4c.293.75,2.251,8.213-.386,7.808a1.056,1.056,0,0,1-.612-.486l-7.159-9.538c-.616,2.507-1.275,5.1-2.881,7.119s-4.443,3.306-6.83,2.322a7.4,7.4,0,0,1-2.534-1.954,21.176,21.176,0,0,1-1.192-26.295c-6.189,1.856-12.289-3.3-15.744-8.762-2.123-3.355-3.835-7.533-2.336-11.21,1.2-2.938,4.122-4.736,6.864-6.334a13.6,13.6,0,0,1-9.406-24.749c-9.028-.187-16.576-6.988-21.76-14.382A31.032,31.032,0,0,1,62.4,69.25a14.745,14.745,0,0,1,1.74-11.506A11.246,11.246,0,0,1,53.6,49.95c-1.635-5.455,1.09-10.258,2.958-15.179,1.765-4.648,2.867-9.5,4.819-14.1,3.451-8.133,8.637-16.045,17.324-19.154A30.159,30.159,0,0,1,92.637.288" transform="translate(-53.102 0)" fill="#101f37"/>
                  </g>
                </g>
              </g>
              <path id="Trazado_1253868" data-name="Trazado 1253868" d="M143.871,83.371A45.844,45.844,0,0,1,132.832,101,44.479,44.479,0,0,1,115.2,112.166c-6.927,2.253-13.072,1.521-20.063.325-13.448-2.3-23.131-18.066-23.763-30.9-.281-5.671.819-11.277,1.051-16.929.224-5.425-.744-10.419-1.525-15.742-2.326-15.86,3.991-31.571,19.41-37.578,19.546-7.613,45.424-2.639,57.331,15.445,5.014,7.615,6.039,15.463,6.785,24.263,2.273-.872,4.221-3.229,7.043-2,2.076.9,3.021,3.32,3.383,5.555a20.754,20.754,0,0,1-6.175,18.119,11.01,11.01,0,0,1-4.929,2.893,5.809,5.809,0,0,1-5.38-1.316c-1.661,3.068-3.412,5.773-4.5,9.064" transform="translate(149.659 8.169)" fill="#eb9091"/>
              <g id="Grupo_1198430" data-name="Grupo 1198430" transform="translate(232.995 19.463)" opacity="0.29" style="mix-blend-mode: multiply;isolation: isolate">
                <g id="Grupo_1198429" data-name="Grupo 1198429">
                  <g id="Grupo_1198428" data-name="Grupo 1198428" clip-path="url(#clip-path-11)">
                    <path id="Trazado_1253869" data-name="Trazado 1253869" d="M130.971,81.649a45.844,45.844,0,0,1-11.039,17.625A44.479,44.479,0,0,1,102.3,110.445c-6.927,2.253-13.072,1.521-20.063.325-4.378-.748-10.5-2.969-11.805-7.487,22.458,7.21,42.7-14.506,46.923-34.847,2.668-12.828.756-26.429.4-39.336-.2-7.326-1.436-15.833-7.775-19.512,10.008-.433,19.414,7.357,24.762,15.48,5.014,7.615,6.039,15.463,6.785,24.263,2.273-.872,4.221-3.229,7.043-2,2.076.9,3.021,3.32,3.383,5.555a20.754,20.754,0,0,1-6.175,18.119,11.01,11.01,0,0,1-4.929,2.893,5.809,5.809,0,0,1-5.38-1.316c-1.661,3.068-3.412,5.773-4.5,9.064" transform="translate(-70.435 -9.572)" fill="#eb9091"/>
                  </g>
                </g>
              </g>
              <g id="Grupo_1198433" data-name="Grupo 1198433" transform="translate(299.003 60.44)" style="mix-blend-mode: multiply;isolation: isolate">
                <g id="Grupo_1198432" data-name="Grupo 1198432">
                  <g id="Grupo_1198431" data-name="Grupo 1198431" clip-path="url(#clip-path-12)">
                    <path id="Trazado_1253870" data-name="Trazado 1253870" d="M83.848,29.725A68.2,68.2,0,0,0,72.7,41.766l3.1-1.035c2.761-.858,6.041,1.112,6.848,4.054a5.225,5.225,0,0,0-2.013-4.725,5.931,5.931,0,0,0-5.425-1.222l1.057,1.58a59.7,59.7,0,0,0,7.576-10.693" transform="translate(-72.704 -29.725)" fill="#eb9091"/>
                  </g>
                </g>
              </g>
              <path id="Trazado_1253871" data-name="Trazado 1253871" d="M94.011,36.344c0,2.281,1.3,4.132,2.908,4.132s2.908-1.85,2.908-4.132-1.3-4.132-2.908-4.132-2.908,1.85-2.908,4.132" transform="translate(166.994 33.285)"/>
              <path id="Trazado_1253872" data-name="Trazado 1253872" d="M109.784,35.325c0,2.062,1.039,3.733,2.32,3.733s2.32-1.671,2.32-3.733-1.039-3.733-2.32-3.733-2.32,1.671-2.32,3.733" transform="translate(120.325 32.644)"/>
              <g id="Grupo_1198436" data-name="Grupo 1198436" transform="translate(233.863 57.13)" style="mix-blend-mode: multiply;isolation: isolate">
                <g id="Grupo_1198435" data-name="Grupo 1198435">
                  <g id="Grupo_1198434" data-name="Grupo 1198434" clip-path="url(#clip-path-13)">
                    <path id="Trazado_1253873" data-name="Trazado 1253873" d="M113.291,28.1A43.438,43.438,0,0,1,108.5,51.012c-1.017,2.1-3.2,3.526-4.923,5.283-1.545,1.372-.838,3.125.765,3.709a16.989,16.989,0,0,0,13.623-.99c-4.339,1.25-9.794,1.328-13.491-1,1.743-1.724,4.475-3.414,5.8-6C114,44.679,115.5,36.031,113.291,28.1" transform="translate(-102.722 -28.097)" fill="#eb9091"/>
                  </g>
                </g>
              </g>
              <path id="Trazado_1253876" data-name="Trazado 1253876" d="M111.594,35.485c1.818-4.4-3.2-7.4-6.883-7.781-5.606-1.086-11.915-.071-15.972,4.311a74.892,74.892,0,0,0,15.5,1.442c1.381,0,3.688-.323,4.984.138a5.821,5.821,0,0,1,2.373,1.891" transform="translate(165.56 28.212)" fill="#101f37"/>
              <path id="Trazado_1253877" data-name="Trazado 1253877" d="M124.159,30.709c-.821-13.641-19.381-12.025-15.9,2.039,2.292-1.3,3.215-4.176,5.775-5.055,3.357-1.348,6.533,1.629,10.126,3.015" transform="translate(114.576 22.003)" fill="#101f37"/>
              <path id="Trazado_1253878" data-name="Trazado 1253878" d="M158.437,71.61a38.231,38.231,0,0,0-2.21,16.092c.655,6.513,3.473,12.8,3.062,19.337a20.449,20.449,0,0,1-17.261,18.412,25.756,25.756,0,0,0,10.833-24.467,14,14,0,0,1-6.47,10.762A18.412,18.412,0,0,0,150.667,95.6c-.852-3.8-2.908-7.232-3.983-10.978-2.908-10.124,2.552-22.015,9.959-28.863-19.739,4.677-38.458-10.364-43.438-29.088q-1.446,3.562-2.9,7.125a2.809,2.809,0,0,1-.964,1.427c-1.425.887-2.922-1.165-3.1-2.838a11.759,11.759,0,0,1,.773-5.524A26.865,26.865,0,0,0,82.169,52.684c-.222,4.888.937,9.172,1.179,14,.549,10.886-3.735,21.84-.974,32.647.836,3.278,2.324,6.372,3.046,9.681s.543,7.066-1.623,9.67c1.285-3.644.248-7.7-1.314-11.23s-3.664-6.862-4.622-10.6c-2.45-9.573,2.95-19.272,3.886-29.109a13.54,13.54,0,0,0-.638-6.452c-.917-2.194-2.875-3.544-3.68-5.848a22.268,22.268,0,0,1,1.549-17.981c-2.834-.2-4.736-3.164-5.1-5.982-.661-5.189,2.405-10.352,6.708-13.332a24.761,24.761,0,0,1,10.738-3.985c1.009-.132,8.328.254,8.707-.4,4.707-8.048,14.7-11.667,24.024-11.7,22.33-.089,41.5,17.527,44.519,39.367.97,7.021-3.371,14.882-6.324,21.026a81.872,81.872,0,0,0-3.819,9.156" transform="translate(139.211 2.129)" fill="#101f37"/>
              <g id="Grupo_1198439" data-name="Grupo 1198439" transform="translate(256.273 78.966)" opacity="0.37" style="mix-blend-mode: multiply;isolation: isolate">
                <g id="Grupo_1198438" data-name="Grupo 1198438">
                  <g id="Grupo_1198437" data-name="Grupo 1198437" clip-path="url(#clip-path-14)">
                    <path id="Trazado_1253879" data-name="Trazado 1253879" d="M107.313,39.783c1.657.551,3.387,1.592,3.762,3.3a5.079,5.079,0,0,1-1.4,4.093,14.171,14.171,0,0,1-20.425,1.68,4.78,4.78,0,0,1-1.454-1.932c-.6-1.753.6-3.625,2.021-4.821,4.213-3.55,12.426-4.006,17.5-2.316" transform="translate(-87.634 -38.836)" fill="#eb9091"/>
                  </g>
                </g>
              </g>
              <g id="Grupo_1198442" data-name="Grupo 1198442" transform="translate(222.716 75.312)" opacity="0.37" style="mix-blend-mode: multiply;isolation: isolate">
                <g id="Grupo_1198441" data-name="Grupo 1198441">
                  <g id="Grupo_1198440" data-name="Grupo 1198440" clip-path="url(#clip-path-15)">
                    <path id="Trazado_1253880" data-name="Trazado 1253880" d="M117.881,38.88A7.534,7.534,0,0,1,121.3,43.11a4.854,4.854,0,0,1-1.45,5.047,5.071,5.071,0,0,1-5.7.014,9.237,9.237,0,0,1-3.5-4.843,6.753,6.753,0,0,1-.352-4.13c1.133-3.784,5.3-1.728,7.584-.317" transform="translate(-110.103 -37.038)" fill="#eb9091"/>
                  </g>
                </g>
              </g>
              <path id="Trazado_1253881" data-name="Trazado 1253881" d="M106.49,289.274c-.161-.112-.319-.222-.48-.335,9.746-21.59,20.54-42.563,31.132-63.746,5.3-10.472,10.6-20.949,15.229-31.734,7.485-17.428-4.953-31.136-9.13-48.6A198.335,198.335,0,0,1,138.2,85.933c.167-2.538.4-5.159,1.627-7.387,2.131-3.89,6.686-5.683,10.947-6.909a106.858,106.858,0,0,1,32.9-4.107c-4.829,17.364-5.6,34.275-6.645,52.1-.872,14.955-3.961,28.562-.636,43.867,10.215,47.024,8.286,101.932-2.043,149.159a132.823,132.823,0,0,1-67.86-23.377" transform="translate(58.749 69.723)" fill="#3f6c9e"/>
              <g id="Grupo_1198445" data-name="Grupo 1198445" transform="translate(183.364 137.252)" opacity="0.47" style="mix-blend-mode: multiply;isolation: isolate">
                <g id="Grupo_1198444" data-name="Grupo 1198444">
                  <g id="Grupo_1198443" data-name="Grupo 1198443" clip-path="url(#clip-path-16)">
                    <path id="Trazado_1253882" data-name="Trazado 1253882" d="M106.1,291.595c-.567-4.746,1.706-10.11,2.956-14.524q3.538-12.493,7.564-24.837,8.241-25.22,18.538-49.7c1.974-4.695,4.022-9.42,4.9-14.439.95-5.449.48-11.037.008-16.549q-3-35.014-6.006-70.025c-.663-7.751-5.258-25.429-.055-30.445,3.335-3.217,30.666-2.123,31.071-3.573-4.831,17.364-5.606,34.275-6.647,52.1-.872,14.955-3.961,28.564-.636,43.867,5.2,23.926,7.086,48.539,6.708,72.992-.362,23.458-1.562,48.722-8.406,71.278a4.6,4.6,0,0,1-1.785,2.906,4.436,4.436,0,0,1-2.475.309c-10.958-.8-21.577-4.054-31.966-7.629-4.168-1.434-8.505-3.046-11.415-6.356a9.632,9.632,0,0,1-2.351-5.368" transform="translate(-106.009 -67.502)" fill="#3f6c9e"/>
                  </g>
                </g>
              </g>
              <path id="Trazado_1253883" data-name="Trazado 1253883" d="M106.065,314.1A87.084,87.084,0,0,0,134,300.688c1.74-23.853-7.786-46.4-15.358-68.494-6.635-19.353-15.354-41.689-13.912-62.138,1.086-15.4,3.611-30.683,5.252-46.028,1-9.325-3.819-31.652,9.491-33.175-5.976.683-16.071-9.7-21.122-12.438C88.306,72.972,76.161,67.5,64.52,67.938a84.468,84.468,0,0,0-10.337,34.438,146.766,146.766,0,0,0-.126,16.108c1.525,45.331,12.763,89.457,13.355,134.556a354.777,354.777,0,0,0,5.213,56.1c.38,2.186.858,4.52,2.452,6.063,1.842,1.785,4.654,2.023,7.22,2.043a86.523,86.523,0,0,0,23.767-3.15" transform="translate(214.173 70.175)" fill="#3f6c9e"/>
              <g id="Grupo_1198448" data-name="Grupo 1198448" transform="translate(275.124 147.504)" opacity="0.47" style="mix-blend-mode: multiply;isolation: isolate">
                <g id="Grupo_1198447" data-name="Grupo 1198447">
                  <g id="Grupo_1198446" data-name="Grupo 1198446" clip-path="url(#clip-path-17)">
                    <path id="Trazado_1253884" data-name="Trazado 1253884" d="M98.059,306.709a151.077,151.077,0,0,0,18.778-9.221c3.709-2.072,7.661-4.475,9.189-8.438,3.158-8.2-1.5-22.128-3.772-30.107-3.036-10.673-7-21.047-10.6-31.535-6.635-19.353-15.351-41.687-13.912-62.136,1.086-15.4,3.611-30.685,5.254-46.03.628-5.888-.392-11.856.01-17.763.561-8.2,1.35-9.4-5.909-14.367A85.513,85.513,0,0,0,56.52,72.562c-6.712-.586,1.824,13.841,2.623,14.9q8.93,11.864,17.9,23.7l-13.926,8.227a9.276,9.276,0,0,0-3.211,2.621c-2.058,3.119.329,7.369,3.365,9.546s6.814,3.446,9.164,6.35c3.347,4.14,2.716,10.1,1.909,15.366q-5.908,38.512-11.814,77.02c-2.131,13.89-2.131,28.039-1.053,42.022.541,7.043,1.375,14.062,2.4,21.051.783,5.348.445,13.078,5.882,16.022a17.347,17.347,0,0,0,8.757,1.6,58.3,58.3,0,0,0,19.548-4.28" transform="translate(-53.963 -72.544)" fill="#3f6c9e"/>
                  </g>
                </g>
              </g>
              <path id="Trazado_1253885" data-name="Trazado 1253885" d="M243.842,108.623c-3.493-5.669-6.189-11.885-11.472-15.854-4.512-3.383-9.961-5.25-15.362-6.873-9.2-2.771-18.682-5.022-28.291-4.925-1.95.022-4.341.453-4.957,2.3-.521,1.56.677,3.261,2.178,3.932a12.129,12.129,0,0,0,4.855.618,40.622,40.622,0,0,1,21.356,6.4c-4.233,1.649-6.962,5.97-7.926,10.411s-.449,9.054.071,13.568c.35,3.046,1.352,6.82,4.374,7.326,1.568.262,3.18-.535,4.738-.22,2.808.569,3.774,4.185,6.183,5.734,2.322,1.5,5.348.752,8.109.746,11.208-.014,21.425,20.154,31.962,13.794,2.93-1.771,4.841-4.79,6.645-7.7,1.151-1.858,2.35-4.008,1.763-6.118-.451-1.616-1.852-2.763-3.176-3.8q-7-5.472-13.991-10.945a30.786,30.786,0,0,1-7.058-8.4" transform="translate(-183.636 83.666)" fill="#eb9091"/>
              <g id="Grupo_1198451" data-name="Grupo 1198451" transform="translate(26.636 175.879)" style="mix-blend-mode: multiply;isolation: isolate">
                <g id="Grupo_1198450" data-name="Grupo 1198450">
                  <g id="Grupo_1198449" data-name="Grupo 1198449" clip-path="url(#clip-path-18)">
                    <path id="Trazado_1253886" data-name="Trazado 1253886" d="M224.662,92.193c-2.078-.819-3.512-2.523-5.27-3.9-3.07-2.578-7.178-2.6-9.04,1.362a31.591,31.591,0,0,1-7.422,10.431c-3.928,3.082-4.345,7.993,1.586,8.314,5.045.063,8.558-3.9,11.435-7.387l-1.515-1.135c-2.845,4.156-5.321,9.317-4.185,14.518.681,5.169,6.966,9.374,11.639,6.293-4.7,2.312-9.925-1.708-10.4-6.519-.748-4.856,1.777-9.349,4.51-13.219l-1.515-1.135c-2.56,2.965-5.787,6.6-9.882,6.568-6.224-.411.3-5.309,1.934-7.4a27.168,27.168,0,0,0,3.662-5.7c1.008-2.017,1.521-4.272,3.143-5.3,4.111-2.143,7.517,3.292,11.324,4.2" transform="translate(-200.013 -86.499)" fill="#eb9091"/>
                  </g>
                </g>
              </g>
              <path id="Trazado_1253887" data-name="Trazado 1253887" d="M157.578,181.152c12.088,8.477,24.719,16.118,38.493,21.793,7.3,3.005,15.1,5.579,22.938,4.709,23.973-2.481,29.977-31.457,44.725-45.658a12.542,12.542,0,0,0,3.43-4.309,11.247,11.247,0,0,0,.466-4.034c-.152-23.649-2.572-56.493,7.165-78.3-1.118-2.357-4.6-1.989-6.978-.925-12.438,5.557-19.243,18.806-25.105,31.1-8.131,17.055-15.327,40.078-31.913,51.136-9.658,7.468-18.4-.956-26.716-6.921q-17.238-12.368-34.475-24.737A153.086,153.086,0,0,0,126.133,153.7a3.526,3.526,0,0,0-.736,1.948,3.586,3.586,0,0,0,1.708,2.407c10.012,7.842,20.04,15.783,30.473,23.1" transform="translate(-71.786 76.055)" fill="#305685"/>
              <g id="Grupo_1198454" data-name="Grupo 1198454" transform="translate(53.61 161.024)" opacity="0.47" style="mix-blend-mode: multiply;isolation: isolate">
                <g id="Grupo_1198453" data-name="Grupo 1198453">
                  <g id="Grupo_1198452" data-name="Grupo 1198452" clip-path="url(#clip-path-19)">
                    <path id="Trazado_1253888" data-name="Trazado 1253888" d="M159.076,175.377c12.088,8.477,24.719,16.118,38.493,21.793,7.3,3.005,15.1,5.579,22.938,4.709,23.973-2.481,29.977-31.457,44.725-45.658a12.542,12.542,0,0,0,3.43-4.309,11.246,11.246,0,0,0,.466-4.034c-.142-21.982,6.37-47.287,3.292-68.677-3.45-.157-5.939,1.976-7.836,5.2-12.243,20.782-21.138,43.673-36.441,62.475-4.311,5.3-9.142,10.421-15.311,13.349-21.451,10.185-42.094-13.517-57.8-25.075-13.235-9.737-20.913,2.531-27.4,12.775a3.526,3.526,0,0,0-.736,1.948,3.586,3.586,0,0,0,1.708,2.407c10.012,7.842,20.04,15.783,30.473,23.1" transform="translate(-126.895 -79.193)" fill="#3f6c9e"/>
                  </g>
                </g>
              </g>
              <path id="Trazado_1253889" data-name="Trazado 1253889" d="M56.013,84.215A93.126,93.126,0,0,1,70.14,99.262q14.042,18.779,27.7,37.84c7.476,10.435,31.785,33.535,20.071,47.579-3.518,4.219-9.16,6.206-14.611,6.187-15.783-.053-33.966-22.423-44.19-33.32C48.3,146.028,30.851,131.01,29.7,114.434a92.2,92.2,0,0,1,3.514-32.3c1-3.4,2.806-7.277,6.309-7.808,2.336-.354,4.569.974,6.523,2.3a112.164,112.164,0,0,1,9.963,7.58" transform="translate(276.97 76.747)" fill="#305685"/>
              <g id="Grupo_1198457" data-name="Grupo 1198457" transform="translate(306.279 158.565)" opacity="0.33" style="mix-blend-mode: multiply;isolation: isolate">
                <g id="Grupo_1198456" data-name="Grupo 1198456">
                  <g id="Grupo_1198455" data-name="Grupo 1198455" clip-path="url(#clip-path-20)">
                    <path id="Trazado_1253890" data-name="Trazado 1253890" d="M54.066,88.49c9.845,9.63,18.251,20.6,27.525,30.868,12.454,13.784,23.594,28.973,30.768,46.213,6.683,16.067,4.022,28-14.654,18.3-13.3-6.907-22.993-19.432-33.055-30.158C53.839,142.194,36.389,127.176,35.242,110.6c-.61-8.8-1.189-23.519,3.821-31.162a2.839,2.839,0,0,1,1.7-1.429,3.04,3.04,0,0,1,2.22.866A114.676,114.676,0,0,1,54.066,88.49" transform="translate(-34.848 -77.984)" fill="#305685"/>
                  </g>
                </g>
              </g>
              <path id="Trazado_1253891" data-name="Trazado 1253891" d="M54.774,105.341a57.679,57.679,0,0,0-11.883-3.971c-4.067-.844-8.857.283-11.077,3.794a15.328,15.328,0,0,0-1.779,5.675q-1.028,5.865-2.056,11.728c-1.126,6.429-2.131,13.546,1.348,19.068,2.322,3.686,6.263,5.988,10.093,8.062,12.273,6.905,24.255,10.409,36.248,18.336,7.1,4.693,14.329,9.449,22.484,11.868,9.981,2.963,21.466,1.98,29.831-4.219s12.659-18.064,8.625-27.663c-3.04-7.228-10.014-12.121-17.316-14.979s-15.134-4.063-22.661-6.265c-15.1-4.418-27.783-15.118-41.858-21.435" transform="translate(265.09 104.47)" fill="#305685"/>
              <g id="Grupo_1198460" data-name="Grupo 1198460" transform="translate(292.014 209.51)" opacity="0.31" style="mix-blend-mode: multiply;isolation: isolate">
                <g id="Grupo_1198459" data-name="Grupo 1198459">
                  <g id="Grupo_1198458" data-name="Grupo 1198458" clip-path="url(#clip-path-21)">
                    <path id="Trazado_1253892" data-name="Trazado 1253892" d="M53.678,107.624a38.127,38.127,0,0,0-5.463-2.706c-15.449-6.043-16.608,3.381-18.757,15.65-1.126,6.429-2.131,13.544,1.348,19.066,2.32,3.686,6.263,5.988,10.091,8.064,12.273,6.9,24.257,10.408,36.248,18.336,7.1,4.693,14.329,9.449,22.486,11.868,9.982,2.96,21.466,1.98,29.829-4.221,14.221-10.539,4.912-27.46-7.759-34.843-8.5-4.947-18.324-6.95-27.675-9.992A126.448,126.448,0,0,1,62.8,113.671c-3.026-2.027-5.992-4.2-9.125-6.047" transform="translate(-28.4 -103.039)" fill="#2f5682"/>
                  </g>
                </g>
              </g>
              <path id="Trazado_1253893" data-name="Trazado 1253893" d="M213.845,180.591,172.619,72.96a14.193,14.193,0,0,0-18.334-8.178l-60.06,23a14.2,14.2,0,0,0-8.18,18.336L127.27,213.75a14.2,14.2,0,0,0,18.336,8.18l60.058-23a14.2,14.2,0,0,0,8.18-18.334" transform="translate(70.147 65.964)" fill="#04242b"/>
              <path id="Trazado_1253894" data-name="Trazado 1253894" d="M210.833,178.151,171.641,75.829a16.09,16.09,0,0,0-20.78-9.27L97.043,87.171a16.091,16.091,0,0,0-9.27,20.78l39.192,102.322a16.089,16.089,0,0,0,20.78,9.272l53.818-20.614a16.09,16.09,0,0,0,9.27-20.78" transform="translate(69.776 67.672)" fill="#095466"/>
              <path id="Trazado_1253895" data-name="Trazado 1253895" d="M202.293,169.233,167.461,78.291a15.236,15.236,0,0,0-19.678-8.778l-48,18.385A15.237,15.237,0,0,0,91,107.579l34.833,90.94a15.237,15.237,0,0,0,19.678,8.78l48-18.387a15.237,15.237,0,0,0,8.78-19.678" transform="translate(71.697 70.783)" fill="#c7e0ff"/>
              <path id="Trazado_1253896" data-name="Trazado 1253896" d="M107.384,137.29a2.19,2.19,0,1,0-2.942-1.214,2.252,2.252,0,0,0,2.942,1.214" transform="translate(136.991 137.477)" fill="#727272"/>
              <g id="Grupo_1198463" data-name="Grupo 1198463" transform="translate(160.143 138.698)" style="mix-blend-mode: multiply;isolation: isolate">
                <g id="Grupo_1198462" data-name="Grupo 1198462">
                  <g id="Grupo_1198461" data-name="Grupo 1198461" clip-path="url(#clip-path-22)">
                    <path id="Trazado_1253897" data-name="Trazado 1253897" d="M154.955,177.918c-.191-5.445-1.017-11-1.181-16.413a66.745,66.745,0,0,1,11.332-38.757c4.675-7,10.63-13.17,15.268-20.187,4.76-7.2,8.3-15.677,5.64-23.71-2.353-7.094-8.883-12.944-17.261-9.735l-53.3,20.414c-6.4,2.45-9.707,9.335-7.393,15.378q7.719,20.148,15.435,40.294,5.941,15.512,11.881,31.02c1.61,4.2,6.683,25.087,13,22.037a9.03,9.03,0,0,0,3.882-4.441c2.43-5.034,2.883-10.415,2.692-15.9" transform="translate(-107.327 -68.212)" fill="#c7e0ff"/>
                  </g>
                </g>
              </g>
              <path id="Trazado_1253901" data-name="Trazado 1253901" d="M117.346,101.9a10.584,10.584,0,0,0-1.891-1.948c-2.784-2.178-6.486-2.5-9.5-4.239a61.65,61.65,0,0,0-9.036-4.646C89.841,88.4,81.7,87.764,74.805,90.881a6.429,6.429,0,0,0-3.07,2.391c-2,3.469,2.747,5.106,5.319,4.988,1.822-.081,3.6-.575,5.425-.691a19.367,19.367,0,0,1,3.772.185,36.5,36.5,0,0,1,10.51,3.066c1.952.907,5.429,4.292,7.5,4.351-9.032-.264-17.135-.248-24.928,4.947-5.508,4.122-8.9,11.474-7.025,18.09.268.945,1.346,2.037,2.009,1.316a14.265,14.265,0,0,0-2.444,4.284,4.833,4.833,0,0,0,.842,4.66c1.143,1.2,3.377,1.318,4.353-.016A4.213,4.213,0,0,0,76,142.785a3.179,3.179,0,0,0,3.8,1.924,5.368,5.368,0,0,0,1.867-1.346q4.712-4.572,9.152-9.408c3.448-1.094,12.761-.734,15.193-.679,1.4,4.644,3.642,9.152,7.216,12.428s8.621,5.169,13.367,4.176a8.879,8.879,0,0,1,2.637-.37c2.009.2,3.43,2.18,5.4,2.615a5.027,5.027,0,0,0,4.685-1.873,14.058,14.058,0,0,0,2.357-4.711c1.34-3.869,2.572-7.883,2.369-11.972a3.192,3.192,0,0,0-.4-1.61,3.617,3.617,0,0,0-1.48-1.092c-9.916-5.053-16.874-13.918-21.825-23.686a33.874,33.874,0,0,0-3-5.276" transform="translate(169.019 91.751)" fill="#eb9091"/>
              <g id="Grupo_1198466" data-name="Grupo 1198466" transform="translate(245.274 204.762)" style="mix-blend-mode: multiply;isolation: isolate">
                <g id="Grupo_1198465" data-name="Grupo 1198465">
                  <g id="Grupo_1198464" data-name="Grupo 1198464" clip-path="url(#clip-path-23)">
                    <path id="Trazado_1253902" data-name="Trazado 1253902" d="M89.643,116.846a26.835,26.835,0,0,1,30.428-13.865c-11.384-6.3-27.7,1.151-30.428,13.865" transform="translate(-89.643 -100.704)" fill="#eb9091"/>
                  </g>
                </g>
              </g>
              <g id="Grupo_1198469" data-name="Grupo 1198469" transform="translate(246.392 214.65)" style="mix-blend-mode: multiply;isolation: isolate">
                <g id="Grupo_1198468" data-name="Grupo 1198468">
                  <g id="Grupo_1198467" data-name="Grupo 1198467" clip-path="url(#clip-path-24)">
                    <path id="Trazado_1253903" data-name="Trazado 1253903" d="M89.685,117.639c7.363-8.507,18.251-11.606,29.225-10.384-10.3-4.347-24.373-.089-29.225,10.384" transform="translate(-89.685 -105.567)" fill="#eb9091"/>
                  </g>
                </g>
              </g>
            </g>
          </g>
        </g>
        <g id="Grupo_1198474" data-name="Grupo 1198474" transform="translate(234.341 96.871)">
          <path id="Trazado_1253904" data-name="Trazado 1253904" d="M46.127,21.069s15.056,6.958,24.448-3.663" transform="translate(-46.127 -15.682)" fill="none" stroke="#d85153" stroke-miterlimit="10" stroke-width="1"/>
          <path id="Trazado_1253905" data-name="Trazado 1253905" d="M51.851,21.63a8.433,8.433,0,0,0-6.32-4.673" transform="translate(-25.115 -16.957)" fill="none" stroke="#d85153" stroke-miterlimit="10" stroke-width="1"/>
        </g>
      </g>
    </g>
  </g>
</svg>
