<svg xmlns="http://www.w3.org/2000/svg" xmlns:xlink="http://www.w3.org/1999/xlink" width="253.172" height="238.89" viewBox="0 0 253.172 238.89">
  <defs>
    <filter id="Trazado_1034908" x="82.867" y="0" width="170.305" height="170.305" filterUnits="userSpaceOnUse">
      <feOffset dy="3" input="SourceAlpha"/>
      <feGaussianBlur stdDeviation="3" result="blur"/>
      <feFlood flood-opacity="0.161"/>
      <feComposite operator="in" in2="blur"/>
      <feComposite in="SourceGraphic"/>
    </filter>
    <filter id="Trazado_1034909" x="0" y="118.028" width="120.862" height="120.862" filterUnits="userSpaceOnUse">
      <feOffset dy="3" input="SourceAlpha"/>
      <feGaussianBlur stdDeviation="3" result="blur-2"/>
      <feFlood flood-opacity="0.161"/>
      <feComposite operator="in" in2="blur-2"/>
      <feComposite in="SourceGraphic"/>
    </filter>
  </defs>
  <g id="Grupo_1198594" data-name="Grupo 1198594" transform="translate(-1107.542 -5591.516)">
    <g id="Grupo_1112113" data-name="Grupo 1112113" transform="translate(1095.901 5562.889)">
      <g id="Grupo_1112109" data-name="Grupo 1112109" transform="translate(20.641 34.415)">
        <g id="Grupo_1112092" data-name="Grupo 1112092" transform="translate(0 0.212)">
          <g transform="matrix(1, 0, 0, 1, -9, -6)" filter="url(#Trazado_1034908)">
            <path id="Trazado_1034908-2" data-name="Trazado 1034908" d="M213.63,76.151A76.152,76.152,0,1,1,137.477,0,76.153,76.153,0,0,1,213.63,76.151" transform="translate(30.54 6)" fill="#f7f4f3"/>
          </g>
          <g transform="matrix(1, 0, 0, 1, -9, -6)" filter="url(#Trazado_1034909)">
            <path id="Trazado_1034909-2" data-name="Trazado 1034909" d="M164.187,51.43A51.431,51.431,0,1,1,112.756,0,51.431,51.431,0,0,1,164.187,51.43" transform="translate(-52.32 124.03)" fill="#f7f4f3"/>
          </g>
        </g>
        <g id="Grupo_1112093" data-name="Grupo 1112093" transform="translate(16.611)">
          <g id="Elipse_12265" data-name="Elipse 12265" transform="translate(12.898 -1.304)" fill="none" stroke="#f7f4f3" stroke-width="3">
            <circle cx="9" cy="9" r="9" stroke="none"/>
            <circle cx="9" cy="9" r="7.5" fill="none"/>
          </g>
          <g id="Elipse_12266" data-name="Elipse 12266" transform="translate(3.898 183.696)" fill="none" stroke="#e2e2e2" stroke-width="3">
            <circle cx="9" cy="9" r="9" stroke="none"/>
            <circle cx="9" cy="9" r="7.5" fill="none"/>
          </g>
          <g id="Elipse_12268" data-name="Elipse 12268" transform="translate(192.898 175.696)" fill="none" stroke="#f7f4f3" stroke-width="3">
            <circle cx="9" cy="9" r="9" stroke="none"/>
            <circle cx="9" cy="9" r="7.5" fill="none"/>
          </g>
          <g id="Elipse_12267" data-name="Elipse 12267" transform="translate(174.898 53.696)" fill="none" stroke="#e2e2e2" stroke-width="3">
            <circle cx="9" cy="9" r="9" stroke="none"/>
            <circle cx="9" cy="9" r="7.5" fill="none"/>
          </g>
        </g>
      </g>
    </g>
    <g id="no-fight_6306269" transform="translate(1157.626 5638.771)">
      <g id="Grupo_1198592" data-name="Grupo 1198592" transform="translate(2.122 2.126)">
        <path id="Trazado_1254180" data-name="Trazado 1254180" d="M159.706,201.828h18.063v24.365H159.706Z" transform="translate(-116.644 -146.85)" fill="#ebae9d"/>
        <path id="Trazado_1254181" data-name="Trazado 1254181" d="M119.748,175.906s4.693-5.65,1.23-11.315a10.038,10.038,0,0,0-3.191-.474h-16.66c-5.474,0-7.817,3.391-7.817,7.573a10.218,10.218,0,0,0,.1,1.441l3.213,2.775Z" transform="translate(-69.033 -119.808)" fill="#ebae9d"/>
        <path id="Trazado_1254182" data-name="Trazado 1254182" d="M121.232,165.791a10.215,10.215,0,0,1,.1,1.441c0,4.182-1.253,7.573-6.728,7.573H96.855a10.038,10.038,0,0,1-3.191-.474c.5,3.493,2.888,6.132,7.717,6.132l6.274,3.279,5.536-3.279h4.85c5.474,0,7.817-3.391,7.817-7.573,0-3.254-1.419-6.028-4.627-7.1Z" transform="translate(-69.286 -121.008)" fill="#d79b8c"/>
        <path id="Trazado_1254183" data-name="Trazado 1254183" d="M229.727,136.722c-12.266,0-17.152-15.4-17.152-15.4-11.413-16.585-17.3-16.529-26.808-16.529H171.987a5.949,5.949,0,0,0-5.925,5.474,83.111,83.111,0,0,1-3,17.894c-1.165,3.7.47,6.706,3.1,7.948l9.106-2.659L165.037,168.86,172,181.174c29.458,3.665,49.356-5.093,49.356-5.093l30.406-3.739v-35.62Z" transform="translate(-118.779 -77.267)" fill="#ebae9d"/>
        <path id="Trazado_1254184" data-name="Trazado 1254184" d="M185.208,154.866c1.984-3.206,3.53-10.672,3.53-14.481a4.929,4.929,0,0,0-.726-2.59,2.12,2.12,0,0,0-3.905.895c-.667,6.146-2.936,13.557-4.557,16.177A10.272,10.272,0,0,1,175,159.054C178,160.465,182.283,159.595,185.208,154.866Z" transform="translate(-127.613 -100.213)" fill="#d79b8c"/>
        <path id="Trazado_1254185" data-name="Trazado 1254185" d="M217.413,172.342a2.11,2.11,0,0,0-.979.24c-2.456,1.284-16.254,7.021-27.215,7.021a162.723,162.723,0,0,1-19.814-1.686l43.962-43.961a8.488,8.488,0,0,0,6.266,2.766H225.9a7.077,7.077,0,0,1-6.106-3.5c-16.714-28.52-23.484-28.434-30.781-28.434h-7.073c6.341,0,12.285-.065,24.7,18.635L161.21,168.859l-3.861,13.354c8.9,0,22.665,3.048,34.7,3.048s27.491-6.916,27.6-7.26h28.29v-5.658Z" transform="translate(-114.953 -77.266)" fill="#d79b8c"/>
        <path id="Trazado_1254186" data-name="Trazado 1254186" d="M126.6,319.692l-4.07-1.982-4.716,1.982c-5.474,0-7.817,3.391-7.817,7.573a10.22,10.22,0,0,0,.1,1.441l3.213,2.775H130.45l-1.32-11.789Z" transform="translate(-80.997 -229.946)" fill="#ebae9d"/>
        <path id="Trazado_1254187" data-name="Trazado 1254187" d="M134.763,325.191a10.039,10.039,0,0,0-3.191-.474h-2.188l-9.47,9.487H113.54a10.038,10.038,0,0,1-3.19-.474c.5,3.493,2.888,6.132,7.717,6.132h13.506c5.474,0,7.817-3.391,7.817-7.573C139.39,329.036,137.97,326.262,134.763,325.191Z" transform="translate(-81.251 -234.971)" fill="#d79b8c"/>
        <path id="Trazado_1254188" data-name="Trazado 1254188" d="M116.594,278.626s4.693-5.65,1.23-11.315a10.037,10.037,0,0,0-3.191-.474l-5.967-1.715-7.539,1.715c-5.474,0-7.817,3.391-7.817,7.573a10.219,10.219,0,0,0,.1,1.441l3.213,2.775Z" transform="translate(-69.032 -192.236)" fill="#ebae9d"/>
        <path id="Trazado_1254189" data-name="Trazado 1254189" d="M118.078,272.858a10.216,10.216,0,0,1,.1,1.441c0,4.182-2.343,7.573-7.817,7.573H96.855a10.038,10.038,0,0,1-3.191-.474c.5,3.493,2.888,6.132,7.717,6.132h13.506c5.474,0,7.817-3.391,7.817-7.573C122.7,276.7,121.285,273.929,118.078,272.858Z" transform="translate(-69.286 -197.784)" fill="#d79b8c"/>
        <path id="Trazado_1254190" data-name="Trazado 1254190" d="M108.6,229.439s4.693-5.65,1.23-11.315a10.038,10.038,0,0,0-3.191-.474H89.979c-5.474,0-7.817,3.391-7.817,7.573a10.219,10.219,0,0,0,.1,1.441l3.213,2.775Z" transform="translate(-61.038 -158.195)" fill="#ebae9d"/>
        <path id="Trazado_1254191" data-name="Trazado 1254191" d="M110.084,219.325a10.214,10.214,0,0,1,.1,1.441c0,4.182-1.253,7.573-6.728,7.573H85.708a10.038,10.038,0,0,1-3.191-.474c.5,3.493,2.888,6.132,7.717,6.132h16.66c5.474,0,7.817-3.391,7.817-7.573C114.711,223.17,113.292,220.4,110.084,219.325Z" transform="translate(-61.293 -159.396)" fill="#d79b8c"/>
        <path id="Trazado_1254192" data-name="Trazado 1254192" d="M125.937,26.567a70.3,70.3,0,0,0-99.373,99.373c15.025,14.428,29.508,20.586,48.131,20.586,38.829,0,71.962-31.569,71.962-70.4,0-18.622-7.323-35.947-20.719-49.562ZM14.573,74.7c0-34.141,25.98-59.838,60.121-59.838,17.127,0,29.49,3.886,43.817,16.243L31.1,118.515A63.82,63.82,0,0,1,14.573,74.7Zm63.233,64.931a61.568,61.568,0,0,1-40.6-15.21h0L80.086,78.392S123.431,36.075,124.414,37.2v.005a61.812,61.812,0,0,1-46.608,102.42Z" transform="translate(-7.5 -7.504)" fill="#e592b8"/>
        <g id="Grupo_1198591" data-name="Grupo 1198591" transform="translate(5.376 5.376)">
          <path id="Trazado_1254193" data-name="Trazado 1254193" d="M174.253,74.884A70.3,70.3,0,0,1,74.88,174.257a70.3,70.3,0,1,0,99.373-99.373Z" transform="translate(-61.192 -61.196)" fill="#e175a5"/>
          <path id="Trazado_1254194" data-name="Trazado 1254194" d="M29.612,91.435a61.81,61.81,0,0,1,102.421-46.6l.1-.1A61.81,61.81,0,1,0,44.724,132.14l.1-.1a61.571,61.571,0,0,1-15.214-40.6Z" transform="translate(-26.5 -26.504)" fill="#e175a5"/>
          <path id="Trazado_1254195" data-name="Trazado 1254195" d="M193.66,106.454l0,0v-.005q-.762-.874-1.555-1.719a2.117,2.117,0,0,0-3.036-.035l-84.377,84.377a2.117,2.117,0,0,0,.035,3.036q.845.794,1.719,1.555h0l0,0Z" transform="translate(-82.124 -82.127)" fill="#e175a5"/>
        </g>
      </g>
      <g id="Grupo_1198593" data-name="Grupo 1198593" transform="translate(0 0.004)">
        <path id="Trazado_1254196" data-name="Trazado 1254196" d="M137.676,40.948a2.122,2.122,0,0,0-3.822,1.845,68.008,68.008,0,1,1-4.436-7.819,2.122,2.122,0,0,0,3.544-2.335,72.945,72.945,0,0,0-9.319-11.42A72.428,72.428,0,1,0,21.214,123.646a72.44,72.44,0,0,0,116.462-82.7Z" transform="translate(0 -0.004)"/>
        <path id="Trazado_1254197" data-name="Trazado 1254197" d="M37.125,112.254a2.122,2.122,0,1,0-4.041,1.3,63.326,63.326,0,0,0,12.664,22.4,2.122,2.122,0,0,0,1.527.725h.072a2.122,2.122,0,0,0,1.5-.621l87.216-87.215a2.122,2.122,0,0,0-.1-3.1,63.941,63.941,0,0,0-105,59.174,2.122,2.122,0,0,0,4.181-.725,59.7,59.7,0,0,1,96.283-56.715l-13.09,13.09c-9.269-11.471-14.976-11.52-20.49-11.52H76.858a8.116,8.116,0,0,0-8.04,7.424c-.291,3.574-.643,6.646-1.075,9.36h-12c-6.038,0-9.939,3.805-9.939,9.695a9.854,9.854,0,0,0,2.089,6.384c-3.285,1.47-5.243,4.592-5.243,8.762,0,4.19,1.932,7.28,5.256,8.747a9.848,9.848,0,0,0-2.1,6.4c0,4.664,2.448,8.019,6.465,9.214a10.051,10.051,0,0,0-1.745,5.932,10.3,10.3,0,0,0,1.629,5.785l-4.672,4.672a59.038,59.038,0,0,1-10.357-19.165ZM75.9,98.239a9.382,9.382,0,0,0,3.285-7.568A9.964,9.964,0,0,0,77.3,84.547a12.216,12.216,0,0,0,5.746-5.135,14.976,14.976,0,0,0,1.013-2,44.12,44.12,0,0,0,6.393,11.035L78.05,100.853A8.328,8.328,0,0,0,75.9,98.239ZM73.048,56.814a3.85,3.85,0,0,1,3.81-3.524H97.839c4.977,0,9.327.044,17.479,10.294L93.474,85.428a42.357,42.357,0,0,1-7.33-15.178,36.241,36.241,0,0,0,.753-6.436,2.122,2.122,0,0,0-4.244,0c0,3.6-1.512,10.617-3.212,13.365-2.27,3.67-5.379,4.355-7.454,3.4-1.5-.689-2.937-2.519-2.027-5.411,1.486-4.721,2.438-10.382,3.088-18.358Zm-17.3,13.26h11.19c-.308,1.362-.647,2.631-1.022,3.825a9.009,9.009,0,0,0,.557,7.078H55.744c-4.708,0-5.7-2.964-5.7-5.451S51.037,70.074,55.745,70.074ZM52.591,85.22h16.66c4.708,0,5.7,2.964,5.7,5.451s-.988,5.451-5.7,5.451H52.61c-3.791-.071-5.714-1.9-5.714-5.451C46.9,88.184,47.883,85.22,52.591,85.22Zm-2.541,20.6c0-2.487.988-5.451,5.7-5.451H69.251c3.113,0,4.962,1.269,5.517,3.769l-7.133,7.133H55.745c-4.707,0-5.7-2.964-5.7-5.451Zm4.721,15.146c0-2.487.988-5.451,5.7-5.451h2.926l-8.125,8.125A6.841,6.841,0,0,1,54.77,120.962Z" transform="translate(-21.528 -21.521)"/>
        <path id="Trazado_1254198" data-name="Trazado 1254198" d="M105.7,195.914a63.652,63.652,0,0,0,41.987,15.732c.687,0,1.378-.011,2.067-.033A63.938,63.938,0,0,0,195.91,105.7a2.122,2.122,0,0,0-3.1-.1L105.6,192.815a2.122,2.122,0,0,0,.1,3.1Zm88.475-85.677a59.131,59.131,0,0,1,11.769,24.5h-5.768a2.122,2.122,0,0,0,0,4.244h6.542a60.107,60.107,0,0,1-6.471,37.035H182.088a2.119,2.119,0,0,0-1.31.452c-1.459.785-15.274,6.808-26.287,6.808a158.689,158.689,0,0,1-19.392-1.65,9.633,9.633,0,0,0,2.558-6.9,10.108,10.108,0,0,0-1.857-6.109l18.027-18.027a25.713,25.713,0,0,0,12.794,3.575q.674,0,1.346-.04a2.122,2.122,0,0,0-.25-4.237,20.812,20.812,0,0,1-10.763-2.425l19.513-19.513c1.266,2.005,2.585,4.176,3.94,6.487a9.232,9.232,0,0,0,7.937,4.546h3.345a2.122,2.122,0,0,0,0-4.244h-3.345a4.973,4.973,0,0,1-4.276-2.448c-1.561-2.664-3.079-5.149-4.527-7.416Zm-61.439,61.439a6.492,6.492,0,0,1,.677,3.044c0,2.487-.988,5.451-5.7,5.451h-3.477Zm-12.8,12.8a130.811,130.811,0,0,1,14.394,1.334,166.187,166.187,0,0,0,20.156,1.713c6.6,0,13.938-1.962,18.936-3.608,2.352-.775,4.775-1.677,6.822-2.54,1.119-.472,1.9-.817,2.447-1.113h15.044a59.8,59.8,0,0,1-87.507,13.923Z" transform="translate(-75.274 -75.279)"/>
      </g>
    </g>
  </g>
</svg>
