<svg xmlns="http://www.w3.org/2000/svg" xmlns:xlink="http://www.w3.org/1999/xlink" width="253.172" height="238.89" viewBox="0 0 253.172 238.89">
  <defs>
    <filter id="Trazado_1034908" x="82.867" y="0" width="170.305" height="170.305" filterUnits="userSpaceOnUse">
      <feOffset dy="3" input="SourceAlpha"/>
      <feGaussianBlur stdDeviation="3" result="blur"/>
      <feFlood flood-opacity="0.161"/>
      <feComposite operator="in" in2="blur"/>
      <feComposite in="SourceGraphic"/>
    </filter>
    <filter id="Trazado_1034909" x="0" y="118.028" width="120.862" height="120.862" filterUnits="userSpaceOnUse">
      <feOffset dy="3" input="SourceAlpha"/>
      <feGaussianBlur stdDeviation="3" result="blur-2"/>
      <feFlood flood-opacity="0.161"/>
      <feComposite operator="in" in2="blur-2"/>
      <feComposite in="SourceGraphic"/>
    </filter>
  </defs>
  <g id="Grupo_1198595" data-name="Grupo 1198595" transform="translate(-651.491 6025.484)">
    <g id="Grupo_1198507" data-name="Grupo 1198507" transform="translate(639.85 -6054.111)">
      <g id="Grupo_1112109" data-name="Grupo 1112109" transform="translate(20.641 34.415)">
        <g id="Grupo_1112092" data-name="Grupo 1112092" transform="translate(0 0.212)">
          <g transform="matrix(1, 0, 0, 1, -9, -6)" filter="url(#Trazado_1034908)">
            <path id="Trazado_1034908-2" data-name="Trazado 1034908" d="M213.63,76.151A76.152,76.152,0,1,1,137.477,0,76.153,76.153,0,0,1,213.63,76.151" transform="translate(30.54 6)" fill="#efeae8"/>
          </g>
          <g transform="matrix(1, 0, 0, 1, -9, -6)" filter="url(#Trazado_1034909)">
            <path id="Trazado_1034909-2" data-name="Trazado 1034909" d="M164.187,51.43A51.431,51.431,0,1,1,112.756,0,51.431,51.431,0,0,1,164.187,51.43" transform="translate(-52.32 124.03)" fill="#efeae8"/>
          </g>
        </g>
        <g id="Grupo_1112093" data-name="Grupo 1112093" transform="translate(16.611)">
          <g id="Elipse_12265" data-name="Elipse 12265" transform="translate(12.898 -1.304)" fill="none" stroke="#efeae8" stroke-width="3">
            <circle cx="9" cy="9" r="9" stroke="none"/>
            <circle cx="9" cy="9" r="7.5" fill="none"/>
          </g>
          <g id="Elipse_12266" data-name="Elipse 12266" transform="translate(3.898 183.696)" fill="none" stroke="#c9c8c8" stroke-width="3">
            <circle cx="9" cy="9" r="9" stroke="none"/>
            <circle cx="9" cy="9" r="7.5" fill="none"/>
          </g>
          <g id="Elipse_12268" data-name="Elipse 12268" transform="translate(192.898 175.696)" fill="none" stroke="#efeae8" stroke-width="3">
            <circle cx="9" cy="9" r="9" stroke="none"/>
            <circle cx="9" cy="9" r="7.5" fill="none"/>
          </g>
          <g id="Elipse_12267" data-name="Elipse 12267" transform="translate(174.898 53.696)" fill="none" stroke="#c9c8c8" stroke-width="3">
            <circle cx="9" cy="9" r="9" stroke="none"/>
            <circle cx="9" cy="9" r="7.5" fill="none"/>
          </g>
        </g>
      </g>
    </g>
    <g id="Page-1" transform="translate(709.698 -5972.212)">
      <g id="_034---Empathy" data-name="034---Empathy" transform="translate(0 -0.003)">
        <path id="Shape" d="M103.61,85.228a40.786,40.786,0,0,0-3.151,21.084,79.23,79.23,0,0,0,2.766,13.807,46.408,46.408,0,0,0,2.7,6.824,56.666,56.666,0,0,1,3.627,6.393l-56.905.159v-.023c-.181-.68-3.6-14.011-11.177-17.434-1.406.5-2.9,1-4.421,1.519A153.415,153.415,0,0,1,21.7,122a5.836,5.836,0,0,1-4.217-.589,7.126,7.126,0,0,1-3.061-3.922,11.3,11.3,0,0,1-.635-5.056,14.056,14.056,0,0,0,.521-5.4c-.589-2.29-2.766-2.857-4.489-4.081-1.406-1,1.111-4.194,1.111-4.194S8.255,96.79,7.3,95.951c-1-.839.408-2.244,1.655-4.9a6.189,6.189,0,0,0,.431-3.673c-.476-2.426-4.149-3.333-5.963-4.693-.862-.635-2.244-1.587-2.4-2.743-.249-1.61,1.655-3.877,2.585-5.01A89.172,89.172,0,0,0,13.718,58.5a4.675,4.675,0,0,0,.635-2.018c-.045-3.242-4.738-4.58-5.169-7.731a5.591,5.591,0,0,1,.476-2.7,69.208,69.208,0,0,0,3.355-8.57,68.327,68.327,0,0,1,2.154-7.935,41.437,41.437,0,0,1,8.615-14.056C29.339,9.619,37.546,6.717,45.3,5.175A151.146,151.146,0,0,1,66.225,2.115c.227-.023.453-.023.68-.045,14.51-.725,25.981,4.194,37.226,13.013A35.175,35.175,0,0,1,116.9,33.4a66.032,66.032,0,0,1,2.29,18.59,32.6,32.6,0,0,1-5.214,17.457C110.593,74.8,106.172,79.4,103.61,85.228Z" transform="translate(1.267 0.273)" fill="#ad1457"/>
        <path id="Shape-2" data-name="Shape" d="M96.809,85.163a40.786,40.786,0,0,0-3.151,21.084,79.23,79.23,0,0,0,2.766,13.807,46.41,46.41,0,0,0,2.7,6.824,56.664,56.664,0,0,1,3.627,6.393l-50.1.136c-.181-.68-3.6-14.011-11.177-17.434-1.406.5-2.9,1-4.421,1.519a10.309,10.309,0,0,0-2.38-1.519c-5.464,1.9-12.129,4.1-17.185,5.373a7.126,7.126,0,0,1-3.061-3.922,11.3,11.3,0,0,1-.635-5.056,14.056,14.056,0,0,0,.521-5.4c-.589-2.29-2.766-2.857-4.489-4.081-1.406-1,1.111-4.194,1.111-4.194S8.255,96.725,7.3,95.887c-1-.839.408-2.244,1.655-4.9a6.189,6.189,0,0,0,.431-3.673c-.476-2.426-4.149-3.333-5.963-4.693-.862-.635-2.244-1.587-2.4-2.743C.773,78.271,2.677,76,3.607,74.87A89.172,89.172,0,0,0,13.718,58.434a4.675,4.675,0,0,0,.635-2.018c-.045-3.242-4.738-4.58-5.169-7.731a5.591,5.591,0,0,1,.476-2.7,69.208,69.208,0,0,0,3.355-8.57,68.327,68.327,0,0,1,2.154-7.935,41.437,41.437,0,0,1,8.615-14.056C29.339,9.554,37.546,6.652,45.3,5.111A151.146,151.146,0,0,1,66.225,2.05c11.7.725,21.492,5.418,31.105,12.968a35.175,35.175,0,0,1,12.764,18.318,66.032,66.032,0,0,1,2.29,18.59,32.6,32.6,0,0,1-5.214,17.457C103.792,74.734,99.371,79.337,96.809,85.163Z" transform="translate(1.267 0.338)" fill="#e91e63"/>
        <path id="Shape-3" data-name="Shape" d="M22.224,25.737l-.544-.567" transform="translate(27.471 29.634)" fill="#fdd7ad"/>
        <path id="Shape-4" data-name="Shape" d="M103.491,46.455l-.544.567L89.39,60.716h-.045a4.636,4.636,0,0,1-7.935,2.925h-.023a4.747,4.747,0,0,1,0,6.688,4.627,4.627,0,0,1-6.62,0,4.747,4.747,0,0,1,0,6.688,4.666,4.666,0,0,1-6.62,0,4.747,4.747,0,0,1,0,6.688,4.666,4.666,0,0,1-6.62,0l-.091-.091L25.615,47.5l.023-.023a4.258,4.258,0,0,1-.544-.567,22.987,22.987,0,0,1,.544-31.74,22.42,22.42,0,0,1,32.012,0l3.083,2.947L64.2,21.472l7.278-7.323a22.49,22.49,0,0,1,31.468.544A23.014,23.014,0,0,1,103.491,46.455Z" transform="translate(24.08 7.873)" fill="#dfc49c" fill-rule="evenodd"/>
        <path id="Shape-5" data-name="Shape" d="M96.69,46.311l-.544.567L82.588,60.571h-.045A4.613,4.613,0,0,1,81.3,63.428l-.068.068a4.627,4.627,0,0,1-6.62,0h-.023a4.722,4.722,0,0,1,.068,6.6.313.313,0,0,1-.068.091,4.627,4.627,0,0,1-6.62,0,4.722,4.722,0,0,1,.068,6.6.31.31,0,0,1-.068.091,4.666,4.666,0,0,1-6.62,0,4.743,4.743,0,0,1,.091,6.6L25.615,47.354l.023-.023a4.259,4.259,0,0,1-.544-.567,22.987,22.987,0,0,1,.544-31.74A22.719,22.719,0,0,1,38.243,8.563a22.719,22.719,0,0,1,12.605,6.461l6.552,6.3,3.333-3.355L64.2,21.327,71.479,14A22.588,22.588,0,0,1,83.54,8.11a22.54,22.54,0,0,1,12.605,6.439A23.014,23.014,0,0,1,96.69,46.311Z" transform="translate(24.08 8.017)" fill="#ffe0b2" fill-rule="evenodd"/>
        <path id="Shape-6" data-name="Shape" d="M42.467,10.71c-.181.181-.385.363-.567.544" transform="translate(53.092 11.311)" fill="#fdd7ad" fill-rule="evenodd"/>
        <path id="Shape-7" data-name="Shape" d="M21.537,125.683A8.457,8.457,0,0,1,13.53,119.5a13.256,13.256,0,0,1-.757-6.09c.079-.594.209-1.188.338-1.784a6.348,6.348,0,0,0,.245-2.75c-.179-.707-.7-1.061-2.027-1.814-.537-.306-1.075-.619-1.587-.979a3.249,3.249,0,0,1-1.331-2.2,5.718,5.718,0,0,1,.73-3.285c-.766-.585-1.6-1.242-2.09-1.675-2.093-1.766-.759-4.133.125-5.7.3-.531.648-1.145.984-1.852a3.893,3.893,0,0,0,.249-2.278c-.113-.6-1.746-1.433-2.721-1.929a16.727,16.727,0,0,1-2.36-1.36A7.008,7.008,0,0,1,.045,81.549C-.3,79.2,1.405,76.881,3.015,74.9a87.673,87.673,0,0,0,9.907-16.153,3.79,3.79,0,0,0,.4-.973c0-.648-.735-1.36-1.843-2.383a8.663,8.663,0,0,1-3.3-5.049,7.643,7.643,0,0,1,.612-3.811c.4-1.072.868-2.122,1.338-3.174a28.89,28.89,0,0,0,1.92-5.124l.184-.793a60.582,60.582,0,0,1,2.056-7.414A43.075,43.075,0,0,1,23.351,15.2C28.4,9.86,35.807,6.264,46.022,4.205A151.339,151.339,0,0,1,67.884,1.081,51.783,51.783,0,0,1,96.317,7.695a2.267,2.267,0,0,1-2.195,3.965,46.7,46.7,0,0,0-26-6.051A147.227,147.227,0,0,0,46.9,8.658c-9.252,1.868-15.87,5.028-20.261,9.665a38.569,38.569,0,0,0-8.114,13.288,56.068,56.068,0,0,0-1.886,6.858l-.184.8a32.709,32.709,0,0,1-2.195,5.947c-.433.966-.866,1.934-1.236,2.92a3.929,3.929,0,0,0-.363,1.587c.1.7.959,1.492,1.875,2.331a7.9,7.9,0,0,1,3.312,5.668,6.575,6.575,0,0,1-.886,3.074A91.417,91.417,0,0,1,6.633,77.633c-1.741,2.136-2.1,2.961-2.1,3.3a11.24,11.24,0,0,0,1.34,1.088,13.13,13.13,0,0,0,1.873,1.088c1.934.988,4.584,2.344,5.11,5.124a8.364,8.364,0,0,1-.614,5.067c-.385.812-.782,1.521-1.134,2.136-.118.211-.252.453-.365.657.93.744,2.222,1.714,2.764,2.118a2.267,2.267,0,0,1,.449,3.226,8.455,8.455,0,0,0-.868,1.408l.483.279a7.493,7.493,0,0,1,4.172,4.639,10.059,10.059,0,0,1-.213,4.845c-.1.469-.209.939-.272,1.408a8.806,8.806,0,0,0,.549,4,4,4,0,0,0,4.657,3.031,187.829,187.829,0,0,0,19.427-5.881,2.267,2.267,0,0,1,1.49,4.283,191.757,191.757,0,0,1-20,6.04A9.228,9.228,0,0,1,21.537,125.683ZM10.011,95.478l.036.032Z" transform="translate(0 -0.997)"/>
        <path id="Shape-8" data-name="Shape" d="M31.228,85.1a2.267,2.267,0,0,1-2.2-1.73c-.877-3.58-4.366-13.424-9.887-15.929a2.267,2.267,0,0,1,.2-4.21c2.183-.746,4.176-1.446,5.795-2.013,1.759-.619,3.088-1.086,3.757-1.3,9.395-2.947,11.3-6.362,11.247-8.7A2.267,2.267,0,0,1,42.349,48.9a2.224,2.224,0,0,1,2.319,2.213c.134,5.668-4.716,10.077-14.414,13.129-.642.2-1.923.653-3.627,1.249-.519.181-1.077.379-1.669.583a36.166,36.166,0,0,1,7.985,14.487l51.278-.147-.168-.252a25.14,25.14,0,0,1-1.739-2.922,48.85,48.85,0,0,1-2.8-7.123,79.352,79.352,0,0,1-2.832-14.2,42.142,42.142,0,0,1,.274-12,2.267,2.267,0,1,1,4.473.739,37.635,37.635,0,0,0-.247,10.717,75.059,75.059,0,0,0,2.664,13.4,44.539,44.539,0,0,0,2.553,6.486,21.063,21.063,0,0,0,1.444,2.4A17.392,17.392,0,0,1,90.147,82a2.267,2.267,0,0,1-2.163,2.929L31.235,85.1Z" transform="translate(22.561 50.94)"/>
        <path id="Shape-9" data-name="Shape" d="M11.461,35.62a2.267,2.267,0,0,1-2.208-2.782l.227-.982a53.944,53.944,0,0,1,1.678-6.139,34.447,34.447,0,0,1,7.18-11.757A28.093,28.093,0,0,1,30.761,7a2.267,2.267,0,1,1,1.324,4.337,23.732,23.732,0,0,0-10.451,5.738,29.928,29.928,0,0,0-6.221,10.2,50.3,50.3,0,0,0-1.517,5.6l-.227.982A2.267,2.267,0,0,1,11.461,35.62Z" transform="translate(11.649 6.481)"/>
        <circle id="Oval" cx="2.267" cy="2.267" r="2.267" transform="translate(18.137 45.35)"/>
        <path id="Shape-10" data-name="Shape" d="M26.922,50.754a2.267,2.267,0,0,1-1.612-.68c-.2-.2-.4-.41-.594-.619a25.165,25.165,0,0,1,.6-34.889,24.768,24.768,0,0,1,35.247,0,2.267,2.267,0,1,1-3.222,3.19,20.234,20.234,0,0,0-28.8,0,20.631,20.631,0,0,0-.49,28.616c.161.175.324.347.492.515a2.267,2.267,0,0,1-1.614,3.854Z" transform="translate(22.784 6.866)"/>
        <path id="Shape-11" data-name="Shape" d="M59.391,65.478a2.267,2.267,0,0,1-1.612-.68L21.339,28.029a2.268,2.268,0,0,1,3.222-3.192L61,61.617a2.267,2.267,0,0,1-1.61,3.854Z" transform="translate(26.207 28.362)"/>
        <path id="Shape-12" data-name="Shape" d="M75.2,50.57a2.267,2.267,0,0,1-1.607-3.854c.166-.166.326-.338.485-.508a20.631,20.631,0,0,0-.49-28.616,20.143,20.143,0,0,0-28.3-.5c-.17.161-.338.326-.5.494a2.272,2.272,0,1,1-3.226-3.2q.306-.308.619-.605a24.66,24.66,0,0,1,34.628.6A25.165,25.165,0,0,1,77.4,49.276q-.292.315-.6.626A2.267,2.267,0,0,1,75.2,50.57Z" transform="translate(51.826 6.587)"/>
        <path id="Shape-13" data-name="Shape" d="M51.308,42.7a2.267,2.267,0,0,1-1.61-3.854L63.775,24.624A2.269,2.269,0,0,1,66.913,27.9l-.413.431L52.92,42.04A2.266,2.266,0,0,1,51.308,42.7Z" transform="translate(62.152 28.144)"/>
        <path id="Shape-14" data-name="Shape" d="M57.377,57.544a2.267,2.267,0,0,1-1.612-.68L28.158,29.012A2.268,2.268,0,1,1,31.38,25.82L58.987,53.683a2.267,2.267,0,0,1-1.61,3.854Z" transform="translate(34.847 29.607)"/>
        <path id="Shape-15" data-name="Shape" d="M57.985,52.257a2.267,2.267,0,0,1-1.612-.68L32.931,27.929a2.267,2.267,0,1,1,3.222-3.19L59.592,48.4a2.267,2.267,0,0,1-1.61,3.854Z" transform="translate(40.862 28.202)"/>
        <path id="Shape-16" data-name="Shape" d="M60.557,48.956a2.267,2.267,0,0,1-1.61-.68L36.083,25.208a2.267,2.267,0,0,1,3.222-3.19L62.169,45.093a2.267,2.267,0,0,1-1.612,3.854Z" transform="translate(44.923 24.822)"/>
        <path id="Shape-17" data-name="Shape" d="M63.493,46.022a2.267,2.267,0,0,1-1.61-.68L39.02,22.279a2.268,2.268,0,0,1,3.222-3.194L65.105,42.159a2.267,2.267,0,0,1-1.612,3.854Z" transform="translate(48.609 21.072)"/>
        <path id="Shape-18" data-name="Shape" d="M42.336,50.032a6.888,6.888,0,0,1-4.924-2.059,2.268,2.268,0,0,1,3.222-3.192,2.437,2.437,0,0,0,3.4,0,2.494,2.494,0,0,0,0-3.5,2.267,2.267,0,0,1,3.222-3.19,7.042,7.042,0,0,1,0,9.878A6.888,6.888,0,0,1,42.336,50.032Z" transform="translate(46.573 45.195)"/>
        <path id="Shape-19" data-name="Shape" d="M45.243,47.1a6.879,6.879,0,0,1-4.922-2.059,2.267,2.267,0,0,1,3.222-3.19,2.384,2.384,0,0,0,3.405,0,2.494,2.494,0,0,0,0-3.494,2.268,2.268,0,0,1,3.222-3.192,7.042,7.042,0,0,1,0,9.88A6.9,6.9,0,0,1,45.243,47.1Z" transform="translate(50.293 41.442)"/>
        <path id="Shape-20" data-name="Shape" d="M48.18,44.148a6.879,6.879,0,0,1-4.922-2.059A2.268,2.268,0,1,1,46.48,38.9a2.428,2.428,0,0,0,3.4,0,2.494,2.494,0,0,0,0-3.494A2.268,2.268,0,1,1,53.1,32.209a7.042,7.042,0,0,1,0,9.88A6.888,6.888,0,0,1,48.18,44.148Z" transform="translate(53.981 37.703)"/>
        <path id="Shape-21" data-name="Shape" d="M51.1,41.2a6.894,6.894,0,0,1-4.924-2.056A2.268,2.268,0,1,1,49.4,35.947a2.433,2.433,0,0,0,3.4,0,2.494,2.494,0,0,0,0-3.494,2.268,2.268,0,1,1,3.222-3.192,7.042,7.042,0,0,1,0,9.88A6.9,6.9,0,0,1,51.1,41.2Z" transform="translate(57.683 33.968)"/>
        <path id="Shape-22" data-name="Shape" d="M36.776,46.811a6.879,6.879,0,0,1-4.922-2.056,7.028,7.028,0,0,1,0-9.88l24.3-24.508a2.267,2.267,0,0,1,3.219,3.192l-24.3,24.51a2.494,2.494,0,0,0,0,3.494,2.384,2.384,0,0,0,3.4,0L55.042,24.847a2.267,2.267,0,0,1,3.373.166,14.417,14.417,0,0,0,9.048,4.947,11.456,11.456,0,0,0,8.554-4,2.267,2.267,0,0,1,3.222,3.19A15.611,15.611,0,0,1,67.2,34.487a17.573,17.573,0,0,1-10.565-4.815L41.691,44.755A6.885,6.885,0,0,1,36.776,46.811Z" transform="translate(37.792 10.061)"/>
      </g>
    </g>
  </g>
</svg>
