<svg xmlns="http://www.w3.org/2000/svg" xmlns:xlink="http://www.w3.org/1999/xlink" width="65.862" height="60.557" viewBox="0 0 65.862 60.557">
  <defs>
    <linearGradient id="linear-gradient" x1="0.5" y1="1" x2="0.5" y2="0.001" gradientUnits="objectBoundingBox">
      <stop offset="0" stop-color="#9d31fe"/>
      <stop offset="1" stop-color="#0cb0d3"/>
    </linearGradient>
  </defs>
  <g id="meeting_12061814" transform="translate(-12.999 -32.575)">
    <path id="Trazado_1254249" data-name="Trazado 1254249" d="M214.763,48.574H201.621a.924.924,0,0,0-.921.925v5.447a.922.922,0,0,0,.921.921h4.5a1.084,1.084,0,0,1,.874.442l1.2,1.63,1.2-1.63a1.084,1.084,0,0,1,.874-.442h4.5a.924.924,0,0,0,.925-.921V49.5a.926.926,0,0,0-.925-.925Z" transform="translate(-162.264 -13.831)" fill="#ff84a7"/>
    <path id="Trazado_1254250" data-name="Trazado 1254250" d="M386.013,107.792H372.871a.924.924,0,0,0-.925.921v5.451a.924.924,0,0,0,.925.921h4.5a1.084,1.084,0,0,1,.874.442l1.2,1.63,1.2-1.63a1.084,1.084,0,0,1,.874-.442h4.5a.922.922,0,0,0,.921-.921v-5.451a.922.922,0,0,0-.921-.921Z" transform="translate(-310.303 -65.024)" fill="#69d998"/>
    <path id="Trazado_1254251" data-name="Trazado 1254251" d="M43.063,107.792H29.921a.922.922,0,0,0-.921.921v5.451a.922.922,0,0,0,.921.921h4.5a1.084,1.084,0,0,1,.874.442l1.2,1.63,1.2-1.63a1.084,1.084,0,0,1,.874-.442h4.5a.924.924,0,0,0,.925-.921v-5.451a.924.924,0,0,0-.925-.921Z" transform="translate(-13.833 -65.024)" fill="#83d9ff"/>
    <path id="Trazado_1254252" data-name="Trazado 1254252" d="M74.6,68.937a10.121,10.121,0,0,0,2.073-6.293,6.706,6.706,0,1,0-13.413,0c0,3.7,1.886,7.632,5.407,8.411-.211.2-.407.4-.593.582l-7.821,7.821H59.127V71.291a7.878,7.878,0,0,0-8.107-7.607h-.177a11.366,11.366,0,0,0,2.721-7.617,7.634,7.634,0,1,0-15.268,0A12.45,12.45,0,0,0,40,62.342a8.672,8.672,0,0,0,1.014,1.342H40.84a7.878,7.878,0,0,0-8.107,7.607v8.166H31.6l-7.821-7.821c-.186-.186-.384-.384-.6-.584a6.2,6.2,0,0,0,3.919-2.942,10.844,10.844,0,0,0,1.49-5.467,6.706,6.706,0,1,0-13.413,0,10.122,10.122,0,0,0,2.073,6.293A5.178,5.178,0,0,0,13,74.026V92.047a1.084,1.084,0,1,0,2.168,0V74.026a3,3,0,0,1,3-3c1.939,0,2.98,1.042,4.082,2.146l8.457,8.457H40.751a1.568,1.568,0,1,1,0,3.137H30.206a1.821,1.821,0,0,1-1.365-.566l-7.053-7.053a1.084,1.084,0,0,0-1.533,1.533l3.632,3.631v9.739a1.084,1.084,0,1,0,2.168,0V84.476l1.253,1.253a4.236,4.236,0,0,0,.628.519v5.8a1.084,1.084,0,0,0,1.084,1.084H62.841a1.084,1.084,0,0,0,1.084-1.084v-5.8a4.23,4.23,0,0,0,.628-.519l1.253-1.254v7.571a1.084,1.084,0,0,0,2.168,0V82.306l3.628-3.63a1.084,1.084,0,0,0-1.534-1.533L63.019,84.2a1.822,1.822,0,0,1-1.365.566H51.1a1.568,1.568,0,0,1,0-3.137H61.154l8.374-8.373.083-.083c1.1-1.1,2.143-2.146,4.079-2.146a3.007,3.007,0,0,1,3,3V92.047a1.084,1.084,0,0,0,2.168,0V74.026A5.179,5.179,0,0,0,74.6,68.936ZM21.893,58.1a4.543,4.543,0,0,1,4.536,4.54c0,2.468-1.232,6.384-4.536,6.384s-4.54-3.916-4.54-6.384A4.545,4.545,0,0,1,21.893,58.1ZM46.7,65.852l.035,0a.654.654,0,0,1-.228.209,1.084,1.084,0,0,0-.576.859,1.084,1.084,0,0,0-.576-.859.682.682,0,0,1-.231-.208l.039,0ZM47.575,78.3,45.93,79.848,44.284,78.3l1.639-11.119c0-.019.005-.039.007-.058,0,.019,0,.038.007.058ZM45.93,50.6a5.474,5.474,0,0,1,5.466,5.47c0,2.945-1.484,7.617-5.466,7.617s-5.466-4.672-5.466-7.617A5.474,5.474,0,0,1,45.93,50.6ZM61.654,86.931h.1v4.032H30.1V86.931h31.55ZM47.37,83.192a3.718,3.718,0,0,0,.347,1.57H44.143a3.733,3.733,0,0,0-3.392-5.305H39.7V72.444a1.084,1.084,0,0,0-2.168,0v7.014H34.9V71.291a5.712,5.712,0,0,1,5.938-5.439h2.08a2.1,2.1,0,0,0,.215.891,2.853,2.853,0,0,0,.549.755L42.057,78.543a1.084,1.084,0,0,0,.33.948l2.8,2.635a1.084,1.084,0,0,0,1.486,0l2.8-2.635a1.084,1.084,0,0,0,.33-.948L48.175,67.5a2.871,2.871,0,0,0,.546-.753,2.059,2.059,0,0,0,.22-.891h2.08a5.712,5.712,0,0,1,5.938,5.439v8.166h-3.4V72.444a1.084,1.084,0,0,0-2.168,0v7.014H51.1a3.739,3.739,0,0,0-3.735,3.735ZM65.431,62.644a4.538,4.538,0,1,1,9.076,0c0,2.651-1.409,6.384-4.54,6.384C66.662,69.028,65.431,65.112,65.431,62.644ZM62.568,52.23h3.95l1.746,2.377a1.084,1.084,0,0,0,1.748,0l1.746-2.377H75.71a3.093,3.093,0,0,0,3.09-3.089V43.689A3.093,3.093,0,0,0,75.71,40.6H62.568a3.1,3.1,0,0,0-3.093,3.089v5.451a3.1,3.1,0,0,0,3.093,3.089Zm-.925-8.541a.924.924,0,0,1,.925-.921H75.71a.922.922,0,0,1,.921.921v5.451a.922.922,0,0,1-.921.921h-4.5a1.084,1.084,0,0,0-.874.442l-1.2,1.63-1.2-1.63a1.084,1.084,0,0,0-.874-.442h-4.5a.924.924,0,0,1-.925-.921V43.689Zm1.132,1.145a1.084,1.084,0,0,1,1.084-1.084h.73a1.084,1.084,0,1,1,0,2.168h-.73A1.084,1.084,0,0,1,62.774,44.834Zm3.388,0a1.084,1.084,0,0,1,1.084-1.084h7.311a1.084,1.084,0,0,1,0,2.168H67.247A1.084,1.084,0,0,1,66.163,44.834Zm-3.408,3.158a1.084,1.084,0,0,1,1.084-1.084H74.557a1.084,1.084,0,0,1,0,2.168H63.839A1.084,1.084,0,0,1,62.755,47.992ZM16.089,52.23h3.953l1.746,2.377a1.084,1.084,0,0,0,1.748,0l1.746-2.377h3.95a3.1,3.1,0,0,0,3.093-3.089V43.689A3.1,3.1,0,0,0,29.231,40.6H16.089A3.093,3.093,0,0,0,13,43.689v5.451a3.093,3.093,0,0,0,3.089,3.089Zm-.921-8.541a.922.922,0,0,1,.921-.921H29.231a.924.924,0,0,1,.925.921v5.451a.924.924,0,0,1-.925.921h-4.5a1.084,1.084,0,0,0-.874.442l-1.2,1.63-1.2-1.63a1.084,1.084,0,0,0-.874-.442h-4.5a.922.922,0,0,1-.921-.921V43.689ZM16.3,44.834a1.084,1.084,0,0,1,1.084-1.084h.734a1.084,1.084,0,0,1,0,2.168h-.734A1.084,1.084,0,0,1,16.3,44.834Zm3.388,0a1.084,1.084,0,0,1,1.084-1.084h7.314a1.084,1.084,0,0,1,0,2.168H20.768a1.084,1.084,0,0,1-1.084-1.084Zm-3.408,3.158a1.084,1.084,0,0,1,1.084-1.084H28.082a1.084,1.084,0,1,1,0,2.168H17.36a1.084,1.084,0,0,1-1.084-1.084Zm23.081-3.787H43.31l1.746,2.377a1.084,1.084,0,0,0,1.748,0l1.746-2.377H52.5a3.1,3.1,0,0,0,3.093-3.089V35.668A3.1,3.1,0,0,0,52.5,32.575H39.357a3.1,3.1,0,0,0-3.089,3.093v5.447a3.093,3.093,0,0,0,3.089,3.089Zm-.921-8.537a.924.924,0,0,1,.921-.925H52.5a.926.926,0,0,1,.925.925v5.447a.924.924,0,0,1-.925.921H48a1.084,1.084,0,0,0-.874.442l-1.2,1.63-1.2-1.63a1.084,1.084,0,0,0-.874-.442h-4.5a.922.922,0,0,1-.921-.921V35.668Zm1.128,1.145a1.084,1.084,0,0,1,1.084-1.084h.734a1.084,1.084,0,0,1,0,2.168h-.734A1.084,1.084,0,0,1,39.563,36.813Zm3.388,0a1.084,1.084,0,0,1,1.084-1.084H51.35a1.084,1.084,0,0,1,0,2.168H44.036A1.084,1.084,0,0,1,42.952,36.813Zm-3.407,3.154a1.084,1.084,0,0,1,1.084-1.084H51.35a1.084,1.084,0,0,1,0,2.168H40.628A1.084,1.084,0,0,1,39.544,39.967Z" transform="translate(0 0)"/>
    <path id="Trazado_1254253" data-name="Trazado 1254253" d="M196.678,291.736V283.57a5.712,5.712,0,0,0-5.938-5.439h-2.08a2.06,2.06,0,0,1-.22.891,2.872,2.872,0,0,1-.546.753l1.628,11.047a1.084,1.084,0,0,1-.33.948l-2.8,2.635a1.084,1.084,0,0,1-1.486,0l-2.8-2.635a1.084,1.084,0,0,1-.33-.948l1.628-11.045a2.853,2.853,0,0,1-.549-.755,2.1,2.1,0,0,1-.215-.891h-2.08a5.712,5.712,0,0,0-5.938,5.439v8.166h2.634v-7.014a1.084,1.084,0,1,1,2.168,0v7.014h1.048a3.733,3.733,0,0,1,3.392,5.305h3.573a3.734,3.734,0,0,1,3.388-5.305h.284v-7.014a1.084,1.084,0,1,1,2.168,0v7.014h3.4Z" transform="translate(-139.72 -212.279)" fill="#ff84a7"/>
    <path id="Trazado_1254254" data-name="Trazado 1254254" d="M245.5,300.236l1.645-1.548-1.638-11.119c0-.019-.005-.039-.007-.058,0,.019,0,.038-.007.058l-1.639,11.119Z" transform="translate(-199.573 -220.388)" fill="#ed6b9d"/>
    <path id="Trazado_1254255" data-name="Trazado 1254255" d="M226.6,171.034a5.466,5.466,0,1,0-10.932,0c0,2.945,1.484,7.617,5.466,7.617S226.6,173.979,226.6,171.034Z" transform="translate(-175.203 -114.967)" fill="#fedfc5"/>
    <path id="Trazado_1254256" data-name="Trazado 1254256" d="M250.85,279.2a1.084,1.084,0,0,1,.576-.859.656.656,0,0,0,.228-.209l-.035,0h-1.537l-.039,0a.684.684,0,0,0,.231.208A1.084,1.084,0,0,1,250.85,279.2Z" transform="translate(-204.92 -212.279)" fill="#ed6b9d"/>
    <path id="Trazado_1254257" data-name="Trazado 1254257" d="M139.318,433.673h-.1v4.032h31.653v-4.032h-31.55Z" transform="translate(-109.111 -346.742)" fill="#ffae85"/>
    <path id="Trazado_1254258" data-name="Trazado 1254258" d="M399.9,225.495c0,2.468,1.232,6.384,4.536,6.384,3.131,0,4.54-3.733,4.54-6.384a4.538,4.538,0,1,0-9.076,0Z" transform="translate(-334.466 -162.851)" fill="#fedfc5"/>
    <path id="Trazado_1254259" data-name="Trazado 1254259" d="M49.669,220.955a4.545,4.545,0,0,0-4.54,4.54c0,2.468,1.233,6.384,4.54,6.384s4.536-3.916,4.536-6.384A4.543,4.543,0,0,0,49.669,220.955Z" transform="translate(-27.776 -162.851)" fill="#fedfc5"/>
    <path id="Trazado_1254260" data-name="Trazado 1254260" d="M30.8,337.311v-9.739l-3.632-3.632a1.084,1.084,0,0,1,1.533-1.533l7.053,7.053a1.821,1.821,0,0,0,1.365.566H47.667a1.568,1.568,0,1,0,0-3.137H37.622l-8.457-8.457c-1.1-1.1-2.143-2.146-4.082-2.146a3,3,0,0,0-3,3v18.021A1.084,1.084,0,0,1,21,338.4H31.886a1.084,1.084,0,0,1-1.084-1.084Z" transform="translate(-6.916 -245.264)" fill="#83d9ff"/>
    <path id="Trazado_1254261" data-name="Trazado 1254261" d="M491,478.755h.463v-.105A1.078,1.078,0,0,1,491,478.755Z" transform="translate(-413.223 -385.624)" fill="url(#linear-gradient)"/>
    <path id="Trazado_1254262" data-name="Trazado 1254262" d="M309.779,337.31V319.289a3.007,3.007,0,0,0-3-3c-1.935,0-2.977,1.042-4.079,2.146l-.083.083-8.374,8.373H284.191a1.568,1.568,0,0,0,0,3.137H294.74a1.821,1.821,0,0,0,1.365-.566l7.049-7.053a1.084,1.084,0,0,1,1.534,1.533l-3.628,3.63v9.741a1.084,1.084,0,0,1-1.084,1.084h10.887a1.084,1.084,0,0,1-1.084-1.084Z" transform="translate(-233.086 -245.263)" fill="#69d998"/>
  </g>
</svg>
