<svg xmlns="http://www.w3.org/2000/svg" width="60.558" height="60.557" viewBox="0 0 60.558 60.557">
  <g id="allocation_4805877" transform="translate(0 -0.006)">
    <g id="Grupo_1198373" data-name="Grupo 1198373" transform="translate(0.887 0.892)">
      <g id="Grupo_1198363" data-name="Grupo 1198363" transform="translate(18.85)">
        <path id="Trazado_1253731" data-name="Trazado 1253731" d="M186.572,19.41l-1.12-.464a8.021,8.021,0,0,0,0-1.81l1.119-.463a2.24,2.24,0,1,0-1.715-4.139L183.739,13a8.035,8.035,0,0,0-1.281-1.28l.464-1.12a2.24,2.24,0,1,0-4.139-1.715L178.319,10a8.021,8.021,0,0,0-1.81,0l-.464-1.119a2.24,2.24,0,1,0-4.139,1.715l.464,1.119A8.029,8.029,0,0,0,171.09,13l-1.12-.464a2.24,2.24,0,1,0-1.714,4.139l1.12.464a8.048,8.048,0,0,0,0,1.81l-1.119.464a2.24,2.24,0,1,0,1.714,4.139l1.119-.464.016.02,0,0a7.981,7.981,0,0,0,1.262,1.257l-.464,1.12a2.239,2.239,0,0,0,3,2.9h0a2.229,2.229,0,0,0,1.141-1.181l.464-1.119a8.049,8.049,0,0,0,1.81,0l.463,1.119a2.24,2.24,0,1,0,4.139-1.714l-.463-1.119a8.048,8.048,0,0,0,1.28-1.28l1.12.464a2.24,2.24,0,1,0,1.715-4.139ZM177.414,21.8a3.763,3.763,0,1,1,3.762-3.763A3.763,3.763,0,0,1,177.414,21.8Z" transform="translate(-166.872 -7.499)" fill="#756e78"/>
        <g id="Grupo_1198362" data-name="Grupo 1198362" transform="translate(0 0)">
          <path id="Trazado_1253732" data-name="Trazado 1253732" d="M264.617,64.817a3.739,3.739,0,0,0-.91.111,3.764,3.764,0,0,1,0,7.3,3.763,3.763,0,1,0,.91-7.414Z" transform="translate(-252.254 -58.038)" fill="#665e66"/>
          <g id="Grupo_1198361" data-name="Grupo 1198361">
            <path id="Trazado_1253733" data-name="Trazado 1253733" d="M263.873,10a8.021,8.021,0,0,1,1.81,0l.464-1.12A2.232,2.232,0,0,1,267.288,7.7l-.071-.031a2.239,2.239,0,0,0-2.927,1.213l-.44,1.063Z" transform="translate(-252.38 -7.501)" fill="#665e66"/>
            <path id="Trazado_1253734" data-name="Trazado 1253734" d="M168.9,58.591a2.24,2.24,0,0,1,1.212-2.927l1.119-.464a8.049,8.049,0,0,1,0-1.81l-1.119-.464a2.24,2.24,0,0,1-.069-4.109l-.073-.03a2.24,2.24,0,1,0-1.714,4.139l1.119.464a8.052,8.052,0,0,0,0,1.81l-1.119.464a2.24,2.24,0,1,0,1.714,4.139l.074-.031a2.232,2.232,0,0,1-1.144-1.182Z" transform="translate(-166.873 -43.753)" fill="#665e66"/>
            <path id="Trazado_1253735" data-name="Trazado 1253735" d="M266.147,165.716l-.463-1.119a8.047,8.047,0,0,1-1.81,0l-.024.057.44,1.063a2.24,2.24,0,0,0,2.927,1.212l.071-.031A2.231,2.231,0,0,1,266.147,165.716Z" transform="translate(-252.38 -146.015)" fill="#665e66"/>
            <path id="Trazado_1253736" data-name="Trazado 1253736" d="M206.341,144.575a2.24,2.24,0,0,1-3-2.9l.464-1.12a7.981,7.981,0,0,1-1.262-1.257l0,0a.189.189,0,0,0-.016-.02h1.857a8.017,8.017,0,0,0,1.281,1.28l-.464,1.12A2.24,2.24,0,0,0,206.341,144.575Z" transform="translate(-198.309 -123.694)" fill="#665e66"/>
            <path id="Trazado_1253737" data-name="Trazado 1253737" d="M206.341,7.706a2.24,2.24,0,0,0-3,2.9l.464,1.12a7.979,7.979,0,0,0-1.262,1.257l0,0a.194.194,0,0,1-.016.02h1.857a8.015,8.015,0,0,1,1.281-1.28L205.2,10.6A2.24,2.24,0,0,1,206.341,7.706Z" transform="translate(-198.309 -7.504)" fill="#665e66"/>
          </g>
        </g>
      </g>
      <g id="Grupo_1198369" data-name="Grupo 1198369" transform="translate(0 25.505)">
        <g id="Grupo_1198367" data-name="Grupo 1198367" transform="translate(29.829)">
          <g id="Grupo_1198364" data-name="Grupo 1198364" transform="translate(1.758)">
            <path id="Trazado_1253738" data-name="Trazado 1253738" d="M275.044,242.246l-.479-11.24a6.31,6.31,0,0,1,4.875-6.414l5.783-1.345a4.128,4.128,0,0,1,4.887,2.83l.286.949a4.128,4.128,0,0,1,5.013-2.6A6.31,6.31,0,0,1,300,230.765l-.489,11.481" transform="translate(-274.559 -223.139)" fill="#756e78"/>
          </g>
          <g id="Grupo_1198365" data-name="Grupo 1198365" transform="translate(1.758 0.51)">
            <path id="Trazado_1253739" data-name="Trazado 1253739" d="M280.575,233.471l.536,12.576h-6.069l-.478-11.24a6.308,6.308,0,0,1,4.874-6.414l4.052-.943a7.061,7.061,0,0,0-2.916,6.02Z" transform="translate(-274.558 -227.451)" fill="#665e66"/>
          </g>
          <path id="Trazado_1253740" data-name="Trazado 1253740" d="M285.389,381.284H262.957a3.261,3.261,0,0,1,0-6.523h22.431a3.261,3.261,0,1,1,0,6.523Z" transform="translate(-259.696 -356.828)" fill="#eaac9d"/>
          <path id="Trazado_1253741" data-name="Trazado 1253741" d="M321.148,298.477v11.361a9.443,9.443,0,1,1-18.885.119V297.886s5.172.658,12.56-3.316A11.576,11.576,0,0,0,321.148,298.477Z" transform="translate(-297.228 -286.121)" fill="#ffddce"/>
          <path id="Trazado_1253742" data-name="Trazado 1253742" d="M314.521,339.228a9.273,9.273,0,0,1-2.745.434,9.443,9.443,0,0,1-9.515-9.442V318.148a17,17,0,0,0,5.656-.6V330.22A9.445,9.445,0,0,0,314.521,339.228Z" transform="translate(-297.226 -306.384)" fill="#ffcbbe"/>
          <path id="Trazado_1253743" data-name="Trazado 1253743" d="M311.7,343.653a4.72,4.72,0,1,1-1.714-3.641A4.722,4.722,0,0,1,311.7,343.653Z" transform="translate(-297.226 -325.236)" fill="#c7ebfd"/>
          <path id="Trazado_1253744" data-name="Trazado 1253744" d="M391.543,343.653a4.72,4.72,0,1,1-2.264-4.032A4.722,4.722,0,0,1,391.543,343.653Z" transform="translate(-367.622 -325.236)" fill="#c7ebfd"/>
          <g id="Grupo_1198366" data-name="Grupo 1198366" transform="translate(7.115 14.385)">
            <path id="Trazado_1253745" data-name="Trazado 1253745" d="M327.213,351.712a4.722,4.722,0,0,1-7.363,3.914l5.649-7.554A4.716,4.716,0,0,1,327.213,351.712Z" transform="translate(-319.85 -347.68)" fill="#b6dded"/>
            <path id="Trazado_1253746" data-name="Trazado 1253746" d="M403.094,348.793a4.722,4.722,0,0,1-7.894,3.5l5.63-7.53A4.717,4.717,0,0,1,403.094,348.793Z" transform="translate(-386.288 -344.761)" fill="#b6dded"/>
          </g>
        </g>
        <g id="Grupo_1198368" data-name="Grupo 1198368" transform="translate(0 0.729)">
          <path id="Trazado_1253747" data-name="Trazado 1253747" d="M27.391,229.3H23.222a10.8,10.8,0,0,0-10.8,10.8v9.363h25.77V240.1a10.8,10.8,0,0,0-10.8-10.8Z" transform="translate(-11.839 -229.301)" fill="#a77d73"/>
          <path id="Trazado_1253748" data-name="Trazado 1253748" d="M29.846,229.581A10.807,10.807,0,0,0,21.5,240.1v9.859H12.421V240.1a10.8,10.8,0,0,1,10.8-10.8H27.39A10.852,10.852,0,0,1,29.846,229.581Z" transform="translate(-11.839 -229.301)" fill="#98695e"/>
          <path id="Trazado_1253749" data-name="Trazado 1253749" d="M31.4,380.2H10.535a3.034,3.034,0,0,1,0-6.068H31.4a3.034,3.034,0,0,1,0,6.068Z" transform="translate(-7.501 -357.004)" fill="#eaac9d"/>
          <path id="Trazado_1253750" data-name="Trazado 1253750" d="M60.414,305.4v9.467a9.443,9.443,0,1,1-18.885.119V305.4c0-.026,0-4.747,0-4.773A18.161,18.161,0,0,0,60.414,305.4Z" transform="translate(-37.504 -292.193)" fill="#ffddce"/>
          <path id="Trazado_1253751" data-name="Trazado 1253751" d="M53.786,324.005a9.34,9.34,0,0,1-2.742.432,9.442,9.442,0,0,1-9.514-9.443V300.637a18.155,18.155,0,0,0,5.645,4.046v10.312A9.446,9.446,0,0,0,53.786,324.005Z" transform="translate(-37.505 -292.2)" fill="#ffcbbe"/>
        </g>
      </g>
      <g id="Grupo_1198372" data-name="Grupo 1198372" transform="translate(2.822 2.749)">
        <g id="Grupo_1198370" data-name="Grupo 1198370" transform="translate(41.59)">
          <path id="Trazado_1253752" data-name="Trazado 1253752" d="M393.827,37.148l-.905.734a16.59,16.59,0,0,1-.9,11.233,2.884,2.884,0,0,1-5.256-2.375,10.888,10.888,0,0,0,.97-4.652l-.256.207a1.958,1.958,0,0,1-3.167-1.213l-1.283-8.069a1.958,1.958,0,0,1,2.634-2.136l7.63,2.922a1.958,1.958,0,0,1,.533,3.349Z" transform="translate(-383.004 -30.744)" fill="#dd636e"/>
          <path id="Trazado_1253753" data-name="Trazado 1253753" d="M386.292,39.108a1.958,1.958,0,0,0,3.167,1.214.156.156,0,0,1,.255.125,10.887,10.887,0,0,1-.97,4.32,2.884,2.884,0,0,0,3.448,3.952c-.057.137-.115.273-.177.408a2.884,2.884,0,1,1-5.256-2.374,10.9,10.9,0,0,0,.97-4.653l-.255.208a1.958,1.958,0,0,1-3.167-1.214l-1.285-8.069a1.96,1.96,0,0,1,1.962-2.266,2.021,2.021,0,0,0,.024.28Z" transform="translate(-382.997 -30.756)" fill="#da4a54"/>
        </g>
        <g id="Grupo_1198371" data-name="Grupo 1198371" transform="translate(0 0)">
          <path id="Trazado_1253754" data-name="Trazado 1253754" d="M32.087,37.148l.905.734a16.59,16.59,0,0,0,.9,11.233,2.884,2.884,0,1,0,5.256-2.375,10.889,10.889,0,0,1-.97-4.652l.256.207A1.958,1.958,0,0,0,41.6,41.082l1.283-8.069a1.958,1.958,0,0,0-2.634-2.136L32.62,33.8a1.958,1.958,0,0,0-.533,3.349Z" transform="translate(-31.361 -30.745)" fill="#dd636e"/>
          <path id="Trazado_1253755" data-name="Trazado 1253755" d="M35.7,50.692a2.873,2.873,0,0,1-1.808-1.577,16.587,16.587,0,0,1-.9-11.232l-.9-.734a1.958,1.958,0,0,1,.533-3.35l7.631-2.922a1.959,1.959,0,0,1,2.659,1.854,1.94,1.94,0,0,0-.673.131L34.6,35.784a1.958,1.958,0,0,0-.533,3.35l.9.734A16.577,16.577,0,0,0,35.7,50.692Z" transform="translate(-31.361 -30.744)" fill="#da4a54"/>
        </g>
      </g>
    </g>
    <g id="Grupo_1198374" data-name="Grupo 1198374" transform="translate(0 0.006)">
      <path id="Trazado_1253756" data-name="Trazado 1253756" d="M171.123,20.405l.218.527a3.127,3.127,0,0,0,5.778-2.394l-.218-.527q.242-.225.468-.468l.527.218a3.127,3.127,0,0,0,2.393-5.778l-.527-.218q.012-.331,0-.662l.527-.218A3.127,3.127,0,0,0,177.9,5.106l-.527.218q-.225-.242-.468-.468l.218-.527a3.127,3.127,0,1,0-5.778-2.393l-.218.527q-.331-.012-.662,0l-.218-.527a3.127,3.127,0,1,0-5.778,2.393l.218.527q-.242.225-.468.468l-.527-.218a3.127,3.127,0,1,0-2.394,5.778l.527.218q-.012.331,0,.662l-.527.218a3.127,3.127,0,1,0,2.393,5.778l.527-.218q.225.242.468.468l-.218.527a3.127,3.127,0,0,0,5.778,2.394l.218-.527q.331.013.662,0Zm-1.136-1.814a.887.887,0,0,0-.92.542l-.464,1.12a1.353,1.353,0,1,1-2.5-1.036l.464-1.12a.887.887,0,0,0-.267-1.034,7.162,7.162,0,0,1-1.139-1.138.887.887,0,0,0-1.033-.267l-1.119.464a1.353,1.353,0,0,1-1.036-2.5l1.119-.464a.887.887,0,0,0,.542-.919,7.16,7.16,0,0,1,0-1.61.887.887,0,0,0-.542-.92l-1.12-.464a1.353,1.353,0,0,1,1.036-2.5l1.12.464a.887.887,0,0,0,1.033-.267A7.162,7.162,0,0,1,166.3,5.8a.887.887,0,0,0,.267-1.033L166.1,3.651a1.353,1.353,0,0,1,2.5-1.036l.464,1.119a.887.887,0,0,0,.919.542,7.162,7.162,0,0,1,1.611,0,.887.887,0,0,0,.92-.542l.464-1.12a1.353,1.353,0,1,1,2.5,1.036l-.464,1.12a.887.887,0,0,0,.267,1.034,7.162,7.162,0,0,1,1.139,1.138.887.887,0,0,0,1.033.267l1.119-.464a1.353,1.353,0,0,1,1.036,2.5l-1.119.464a.887.887,0,0,0-.542.919,7.161,7.161,0,0,1,0,1.61.887.887,0,0,0,.542.92l1.12.464a1.353,1.353,0,1,1-1.036,2.5l-1.12-.464a.887.887,0,0,0-1.034.267,7.158,7.158,0,0,1-1.138,1.139.887.887,0,0,0-.267,1.033l.464,1.119a1.353,1.353,0,1,1-2.5,1.036l-.464-1.119a.886.886,0,0,0-.919-.542,7.163,7.163,0,0,1-1.611,0Z" transform="translate(-140.513 -0.006)"/>
      <path id="Trazado_1253757" data-name="Trazado 1253757" d="M225.988,61.969a4.65,4.65,0,1,0-4.65,4.65A4.655,4.655,0,0,0,225.988,61.969Zm-4.65,2.875a2.875,2.875,0,1,1,2.875-2.876A2.879,2.879,0,0,1,221.339,64.844Z" transform="translate(-191.06 -50.54)"/>
      <path id="Trazado_1253758" data-name="Trazado 1253758" d="M280.746,234.078l.42-9.886c0-.1.007-.2.007-.306a7.222,7.222,0,0,0-5.245-6.925,5.01,5.01,0,0,0-5.029,1.41,5.029,5.029,0,0,0-5.6-2.6l-5.782,1.345a7.2,7.2,0,0,0-5.561,7.316l.411,9.639a4.149,4.149,0,0,0,1.973,7.8h1a10.333,10.333,0,0,0,10.22,8.822h.079a10.4,10.4,0,0,0,10.125-8.822h1.012a4.147,4.147,0,0,0,1.974-7.8ZM255.73,224.36a5.426,5.426,0,0,1,4.19-5.512L265.7,217.5a3.248,3.248,0,0,1,3.837,2.223l.286.949a.887.887,0,0,0,1.686.038,3.239,3.239,0,0,1,3.935-2.044,5.441,5.441,0,0,1,3.952,5.217c0,.078,0,.157-.005.233l-.4,9.465q-.109-.006-.219-.006h-.886v-4.691a.887.887,0,0,0-.726-.872,10.759,10.759,0,0,1-5.785-3.578.887.887,0,0,0-1.122-.238c-7.009,3.77-11.981,3.223-12.028,3.217a.887.887,0,0,0-1,.88v5.282h-.886c-.073,0-.146,0-.218.006Zm20.382,10.627a3.835,3.835,0,1,1,0-.077Zm-3.833-5.648a5.608,5.608,0,0,0-4.722,2.587A5.6,5.6,0,0,0,259,230.86v-1.635a25.488,25.488,0,0,0,11.465-3.134,12.46,12.46,0,0,0,5.645,3.505v1.264A5.587,5.587,0,0,0,272.279,229.339ZM259,234.918a3.835,3.835,0,1,1,0,.059Zm-5.035,2.808a2.372,2.372,0,0,1,2.375-2.375h.886V240.1h-.886A2.376,2.376,0,0,1,253.966,237.726Zm13.656,11.195A8.555,8.555,0,0,1,259,240.366v-1.33a5.6,5.6,0,0,0,8.555-1.067,5.6,5.6,0,0,0,8.555,1.067v1.211A8.638,8.638,0,0,1,267.622,248.921Zm12.83-9.517a2.36,2.36,0,0,1-1.68.695h-.886v-4.748h.886a2.374,2.374,0,0,1,1.68,4.053Z" transform="translate(-222.363 -190.139)"/>
      <path id="Trazado_1253762" data-name="Trazado 1253762" d="M28.126,233.488A11.7,11.7,0,0,0,16.439,221.8H12.27A11.7,11.7,0,0,0,.583,233.488v7.3a3.923,3.923,0,0,0,3.338,5.98h.186a10.252,10.252,0,0,0,1.694,4.5.887.887,0,1,0,1.468-1,8.5,8.5,0,0,1-1.47-4.795v-12.3A20.25,20.25,0,0,0,9.612,235.7a18.594,18.594,0,0,0,13.3,1.382v8.286a8.639,8.639,0,0,1-8.491,8.674,8.506,8.506,0,0,1-4.884-1.486.887.887,0,0,0-1,1.465,10.26,10.26,0,0,0,5.817,1.8h.081a10.4,10.4,0,0,0,10.157-9.039h.2a3.918,3.918,0,0,0,3.339-5.975v-7.309ZM1.774,242.853A2.146,2.146,0,0,1,3.921,240.7h.1V245h-.1a2.149,2.149,0,0,1-2.147-2.146Zm8.7-8.708a17.321,17.321,0,0,1-4.892-3.6.887.887,0,0,0-1.559.579v7.807h-.1a3.914,3.914,0,0,0-1.564.324v-5.767a9.925,9.925,0,0,1,9.913-9.914h4.169a9.925,9.925,0,0,1,9.913,9.914v5.769a3.9,3.9,0,0,0-1.564-.326h-.1V235.9a.887.887,0,0,0-1.158-.845A16.757,16.757,0,0,1,10.477,234.145Zm15.83,10.225a2.134,2.134,0,0,1-1.52.628h-.1V240.7h.1a2.147,2.147,0,0,1,1.52,3.665Z" transform="translate(0 -195.567)"/>
      <path id="Trazado_1253766" data-name="Trazado 1253766" d="M376.825,34.6a2.856,2.856,0,0,0,3.325,2.355,9.992,9.992,0,0,1-.806,2.8,3.771,3.771,0,0,0,6.874,3.1,17.672,17.672,0,0,0,1.358-4.559.887.887,0,1,0-1.753-.272,15.9,15.9,0,0,1-1.222,4.1,2,2,0,0,1-3.641-1.643,11.7,11.7,0,0,0,1.05-5.032.887.887,0,0,0-1.447-.674l-.253.207a1.072,1.072,0,0,1-1.733-.664l-1.283-8.069a1.072,1.072,0,0,1,1.441-1.17L386.364,28a1.071,1.071,0,0,1,.292,1.833l-.9.735a.887.887,0,0,0-.3.921,15.877,15.877,0,0,1,.528,3.232.887.887,0,1,0,1.771-.1,17.608,17.608,0,0,0-.444-3.031l.464-.377A2.845,2.845,0,0,0,387,26.348l-7.631-2.923a2.846,2.846,0,0,0-3.827,3.105Z" transform="translate(-331.091 -20.487)"/>
      <path id="Trazado_1253767" data-name="Trazado 1253767" d="M24.91,31.216l.464.377a17.594,17.594,0,0,0,1.091,11.266,3.771,3.771,0,0,0,6.873-3.105,10,10,0,0,1-.8-2.8A2.855,2.855,0,0,0,35.858,34.6l1.283-8.069a2.845,2.845,0,0,0-3.827-3.1l-7.63,2.922a2.845,2.845,0,0,0-.775,4.867Zm.734-2.378a1.052,1.052,0,0,1,.675-.832l7.63-2.922a1.045,1.045,0,0,1,1.058.168,1.052,1.052,0,0,1,.383,1l-1.283,8.069a1.071,1.071,0,0,1-1.732.664l-.256-.207a.887.887,0,0,0-1.446.676,11.712,11.712,0,0,0,1.049,5.031,2,2,0,1,1-3.64,1.644,15.808,15.808,0,0,1-.852-10.635.887.887,0,0,0-.3-.922l-.905-.734A1.052,1.052,0,0,1,25.644,28.838Z" transform="translate(-21.034 -20.488)"/>
    </g>
  </g>
</svg>
