<svg xmlns="http://www.w3.org/2000/svg" width="61" height="62.289" viewBox="0 0 61 62.289">
  <g id="partnership_18321003" transform="translate(-28.71 -24.15)">
    <g id="Grupo_1198375" data-name="Grupo 1198375" transform="translate(29.65 25.091)">
      <path id="Trazado_1253768" data-name="Trazado 1253768" d="M112.174,31.16h3.2a1.706,1.706,0,0,1,1.7,1.7v1.244a1.684,1.684,0,0,0,1.263,1.644,17.45,17.45,0,0,1,4.239,1.759,1.683,1.683,0,0,0,2.055-.27l.883-.883a1.7,1.7,0,0,1,2.4,0l2.267,2.267a1.705,1.705,0,0,1,0,2.406l-.883.883a1.688,1.688,0,0,0-.27,2.055A17.476,17.476,0,0,1,130.8,48.21a1.682,1.682,0,0,0,1.644,1.263h1.248a1.706,1.706,0,0,1,1.7,1.7v3.208a1.706,1.706,0,0,1-1.7,1.7h-1.248a1.685,1.685,0,0,0-1.644,1.259,17.439,17.439,0,0,1-1.759,4.243,1.688,1.688,0,0,0,.27,2.055l.883.883a1.7,1.7,0,0,1,0,2.4L127.924,69.2a1.7,1.7,0,0,1-2.4,0l-.883-.883a1.683,1.683,0,0,0-2.055-.27,17.5,17.5,0,0,1-4.239,1.759,1.682,1.682,0,0,0-1.263,1.644V72.69a1.7,1.7,0,0,1-1.7,1.7h-3.2a1.7,1.7,0,0,1-1.7-1.7V71.445A1.688,1.688,0,0,0,109.21,69.8a17.545,17.545,0,0,1-4.243-1.759,1.683,1.683,0,0,0-2.055.27l-.879.883a1.709,1.709,0,0,1-2.408,0l-2.265-2.267a1.7,1.7,0,0,1,0-2.4l.879-.883a1.683,1.683,0,0,0,.27-2.055,17.6,17.6,0,0,1-1.759-4.243,1.68,1.68,0,0,0-1.644-1.259H93.861a1.706,1.706,0,0,1-1.7-1.7V51.174a1.706,1.706,0,0,1,1.7-1.7h1.244A1.681,1.681,0,0,0,96.75,48.21a17.583,17.583,0,0,1,1.759-4.239,1.683,1.683,0,0,0-.27-2.055l-.879-.883a1.7,1.7,0,0,1,0-2.406l2.265-2.267a1.709,1.709,0,0,1,2.408,0l.879.883a1.683,1.683,0,0,0,2.055.27,17.6,17.6,0,0,1,4.243-1.759,1.683,1.683,0,0,0,1.259-1.644V32.865A1.707,1.707,0,0,1,112.174,31.16Z" transform="translate(-84.582 -31.16)" fill="#95d6a4" fill-rule="evenodd"/>
      <path id="Trazado_1253769" data-name="Trazado 1253769" d="M182.241,110.24a11,11,0,1,1-11,11A11,11,0,0,1,182.241,110.24Z" transform="translate(-153.046 -99.624)" fill="#b3b3b3" fill-rule="evenodd"/>
      <path id="Trazado_1253770" data-name="Trazado 1253770" d="M225.395,144.4a11,11,0,0,1-13.584,15.879A11,11,0,0,1,225.395,144.4Z" transform="translate(-186.794 -128.489)" fill="#e6e6e6" fill-rule="evenodd"/>
      <path id="Trazado_1253771" data-name="Trazado 1253771" d="M57.638,229.036c1.1,0,2.34-2.636,2.614-3.292-.4-2.146-3.155-4.384-2.842-6.857-1.5-3.306,9.464-8.089,12.055-5.617,2.865.734,3.333,4.719,2.785,9.064-.521,4.155-.807,5.579-6.568,5.233a7.977,7.977,0,0,1-1.477,3.8c-2.728-.3-4.771.262-6.567-2.333Z" transform="translate(-54.376 -188.232)" fill="#ff9aa2" fill-rule="evenodd"/>
      <path id="Trazado_1253772" data-name="Trazado 1253772" d="M35.71,335.779v16.005H50.09V343.6c.929.419,3.76,2.645,4.706,2.789l8.5-.008a3.091,3.091,0,0,0,1.141-.035,3.083,3.083,0,0,1,.042-6.1c-.072-.015-.149-.031-.228-.042l-8.056-.332C51.886,337.469,38.918,325.615,35.71,335.779Z" transform="translate(-35.71 -291.376)" fill="#31a7fb" fill-rule="evenodd"/>
      <path id="Trazado_1253773" data-name="Trazado 1253773" d="M35.71,335.779v2.07c1.91,5.654,7.371,10.924,14.38,13.934V343.6c.929.419,3.76,2.645,4.706,2.79l8.5-.008a3.091,3.091,0,0,0,1.141-.035,3.083,3.083,0,0,1,.042-6.1c-.072-.015-.149-.031-.228-.042l-8.056-.332C51.886,337.469,38.918,325.615,35.71,335.779Z" transform="translate(-35.71 -291.376)" fill="#64b9fc" fill-rule="evenodd"/>
      <path id="Trazado_1253774" data-name="Trazado 1253774" d="M51.832,190.3c-6.248-8.456,1-17.516,8.7-15.456,1.346.361,5.069,2.657,6.388,2.2,3.866-1.336,4.951,3.543-.442,6.146-3.406,1.64-5.7-2.926-9.1,1.709-1.9-1.385-4.612-.419-2.767,2.626C54.877,188.74,52.952,189.619,51.832,190.3Z" transform="translate(-47.62 -155.296)" fill="#543e5b" fill-rule="evenodd"/>
      <path id="Trazado_1253775" data-name="Trazado 1253775" d="M359.46,229.036c-1.1,0-2.34-2.636-2.614-3.292.4-2.146,3.155-4.384,2.839-6.857,1.5-3.306-9.46-8.089-12.051-5.617-2.865.734-3.333,4.719-2.79,9.064.525,4.155.811,5.579,6.571,5.233a7.977,7.977,0,0,0,1.477,3.8c2.726-.3,4.767.262,6.567-2.333Z" transform="translate(-303.176 -188.232)" fill="#ff9aa2" fill-rule="evenodd"/>
      <path id="Trazado_1253776" data-name="Trazado 1253776" d="M329.577,190.3c6.248-8.456-1-17.516-8.7-15.456-1.35.361-5.069,2.657-6.388,2.2-3.866-1.336-4.951,3.543.442,6.146,3.406,1.64,5.7-2.926,9.1,1.709,1.9-1.385,4.612-.419,2.767,2.626C326.532,188.74,328.459,189.619,329.577,190.3Z" transform="translate(-274.244 -155.296)" fill="#543e5b" fill-rule="evenodd"/>
      <path id="Trazado_1253777" data-name="Trazado 1253777" d="M278.861,340.643c2.29-.011,5.7-.019,6.05-.019,4.314-2.4,17.219-14.578,20.426-4.414v16.005H290.954v-8.185c-.925.419-3.756,2.645-4.7,2.79l-7.39-.008v-6.17Z" transform="translate(-246.22 -291.806)" fill="#a15240" fill-rule="evenodd"/>
      <path id="Trazado_1253778" data-name="Trazado 1253778" d="M287.049,351.423v-7.546c-.925.419-3.756,2.645-4.7,2.789l-8-.008h.605v-6.164l6.05-.023c3.924-2.18,14.936-12.5,19.327-6.656,0,.077,0,.152,0,.228C300.338,340.7,294.858,347.472,287.049,351.423Z" transform="translate(-242.315 -291.654)" fill="#ce7867" fill-rule="evenodd"/>
      <path id="Trazado_1253779" data-name="Trazado 1253779" d="M233.282,394.98h3.451v6.164h-3.451a3.082,3.082,0,0,1,0-6.164Z" transform="translate(-204.092 -346.141)" fill="#ff9aa2" fill-rule="evenodd"/>
    </g>
    <path id="Trazado_1253780" data-name="Trazado 1253780" d="M58.84,72.991l9.25-.019c.746-.442,1.788-1.187,2.983-2.043a66.223,66.223,0,0,1,6.411-4.216,8.574,8.574,0,0,1-.4-1.313c-2.306.072-3.74-.205-4.71-.909a2.649,2.649,0,0,1-2.451-.7l-.879-.879a.737.737,0,0,0-.921-.126,18.342,18.342,0,0,1-4.472,1.853.743.743,0,0,0-.564.738v1.244a2.642,2.642,0,0,1-2.641,2.641h-3.2a2.642,2.642,0,0,1-2.64-2.641V65.372a.746.746,0,0,0-.566-.738,18.442,18.442,0,0,1-4.468-1.853.735.735,0,0,0-.921.126l-.883.879a2.494,2.494,0,0,1-.726.51,2.451,2.451,0,0,1-.566.2c-.971.7-2.4.977-4.706.906a8.89,8.89,0,0,1-.411,1.336,69.542,69.542,0,0,1,6.2,4.011c1.13.792,2.116,1.481,2.854,1.91l7.828.324a2.547,2.547,0,0,0,.605.009Zm4.387,1.869v4.3l6.363.008a15.989,15.989,0,0,0,2.526-1.537,20.029,20.029,0,0,1,1.842-1.153l6.6-3.908a.937.937,0,1,1,.954,1.614l-6.187,3.665v6.712h12.5V69.643c-1.081-3.242-3.418-3.63-6.065-2.8-3.159,1-6.8,3.607-9.6,5.609-1.332.954-2.481,1.777-3.368,2.271a.921.921,0,0,1-.456.118Zm-.856,6.172-3.532,0a4.068,4.068,0,0,1-.43-.023,4.244,4.244,0,0,1-1.236.019l-8.429.008c-.811,0-2.611-1.259-3.775-2.043v6.5a.937.937,0,0,1-.94.94H29.65a.939.939,0,0,1-.94-.94V69.494a.916.916,0,0,1,.046-.282c.932-2.957,2.561-4.314,4.559-4.654a5.6,5.6,0,0,0,.51-.711,12.1,12.1,0,0,0,.715-1.332,4.878,4.878,0,0,0-.35-.822c-.118-.224-.243-.448-.38-.67a.944.944,0,0,1-.7-.377,12.067,12.067,0,0,1-2.549-7.218,10.075,10.075,0,0,1,5.876-9.174,2.637,2.637,0,0,1,2.5-1.792h1.244a.741.741,0,0,0,.738-.564,18.515,18.515,0,0,1,1.853-4.472.741.741,0,0,0-.122-.921l-.883-.879a2.639,2.639,0,0,1-.772-1.869h0a2.632,2.632,0,0,1,.769-1.865v0l2.267-2.265a2.64,2.64,0,0,1,3.733,0l.883.879a.735.735,0,0,0,.921.126,18.314,18.314,0,0,1,4.468-1.853.745.745,0,0,0,.566-.738V26.795a2.645,2.645,0,0,1,2.64-2.645h3.2a2.647,2.647,0,0,1,2.641,2.645v1.244a.744.744,0,0,0,.564.738,18.448,18.448,0,0,1,4.472,1.853.736.736,0,0,0,.921-.126l.879-.879a2.645,2.645,0,0,1,3.737,0l2.267,2.265a2.652,2.652,0,0,1,0,3.737l-.883.879a.741.741,0,0,0-.122.921A18.568,18.568,0,0,1,76.775,41.9c.315,1.191,1.979-.035,3.509,1.054a2.707,2.707,0,0,1,.734.792,9.9,9.9,0,0,1,5.533,4.018,10.126,10.126,0,0,1,1.736,5.666,12.061,12.061,0,0,1-2.549,7.218.954.954,0,0,1-.7.377l-.377.67a4.651,4.651,0,0,0-.35.822,11.926,11.926,0,0,0,.818,1.5,4.936,4.936,0,0,0,.56.72c1.732.46,3.14,1.815,3.98,4.482a.916.916,0,0,1,.046.282V85.5a.94.94,0,0,1-.94.94H74.384a.936.936,0,0,1-.936-.94V79c-1.164.784-2.964,2.047-3.779,2.043Zm-6.928-1.873a4,4,0,0,1,.081-4.418l-5.419-.22a.939.939,0,0,1-.442-.133c-.822-.46-1.91-1.222-3.177-2.108-2.759-1.929-6.382-4.468-9.574-5.476-2.759-.871-5.206-.5-6.32,2.839V84.561H43.1V77.849l-6.187-3.665a.937.937,0,1,1,.954-1.614l6.6,3.908A19.739,19.739,0,0,1,46.3,77.631a15.988,15.988,0,0,0,2.526,1.537Zm5.909-4.288H58.84a2.142,2.142,0,0,0,0,4.285h2.512Zm17.812-9.016a13.761,13.761,0,0,1,4.113-1.263,14.844,14.844,0,0,1-.822-1.628.976.976,0,0,1-.058-.537,6.863,6.863,0,0,1,.936-2.215c-1.195-.724-2.363-1.651-2.051-3.1h0a.84.84,0,0,1,.114-.286c.38-.628.662-1.412.342-1.678-.38-.315-1.226-.1-1.755.293a.944.944,0,0,1-1.313-.2c-2.29-3.124-3.953-1.077-6.484-.948a18.121,18.121,0,0,0,.054,4.779c.232,1.834.411,3.132,1.047,3.748s1.952.822,4.544.666a.939.939,0,0,1,.993.917,5.268,5.268,0,0,0,.334,1.451Zm5.54-7.013c4.851-7.508-1.522-15.085-8.181-13.3-1.45.388-5.115,2.8-6.938,2.176-2.679-.917-2.512,1.838-.479,3.4a8.244,8.244,0,0,0,1.632,1.02,4.044,4.044,0,0,0,3.078-.1c1.875-.56,3.68-1.1,5.853,1.442,1.67-.742,3.688-.274,4.038,1.537a3.847,3.847,0,0,1-.589,2.584C83.182,57.941,83.978,58.424,84.7,58.843ZM70.339,54a9.371,9.371,0,0,1-1.5-.78,11.944,11.944,0,0,1-19.677.475l-.662.3a23.567,23.567,0,0,1-.286,6.983,2.626,2.626,0,0,1,2.287.175,16.6,16.6,0,0,0,4.015,1.663,2.623,2.623,0,0,1,1.956,2.549v1.244a.77.77,0,0,0,.765.765h3.2a.767.767,0,0,0,.761-.765V65.372a2.625,2.625,0,0,1,1.96-2.549,16.658,16.658,0,0,0,4.015-1.663,2.624,2.624,0,0,1,3.188.415l.483.483a28.664,28.664,0,0,1-.666-6.15A14.015,14.015,0,0,1,70.339,54Zm-2.975-1.94c-2.983-2.964-1.636-6.548,1.487-6.388a10.06,10.06,0,0,0-20.034.22c4.212-1.317,6.237,3.447,1.941,6.8A10.074,10.074,0,0,0,67.364,52.063Zm3.394-6.141c1.377-.315,3.824-1.732,5.115-2.142a2.653,2.653,0,0,1-.913-1.4A16.5,16.5,0,0,0,73.3,38.367a2.625,2.625,0,0,1,.419-3.188l.879-.879a.767.767,0,0,0,0-1.081L72.33,30.955a.762.762,0,0,0-1.077,0l-.883.879a2.619,2.619,0,0,1-3.188.419,16.636,16.636,0,0,0-4.015-1.663,2.629,2.629,0,0,1-1.96-2.549V26.8a.767.767,0,0,0-.761-.765h-3.2a.77.77,0,0,0-.765.765h0V28.04h0a2.624,2.624,0,0,1-1.96,2.549,16.469,16.469,0,0,0-4.011,1.663,2.625,2.625,0,0,1-3.188-.419l-.883-.879a.762.762,0,0,0-1.077,0L43.09,33.219a.766.766,0,0,0-.224.541h0a.767.767,0,0,0,.22.541l.883.879,0,0a2.616,2.616,0,0,1,.419,3.186,16.624,16.624,0,0,0-1.659,4.015,2.644,2.644,0,0,1-.674,1.176,10.074,10.074,0,0,1,2.881,1.07c.662.309,1.385.647,2.024.909a11.941,11.941,0,0,1,23.8.381ZM46.653,54.3c-2.53-.129-4.194-2.176-6.484.948a.939.939,0,0,1-1.354.168c-.589-.446-1.724-.609-1.834-.046a2.275,2.275,0,0,0,.464,1.465.814.814,0,0,1,.114.286h0c.311,1.446-.856,2.375-2.051,3.1a6.882,6.882,0,0,1,.936,2.215.966.966,0,0,1-.058.537,15.721,15.721,0,0,1-.807,1.6,14.982,14.982,0,0,1,4.086,1.313,5.43,5.43,0,0,0,.35-1.508.938.938,0,0,1,.989-.883c2.481.149,3.866-.011,4.544-.666.628-.612.807-1.869,1.043-3.748A18.066,18.066,0,0,0,46.653,54.3Zm-14.221-.869a9.941,9.941,0,0,0,1.7,5.415c.73-.419,1.526-.9,1.591-1.244,0,0-1.537-2.474.175-3.893a3.168,3.168,0,0,1,3.273-.228c2.173-2.542,3.976-2,5.853-1.442,1.765.533,2.393.575,3.947-.38a4.577,4.577,0,0,0,2.249-2.675c.274-1.248-.609-1.732-1.964-1.263a2.811,2.811,0,0,1-1.462.015.924.924,0,0,1-.319-.072,20.372,20.372,0,0,1-3.333-1.34,14.713,14.713,0,0,0-1.823-.78,8.007,8.007,0,0,0-9.889,7.888ZM53.68,48.935a.937.937,0,1,1,1.153-1.477l3.074,2.4,4.71-8.162a.936.936,0,1,1,1.624.932l-5.328,9.2a.934.934,0,0,1-1.313.16Z"/>
  </g>
</svg>
