<svg xmlns="http://www.w3.org/2000/svg" xmlns:xlink="http://www.w3.org/1999/xlink" width="118" height="118" viewBox="0 0 118 118">
  <defs>
    <filter id="Elipse_12115" x="0" y="0" width="118" height="118" filterUnits="userSpaceOnUse">
      <feOffset dy="3" input="SourceAlpha"/>
      <feGaussianBlur stdDeviation="3" result="blur"/>
      <feFlood flood-opacity="0.161"/>
      <feComposite operator="in" in2="blur"/>
      <feComposite in="SourceGraphic"/>
    </filter>
  </defs>
  <g id="Grupo_1198556" data-name="Grupo 1198556" transform="translate(-794.781 -2863.815)">
    <g id="Grupo_1198381" data-name="Grupo 1198381" transform="translate(-5 320.815)">
      <g transform="matrix(1, 0, 0, 1, 799.78, 2543)" filter="url(#Elipse_12115)">
        <g id="Elipse_12115-2" data-name="Elipse 12115" transform="translate(9 6)" fill="#f6dfb0" stroke="#a27a29" stroke-width="2">
          <circle cx="50" cy="50" r="50" stroke="none"/>
          <circle cx="50" cy="50" r="49" fill="none"/>
        </g>
      </g>
    </g>
    <g id="Oganization-Management" transform="translate(817.23 2879.835)">
      <path id="Trazado_1253949" data-name="Trazado 1253949" d="M61.575,24.1v9.377l-1.231.141-5.392.6a19.481,19.481,0,0,1-1.782,4.29l2.837,3.54,1.325,1.664-6.623,6.623-5.2-4.161a3.092,3.092,0,0,1-.34.176,18.131,18.131,0,0,1-3.5,1.465c-.152.059-.293.094-.445.141l-.738,6.623H31.1l-.738-6.623c-.152-.047-.293-.082-.445-.141a18.131,18.131,0,0,1-3.5-1.465,3.094,3.094,0,0,1-.34-.176l-5.2,4.161-6.623-6.623L18.4,38.5a19.481,19.481,0,0,1-1.782-4.29L10,33.476V24.1l6.623-.738A19.481,19.481,0,0,1,18.4,19.07l-4.161-5.2,6.623-6.623,5.2,4.161a19.481,19.481,0,0,1,4.29-1.782L31.1,3h9.377l.738,6.623A19.481,19.481,0,0,1,45.5,11.4l5.2-4.161,6.623,6.623-4.161,5.2a19.481,19.481,0,0,1,1.782,4.29Z" transform="translate(1.033 0.172)" fill="#ff9811"/>
      <path id="Trazado_1253950" data-name="Trazado 1253950" d="M60.863,60.053v2.462H50.313L48.18,55.271l.961-.961,3.516,1.172.821-3.282,3.212,1.43a7.033,7.033,0,0,1,4.173,6.423Z" transform="translate(7.606 8.642)" fill="#3d9ae2"/>
      <path id="Trazado_1253951" data-name="Trazado 1253951" d="M55.179,39a2.344,2.344,0,0,1,0,4.689,2.379,2.379,0,0,1-1.219-.34,6.481,6.481,0,0,0,.047-.832v-3.2A2.344,2.344,0,0,1,55.179,39Z" transform="translate(8.601 6.37)" fill="#ffb655"/>
      <path id="Trazado_1253952" data-name="Trazado 1253952" d="M53.509,52.407l-.821,3.282-3.516-1.172L48,52.172,50.344,51Z" transform="translate(7.575 8.436)" fill="#1e81ce"/>
      <path id="Trazado_1253953" data-name="Trazado 1253953" d="M55.754,38.516a2.355,2.355,0,0,1-2.227-1.606L52.894,35l-2.051,1.536-.141.106a9.356,9.356,0,0,1-5.626,1.875H40v4.689a6.481,6.481,0,0,0,.047.832,8.2,8.2,0,0,0,16.316,0,6.481,6.481,0,0,0,.047-.832V38.516Z" transform="translate(6.198 5.681)" fill="#ffc477"/>
      <path id="Trazado_1253954" data-name="Trazado 1253954" d="M51.033,48v3.516l-2.344,1.172H46.344L44,51.516V48Z" transform="translate(6.886 7.919)" fill="#ffc477"/>
      <path id="Trazado_1253955" data-name="Trazado 1253955" d="M48.9,54.82l2.133,7.244H44l2.133-7.244L47.516,56.2Z" transform="translate(6.886 9.093)" fill="#ed1c24"/>
      <path id="Trazado_1253956" data-name="Trazado 1253956" d="M48.516,52l1.172,2.344-.961.961-1.383,1.383-1.383-1.383L45,54.344,46.172,52Z" transform="translate(7.058 8.608)" fill="#ed1c24"/>
      <path id="Trazado_1253957" data-name="Trazado 1253957" d="M46.809,52.172l-1.172,2.344-3.516,1.172L41.3,52.407,44.465,51Z" transform="translate(6.421 8.436)" fill="#1e81ce"/>
      <path id="Trazado_1253958" data-name="Trazado 1253958" d="M47.683,55.271l-2.133,7.244H35V60.053a7.032,7.032,0,0,1,4.171-6.423L42.385,52.2l.821,3.282,3.516-1.172Z" transform="translate(5.337 8.642)" fill="#3d9ae2"/>
      <path id="Trazado_1253959" data-name="Trazado 1253959" d="M44.459,31.41H38.41L40.755,36.1a11.722,11.722,0,0,1-14.066,0v-.012a4.689,4.689,0,0,0-3.645-4.56A11.382,11.382,0,0,1,22,26.722a11.722,11.722,0,1,1,23.443,0,11.582,11.582,0,0,1-.985,4.689Z" transform="translate(3.099 2.238)" fill="#ffd422"/>
      <path id="Trazado_1253960" data-name="Trazado 1253960" d="M55.868,29.141A4.326,4.326,0,0,0,54.755,29H36l2.344,4.689-1.172,2.344,3.516,3.516h5.075a9.356,9.356,0,0,0,5.626-1.875l.141-.105,2.051-1.536.633,1.911a2.355,2.355,0,0,0,2.227,1.606H57.1l2.344-2.344V33.689a4.678,4.678,0,0,0-3.575-4.548Z" transform="translate(5.509 4.648)" fill="#57565c"/>
      <path id="Trazado_1253961" data-name="Trazado 1253961" d="M40.517,42.516v-3.2A2.344,2.344,0,0,0,37,41.344a1.992,1.992,0,0,0,.012.27,2.35,2.35,0,0,0,3.552,1.735,6.48,6.48,0,0,1-.047-.832Z" transform="translate(5.681 6.37)" fill="#ffb655"/>
      <path id="Trazado_1253962" data-name="Trazado 1253962" d="M37.569,22.8a2.33,2.33,0,0,1-.293,2.93l-4.513,4.513L28.25,25.732a2.319,2.319,0,0,1,1.641-3.962,2.274,2.274,0,0,1,1.289.387l1.582,1.055,1.582-1.055A2.324,2.324,0,0,1,37.569,22.8Z" transform="translate(4.057 3.403)" fill="#ed1c24"/>
      <path id="Trazado_1253963" data-name="Trazado 1253963" d="M30.863,60.053v2.462H20.313L18.18,55.271l.961-.961,3.516,1.172.821-3.282,3.212,1.43a7.033,7.033,0,0,1,4.173,6.423Z" transform="translate(2.441 8.642)" fill="#3d9ae2"/>
      <path id="Trazado_1253964" data-name="Trazado 1253964" d="M25.179,39a2.344,2.344,0,0,0-1.172.316v3.2a6.48,6.48,0,0,1-.047.832,2.35,2.35,0,0,0,3.552-1.735,1.993,1.993,0,0,0,.012-.27A2.351,2.351,0,0,0,25.179,39Z" transform="translate(3.436 6.37)" fill="#ffb655"/>
      <path id="Trazado_1253965" data-name="Trazado 1253965" d="M25.754,38.516a2.355,2.355,0,0,1-2.227-1.606l-.34-1.032L22.894,35,20.7,36.641a9.356,9.356,0,0,1-5.626,1.875H10v4.689a6.48,6.48,0,0,0,.047.832,8.2,8.2,0,0,0,16.316,0,6.481,6.481,0,0,0,.047-.832V38.516Z" transform="translate(1.033 5.681)" fill="#ffc477"/>
      <path id="Trazado_1253966" data-name="Trazado 1253966" d="M23.509,52.407l-.821,3.282-3.516-1.172L18,52.172,20.344,51Z" transform="translate(2.41 8.436)" fill="#1e81ce"/>
      <path id="Trazado_1253967" data-name="Trazado 1253967" d="M21.033,48v3.516l-2.344,1.172H16.344L14,51.516V48Z" transform="translate(1.722 7.919)" fill="#ffc477"/>
      <path id="Trazado_1253968" data-name="Trazado 1253968" d="M18.9,54.82l2.133,7.244H14l2.133-7.244L17.516,56.2Z" transform="translate(1.722 9.093)" fill="#ed1c24"/>
      <path id="Trazado_1253969" data-name="Trazado 1253969" d="M18.516,52l1.172,2.344-.961.961-1.383,1.383-1.383-1.383L15,54.344,16.172,52Z" transform="translate(1.894 8.608)" fill="#ed1c24"/>
      <path id="Trazado_1253970" data-name="Trazado 1253970" d="M25.8,29.117A4.312,4.312,0,0,0,24.755,29H6l2.344,4.689L7.172,36.033l3.516,3.516h5.075a9.356,9.356,0,0,0,5.626-1.875l2.192-1.641.293.879.34,1.032a2.355,2.355,0,0,0,2.227,1.606H27.1l2.344-2.344V33.677a4.689,4.689,0,0,0-3.645-4.56Z" transform="translate(0.344 4.648)" fill="#57565c"/>
      <path id="Trazado_1253971" data-name="Trazado 1253971" d="M16.809,52.172l-1.172,2.344-3.516,1.172L11.3,52.407,14.465,51Z" transform="translate(1.257 8.436)" fill="#1e81ce"/>
      <path id="Trazado_1253972" data-name="Trazado 1253972" d="M17.683,55.271l-2.133,7.244H5V60.053a7.032,7.032,0,0,1,4.171-6.423L12.385,52.2l.821,3.282,3.516-1.172Z" transform="translate(0.172 8.642)" fill="#3d9ae2"/>
      <g id="Grupo_1198555" data-name="Grupo 1198555" transform="translate(7.512 45.37)">
        <path id="Trazado_1253973" data-name="Trazado 1253973" d="M10.517,42.516a6.48,6.48,0,0,0,.047.832,2.38,2.38,0,0,1-1.219.34,2.344,2.344,0,1,1,1.172-4.372Z" transform="translate(-6.996 -39)" fill="#ffb655"/>
        <path id="Trazado_1253974" data-name="Trazado 1253974" d="M21.033,48.32v1.172a8.156,8.156,0,0,1-7.033,0V48.32a8.156,8.156,0,0,0,7.033,0Z" transform="translate(-5.791 -37.395)" fill="#ffb655"/>
        <path id="Trazado_1253975" data-name="Trazado 1253975" d="M51.033,48.32v1.172a8.156,8.156,0,0,1-7.033,0V48.32A8.156,8.156,0,0,0,51.033,48.32Z" transform="translate(-0.626 -37.395)" fill="#ffb655"/>
      </g>
      <path id="Trazado_1253976" data-name="Trazado 1253976" d="M13,40h2.344v2.344H13Z" transform="translate(1.549 6.542)"/>
      <path id="Trazado_1253977" data-name="Trazado 1253977" d="M19,40h2.344v2.344H19Z" transform="translate(2.582 6.542)"/>
      <path id="Trazado_1253978" data-name="Trazado 1253978" d="M43,40h2.344v2.344H43Z" transform="translate(6.714 6.542)"/>
      <path id="Trazado_1253979" data-name="Trazado 1253979" d="M49,40h2.344v2.344H49Z" transform="translate(7.747 6.542)"/>
      <path id="Trazado_1253980" data-name="Trazado 1253980" d="M64.773,61.2l-5.681-2.527V56.982a9.346,9.346,0,0,0,4.4-5.792c.1.008.193.04.293.04a3.507,3.507,0,0,0,.441-6.988l1.56-1.56a1.172,1.172,0,0,0,.343-.829V38.337a5.839,5.839,0,0,0-2.344-4.663v-9.4a1.172,1.172,0,0,0-1.043-1.165l-5.861-.653A20.839,20.839,0,0,0,55.6,19.368l3.681-4.591a1.172,1.172,0,0,0-.087-1.561L52.571,6.593a1.172,1.172,0,0,0-1.56-.087l-4.6,3.67A20.854,20.854,0,0,0,43.327,8.9l-.653-5.861A1.172,1.172,0,0,0,41.509,2H32.132a1.172,1.172,0,0,0-1.165,1.042L30.314,8.9a20.853,20.853,0,0,0-3.086,1.276L22.63,6.5a1.172,1.172,0,0,0-1.561.087l-6.622,6.623a1.172,1.172,0,0,0-.087,1.561l3.676,4.6a20.715,20.715,0,0,0-1.276,3.085l-5.861.653a1.172,1.172,0,0,0-1.039,1.165v8.205H6.344a1.172,1.172,0,0,0-1.049,1.7l2.083,4.165-.911,1.82a1.172,1.172,0,0,0,.22,1.353L9.42,44.242a3.507,3.507,0,0,0,.441,6.988c.1,0,.2-.032.3-.041a9.377,9.377,0,0,0,2.452,4.329,9.188,9.188,0,0,0,1.941,1.448v1.708L8.868,61.2A8.205,8.205,0,0,0,4,68.7v2.462a1.172,1.172,0,0,0,1.172,1.172H33.3a1.172,1.172,0,0,0,1.172-1.172V68.7A8.2,8.2,0,0,0,29.609,61.2l-5.682-2.528V56.982a9.346,9.346,0,0,0,4.4-5.792c.1.008.193.04.293.04a3.486,3.486,0,0,0,1.882-.557l.469,4.2a1.172,1.172,0,0,0,1.165,1.042h9.377a1.172,1.172,0,0,0,1.165-1.042l.469-4.2a3.486,3.486,0,0,0,1.882.557c.1,0,.2-.032.3-.041a9.377,9.377,0,0,0,2.452,4.329,9.188,9.188,0,0,0,1.941,1.448v1.708L44.033,61.2A8.205,8.205,0,0,0,39.165,68.7v2.462a1.172,1.172,0,0,0,1.172,1.172H68.469a1.172,1.172,0,0,0,1.172-1.172V68.7A8.2,8.2,0,0,0,64.774,61.2Zm-5.065.313-.274,1.1-1.856-.619-.43-.862.8-.4ZM54.4,58.264a9.277,9.277,0,0,0,2.344-.307v.755l-1.449.724H53.507l-1.449-.724v-.755a9.292,9.292,0,0,0,2.344.307Zm-.918,4.454.469-.938h.9l.469.938-.915.921Zm.1,3.413a1.163,1.163,0,0,0,1.632,0l1.133,3.854h-3.9ZM64.952,47.714a1.172,1.172,0,0,1-1.172,1.172V46.542A1.172,1.172,0,0,1,64.952,47.714ZM63.78,41.368l-1.657,1.657h-.17a1.172,1.172,0,0,1-1.112-.8L60.2,40.311a1.172,1.172,0,0,0-.762-.749,1.191,1.191,0,0,0-.349-.053,1.172,1.172,0,0,0-.7.234L56.2,41.385a8.258,8.258,0,0,1-4.923,1.641H46.683L44.1,40.447l.795-1.589a1.172,1.172,0,0,0,0-1.048L43.406,34.82H60.264a3.516,3.516,0,0,1,3.516,3.516ZM30.893,37.676a5.839,5.839,0,0,0-3.868-4.847,10.2,10.2,0,0,1-.754-3.869,10.549,10.549,0,0,1,21.1,0,10.38,10.38,0,0,1-.618,3.516H41.509a1.172,1.172,0,0,0-1.055,1.7l1.885,3.77a10.51,10.51,0,0,1-11.452-.266ZM12.205,25.326l5.581-.622a1.172,1.172,0,0,0,1-.843,18.379,18.379,0,0,1,1.673-4.031,1.172,1.172,0,0,0-.1-1.314l-3.506-4.391,5.139-5.139,4.386,3.506a1.172,1.172,0,0,0,1.312.1,18.386,18.386,0,0,1,4.033-1.674,1.172,1.172,0,0,0,.842-1l.628-5.581h7.267l.622,5.581a1.172,1.172,0,0,0,.842,1A18.386,18.386,0,0,1,45.963,12.6a1.172,1.172,0,0,0,1.312-.1l4.38-3.506,5.139,5.139L53.288,18.51a1.172,1.172,0,0,0-.1,1.314,18.38,18.38,0,0,1,1.673,4.031,1.172,1.172,0,0,0,1,.843l5.581.628v7.267a5.861,5.861,0,0,0-1.172-.117H49.21a12.712,12.712,0,0,0,.5-3.516,12.894,12.894,0,1,0-25.787,0,12.659,12.659,0,0,0,.505,3.516H12.205ZM9.744,37.813l-1.5-2.993H25.1a3.516,3.516,0,0,1,3.516,3.516v3.031l-1.657,1.657h-.17a1.172,1.172,0,0,1-1.112-.8l-.638-1.913a1.172,1.172,0,0,0-.762-.749,1.191,1.191,0,0,0-.349-.053,1.172,1.172,0,0,0-.7.234l-2.187,1.641a8.258,8.258,0,0,1-4.923,1.641H11.518L8.939,40.447l.8-1.586a1.172,1.172,0,0,0,0-1.048Zm-1.055,9.9a1.172,1.172,0,0,1,1.172-1.172v2.344A1.172,1.172,0,0,1,8.689,47.714Zm11.467,15-.918.921-.918-.918.469-.938h.9Zm-1.738,3.417a1.163,1.163,0,0,0,1.632,0l1.138,3.851h-3.9Zm3.165-7.423-1.449.724H18.343l-1.449-.724v-.755a9.1,9.1,0,0,0,4.689,0Zm-5.89,2.021.8.4-.43.862-1.856.619-.274-1.1ZM6.344,68.7A5.861,5.861,0,0,1,9.82,63.343l1.938-.862.482,1.928a1.173,1.173,0,0,0,1.507.828l2.767-.922-1.67,5.671h-8.5Zm25.787,0v1.289h-8.5l-1.67-5.671,2.767.922a1.173,1.173,0,0,0,1.507-.827l.482-1.928,1.938.862A5.861,5.861,0,0,1,32.132,68.7Zm-7.589-7.182-.274,1.1-1.856-.619-.43-.862.8-.4ZM26.23,49.606a7.033,7.033,0,0,1-10.014,5.626,6.863,6.863,0,0,1-1.952-1.371,7.033,7.033,0,0,1-2.023-4.294,5.408,5.408,0,0,1-.036-.681V45.37h3.907a10.608,10.608,0,0,0,6.33-2.11l.887-.665.124.37a3.509,3.509,0,0,0,2.818,2.363v3.557a5.583,5.583,0,0,1-.041.72Zm2.385-.72V46.542a1.172,1.172,0,1,1,0,2.344Zm12.467-.892-.628,5.581H33.187l-.622-5.581a1.172,1.172,0,0,0-.481-.821,3.5,3.5,0,0,0-3.022-2.936l1.56-1.56a1.172,1.172,0,0,0,.338-.824V40.447a12.847,12.847,0,0,0,10.59.506,1.153,1.153,0,0,0,.3.561l2.732,2.732a3.5,3.5,0,0,0-3.022,2.936A1.172,1.172,0,0,0,41.082,47.994Zm2.771-.28a1.172,1.172,0,0,1,1.172-1.172v2.344A1.172,1.172,0,0,1,43.853,47.714Zm3.553,1.852a5.408,5.408,0,0,1-.036-.68V45.37h3.907a10.608,10.608,0,0,0,6.33-2.11l.887-.665.124.37a3.509,3.509,0,0,0,2.818,2.363v3.558a5.582,5.582,0,0,1-.041.72,7.033,7.033,0,0,1-10.014,5.626,6.863,6.863,0,0,1-1.952-1.371,7.033,7.033,0,0,1-2.023-4.295Zm3.451,11.166.8.4-.43.862-1.856.619-.274-1.1ZM41.509,68.7a5.861,5.861,0,0,1,3.476-5.353l1.938-.862.482,1.928a1.173,1.173,0,0,0,1.507.828l2.767-.922-1.67,5.671h-8.5ZM67.3,69.985H58.8l-1.67-5.671,2.767.922a1.173,1.173,0,0,0,1.507-.828l.482-1.928,1.938.862A5.861,5.861,0,0,1,67.3,68.7Z" transform="translate(0 0)"/>
      <path id="Trazado_1253981" data-name="Trazado 1253981" d="M31,8h2.344v2.344H31Z" transform="translate(4.648 1.033)"/>
      <path id="Trazado_1253982" data-name="Trazado 1253982" d="M0,0H2.344V2.344H0Z" transform="translate(21.897 15.698) rotate(-45)"/>
      <path id="Trazado_1253983" data-name="Trazado 1253983" d="M15,24h2.344v2.344H15Z" transform="translate(1.894 3.787)"/>
      <path id="Trazado_1253984" data-name="Trazado 1253984" d="M31,40h2.344v2.344H31Z" transform="translate(4.648 6.542)"/>
      <path id="Trazado_1253985" data-name="Trazado 1253985" d="M47,24h2.344v2.344H47Z" transform="translate(7.403 3.787)"/>
      <path id="Trazado_1253986" data-name="Trazado 1253986" d="M0,0H2.344V2.344H0Z" transform="translate(48.417 15.702) rotate(-45)"/>
      <path id="Trazado_1253987" data-name="Trazado 1253987" d="M33.764,31.246l4.516-4.515a3.5,3.5,0,0,0,.451-4.383l-.016-.027a3.5,3.5,0,0,0-4.845-.969l-.935.626L32,21.356a3.494,3.494,0,0,0-4.41,5.378L32.1,31.249a1.172,1.172,0,0,0,1.657,0Zm-4.515-6.173a1.15,1.15,0,0,1,.586-1.94,1.081,1.081,0,0,1,.234-.023,1.14,1.14,0,0,1,.635.193l1.584,1.055a1.172,1.172,0,0,0,1.3,0L35.175,23.3a1.152,1.152,0,0,1,1.584.3l.012.018a1.155,1.155,0,0,1-.143,1.45L32.936,28.76Z" transform="translate(3.885 3.231)"/>
    </g>
  </g>
</svg>
